<svg width="27" height="27" viewBox="0 0 27 27" fill="none" xmlns="http://www.w3.org/2000/svg">
<path opacity="0.14" d="M3.375 9.225C3.375 7.96488 3.375 7.33482 3.62024 6.85352C3.83595 6.43016 4.18016 6.08595 4.60352 5.87024C5.08482 5.625 5.71488 5.625 6.975 5.625H20.025C21.2851 5.625 21.9152 5.625 22.3965 5.87024C22.8198 6.08595 23.164 6.43016 23.3798 6.85352C23.625 7.33482 23.625 7.96488 23.625 9.225V10.125H3.375V9.225Z" fill="#FFFDFD"/>
<path d="M3.375 10.125H23.625M7.875 3.375V5.625M19.125 3.375V5.625M6.75 14.625H9M6.75 19.125H9M12.375 14.625H14.625M12.375 19.125H14.625M18 14.625H20.25M18 19.125H20.25M6.975 23.625H20.025C21.2851 23.625 21.9152 23.625 22.3965 23.3798C22.8198 23.164 23.164 22.8198 23.3798 22.3965C23.625 21.9152 23.625 21.2851 23.625 20.025V9.225C23.625 7.96488 23.625 7.33482 23.3798 6.85352C23.164 6.43016 22.8198 6.08595 22.3965 5.87024C21.9152 5.625 21.2851 5.625 20.025 5.625H6.975C5.71488 5.625 5.08482 5.625 4.60352 5.87024C4.18016 6.08595 3.83595 6.43016 3.62024 6.85352C3.375 7.33482 3.375 7.96488 3.375 9.225V20.025C3.375 21.2851 3.375 21.9152 3.62024 22.3965C3.83595 22.8198 4.18016 23.164 4.60352 23.3798C5.08482 23.625 5.71488 23.625 6.975 23.625Z" stroke="#FFFDFD" stroke-width="2" stroke-linecap="round" stroke-linejoin="round"/>
</svg>
