<svg width="23" height="23" viewBox="0 0 23 23" fill="none" xmlns="http://www.w3.org/2000/svg">
<path d="M1.375 8.125H21.625M5.875 1.375V3.625M17.125 1.375V3.625M4.75 12.625H7M4.75 17.125H7M10.375 12.625H12.625M10.375 17.125H12.625M16 12.625H18.25M16 17.125H18.25M4.975 21.625H18.025C19.2851 21.625 19.9152 21.625 20.3965 21.3798C20.8198 21.164 21.164 20.8198 21.3798 20.3965C21.625 19.9152 21.625 19.2851 21.625 18.025V7.225C21.625 5.96488 21.625 5.33482 21.3798 4.85352C21.164 4.43016 20.8198 4.08595 20.3965 3.87024C19.9152 3.625 19.2851 3.625 18.025 3.625H4.975C3.71488 3.625 3.08482 3.625 2.60352 3.87024C2.18016 4.08595 1.83595 4.43016 1.62024 4.85352C1.375 5.33482 1.375 5.96488 1.375 7.225V18.025C1.375 19.2851 1.375 19.9152 1.62024 20.3965C1.83595 20.8198 2.18016 21.164 2.60352 21.3798C3.08482 21.625 3.71488 21.625 4.975 21.625Z" stroke="#FFFDFD" stroke-width="2" stroke-linecap="round" stroke-linejoin="round"/>
</svg>
