<svg width="500" height="500" viewBox="0 0 500 500" fill="none" xmlns="http://www.w3.org/2000/svg">
<path d="M500 382.4H0V382.65H500V382.4Z" fill="#EBEBEB"/>
<path d="M449.9 398.49H416.78V398.74H449.9V398.49Z" fill="#EBEBEB"/>
<path d="M331.22 401.211H322.53V401.461H331.22V401.211Z" fill="#EBEBEB"/>
<path d="M415.78 389.211H396.59V389.461H415.78V389.211Z" fill="#EBEBEB"/>
<path d="M95.65 390.891H52.46V391.141H95.65V390.891Z" fill="#EBEBEB"/>
<path d="M110.89 390.891H104.56V391.141H110.89V390.891Z" fill="#EBEBEB"/>
<path d="M225.15 395.109H131.47V395.359H225.15V395.109Z" fill="#EBEBEB"/>
<path d="M237 337.8H43.91C42.3973 337.797 40.9475 337.195 39.8788 336.124C38.8102 335.053 38.21 333.603 38.21 332.09V60.66C38.2231 59.156 38.8292 57.718 39.8964 56.6582C40.9637 55.5985 42.4059 55.0026 43.91 55H237C238.514 55 239.967 55.6016 241.038 56.6724C242.108 57.7433 242.71 59.1956 242.71 60.71V332.09C242.71 333.604 242.108 335.057 241.038 336.128C239.967 337.198 238.514 337.8 237 337.8ZM43.91 55.2C42.4636 55.2026 41.0774 55.7791 40.0556 56.8027C39.0338 57.8264 38.46 59.2136 38.46 60.66V332.09C38.46 333.536 39.0338 334.924 40.0556 335.947C41.0774 336.971 42.4636 337.547 43.91 337.55H237C238.447 337.547 239.834 336.971 240.858 335.948C241.881 334.924 242.457 333.537 242.46 332.09V60.66C242.457 59.2127 241.881 57.8255 240.858 56.8021C239.834 55.7787 238.447 55.2026 237 55.2H43.91Z" fill="#EBEBEB"/>
<path d="M453.31 337.8H260.21C258.696 337.797 257.246 337.195 256.175 336.125C255.105 335.054 254.503 333.604 254.5 332.09V60.66C254.516 59.1551 255.124 57.7171 256.193 56.6576C257.262 55.5981 258.705 55.0025 260.21 55H453.31C454.812 55.0052 456.252 55.6022 457.317 56.6617C458.382 57.7212 458.987 59.1578 459 60.66V332.09C459 333.601 458.401 335.05 457.335 336.121C456.268 337.191 454.821 337.795 453.31 337.8ZM260.21 55.2C258.763 55.2026 257.375 55.7787 256.352 56.8021C255.329 57.8255 254.753 59.2127 254.75 60.66V332.09C254.753 333.537 255.329 334.924 256.352 335.948C257.375 336.971 258.763 337.547 260.21 337.55H453.31C454.757 337.547 456.145 336.971 457.168 335.948C458.191 334.924 458.767 333.537 458.77 332.09V60.66C458.767 59.2127 458.191 57.8255 457.168 56.8021C456.145 55.7787 454.757 55.2026 453.31 55.2H260.21Z" fill="#EBEBEB"/>
<path d="M164.49 65.75H93.24V307.46H164.49V65.75Z" fill="#FAFAFA"/>
<path d="M153.88 65.75H149.72L124.87 307.46H129.03L153.88 65.75Z" fill="#F5F5F5"/>
<path d="M163.23 66.6797H92.78V68.8097H163.23V66.6797Z" fill="#E0E0E0"/>
<path d="M163.23 305.34H92.78V309.9H163.23V305.34Z" fill="#EBEBEB"/>
<path d="M162.06 309.699H95.49V309.899H162.06V309.699Z" fill="#EBEBEB"/>
<path d="M95.49 66.6795H162.06V309.699H166.05V63.6895H91.5V309.699H95.49V66.6795Z" fill="#EBEBEB"/>
<path d="M243.78 65.75H172.53V307.46H243.78V65.75Z" fill="#FAFAFA"/>
<path d="M224.01 65.75H201.3L176.45 307.46H199.16L224.01 65.75Z" fill="#F5F5F5"/>
<path d="M244.52 66.6797H172.07V68.8097H244.52V66.6797Z" fill="#E0E0E0"/>
<path d="M244.52 305.34H172.07V309.9H244.52V305.34Z" fill="#EBEBEB"/>
<path d="M241.35 309.699H174.78V309.899H241.35V309.699Z" fill="#EBEBEB"/>
<path d="M174.78 66.6795H241.35V309.699H245.33V63.6895H170.79V309.699H174.78V66.6795Z" fill="#EBEBEB"/>
<path d="M321.06 65.75H251.81V307.46H321.06V65.75Z" fill="#FAFAFA"/>
<path d="M291.05 65.75H286.89L262.04 307.46H266.2L291.05 65.75Z" fill="#F5F5F5"/>
<path d="M321.81 66.6797H251.36V68.8097H321.81V66.6797Z" fill="#E0E0E0"/>
<path d="M321.81 305.34H251.36V309.9H321.81V305.34Z" fill="#EBEBEB"/>
<path d="M320.64 309.699H254.07V309.899H320.64V309.699Z" fill="#EBEBEB"/>
<path d="M254.07 66.6795H320.63V309.699H324.62V63.6895H250.08V309.699H254.07V66.6795Z" fill="#EBEBEB"/>
<path d="M402.35 65.75H331.1V307.46H402.35V65.75Z" fill="#FAFAFA"/>
<path d="M395.38 65.75H372.67L347.81 307.46H370.53L395.38 65.75Z" fill="#F5F5F5"/>
<path d="M401.09 66.6797H330.64V68.8097H401.09V66.6797Z" fill="#E0E0E0"/>
<path d="M401.09 305.34H330.64V309.9H401.09V305.34Z" fill="#EBEBEB"/>
<path d="M333.35 66.6795H399.92V309.699H403.91V63.6895H329.37V309.699H333.35V66.6795Z" fill="#EBEBEB"/>
<path d="M399.92 309.699H333.35V309.899H399.92V309.699Z" fill="#EBEBEB"/>
<path d="M147.44 251.859H116.51V305.349H147.44V251.859Z" fill="#EBEBEB"/>
<path d="M141.5 244.381V257.801H139.07H124.89H122.45V244.381H141.5Z" fill="#EBEBEB"/>
<path d="M141.5 257.801H145.46V253.841H141.5V257.801Z" fill="#FAFAFA"/>
<path d="M133.84 257.801H137.8V253.841H133.84V257.801Z" fill="#FAFAFA"/>
<path d="M126.17 257.801H130.13V253.841H126.17V257.801Z" fill="#FAFAFA"/>
<path d="M118.5 257.801H122.46V253.841H118.5V257.801Z" fill="#F0F0F0"/>
<path d="M141.5 264.99H145.46V261.03H141.5V264.99Z" fill="#F0F0F0"/>
<path d="M133.84 264.99H137.8V261.03H133.84V264.99Z" fill="#F0F0F0"/>
<path d="M126.17 264.99H130.13V261.03H126.17V264.99Z" fill="#FAFAFA"/>
<path d="M118.5 264.99H122.46V261.03H118.5V264.99Z" fill="#FAFAFA"/>
<path d="M141.5 272.189H145.46V268.229H141.5V272.189Z" fill="#F0F0F0"/>
<path d="M133.84 272.189H137.8V268.229H133.84V272.189Z" fill="#FAFAFA"/>
<path d="M126.17 272.189H130.13V268.229H126.17V272.189Z" fill="#FAFAFA"/>
<path d="M133.84 251.58H137.8V247.62H133.84V251.58Z" fill="#FAFAFA"/>
<path d="M126.17 251.58H130.13V247.62H126.17V251.58Z" fill="#F0F0F0"/>
<path d="M118.5 272.189H122.46V268.229H118.5V272.189Z" fill="#F0F0F0"/>
<path d="M141.5 279.391H145.46V275.431H141.5V279.391Z" fill="#FAFAFA"/>
<path d="M133.84 279.391H137.8V275.431H133.84V279.391Z" fill="#F0F0F0"/>
<path d="M126.17 279.391H130.13V275.431H126.17V279.391Z" fill="#F0F0F0"/>
<path d="M118.5 279.391H122.46V275.431H118.5V279.391Z" fill="#FAFAFA"/>
<path d="M141.5 286.59H145.46V282.63H141.5V286.59Z" fill="#F0F0F0"/>
<path d="M133.84 286.59H137.8V282.63H133.84V286.59Z" fill="#FAFAFA"/>
<path d="M126.17 286.59H130.13V282.63H126.17V286.59Z" fill="#FAFAFA"/>
<path d="M118.5 286.59H122.46V282.63H118.5V286.59Z" fill="#F0F0F0"/>
<path d="M141.5 293.779H145.46V289.819H141.5V293.779Z" fill="#F0F0F0"/>
<path d="M133.84 293.779H137.8V289.819H133.84V293.779Z" fill="#FAFAFA"/>
<path d="M126.17 293.779H130.13V289.819H126.17V293.779Z" fill="#F0F0F0"/>
<path d="M118.5 293.779H122.46V289.819H118.5V293.779Z" fill="#FAFAFA"/>
<path d="M141.5 300.98H145.46V297.02H141.5V300.98Z" fill="#FAFAFA"/>
<path d="M133.84 300.98H137.8V297.02H133.84V300.98Z" fill="#FAFAFA"/>
<path d="M126.17 300.98H130.13V297.02H126.17V300.98Z" fill="#F0F0F0"/>
<path d="M118.5 300.98H122.46V297.02H118.5V300.98Z" fill="#F0F0F0"/>
<path d="M365.34 271.34H337.63V305.34H365.34V271.34Z" fill="#F0F0F0"/>
<path d="M340.04 275.119H346.48H348.26H350.03V278.659H348.26H346.48H340.04V275.119Z" fill="#E6E6E6"/>
<path d="M340.04 281.99H346.48H348.26H350.03V285.54H348.26H346.48H340.04V281.99Z" fill="#FAFAFA"/>
<path d="M340.04 288.859H346.48H348.26H350.03V292.409H348.26H346.48H340.04V288.859Z" fill="#E6E6E6"/>
<path d="M340.04 295.73H346.48H349.22H350.03V299.28H349.22H346.48H340.04V295.73Z" fill="#FAFAFA"/>
<path d="M352.93 275.119H359.38H361.15H362.92V278.659H361.15H359.38H352.93V275.119Z" fill="#FAFAFA"/>
<path d="M352.93 281.99H359.38H361.88H362.92V285.54H361.88H359.38H352.93V281.99Z" fill="#FAFAFA"/>
<path d="M352.93 288.859H359.38H361.15H362.92V292.409H361.15H359.38H352.93V288.859Z" fill="#E6E6E6"/>
<path d="M352.93 295.73H359.38H361.15H362.92V299.28H361.15H359.38H352.93V295.73Z" fill="#FAFAFA"/>
<path d="M231.81 284.221H206.63V305.351H231.81V284.221Z" fill="#F0F0F0"/>
<path d="M226.98 290.08H230.2V286.86H226.98V290.08Z" fill="#FAFAFA"/>
<path d="M220.74 290.08H223.96V286.86H220.74V290.08Z" fill="#FAFAFA"/>
<path d="M214.49 290.08H217.71V286.86H214.49V290.08Z" fill="#FAFAFA"/>
<path d="M208.25 290.08H211.47V286.86H208.25V290.08Z" fill="#FAFAFA"/>
<path d="M226.98 295.93H230.2V292.71H226.98V295.93Z" fill="#FAFAFA"/>
<path d="M220.74 295.93H223.96V292.71H220.74V295.93Z" fill="#FAFAFA"/>
<path d="M214.49 295.93H217.71V292.71H214.49V295.93Z" fill="#FAFAFA"/>
<path d="M208.25 295.93H211.47V292.71H208.25V295.93Z" fill="#E6E6E6"/>
<path d="M226.98 301.789H230.2V298.569H226.98V301.789Z" fill="#E6E6E6"/>
<path d="M220.74 301.789H223.96V298.569H220.74V301.789Z" fill="#E6E6E6"/>
<path d="M214.49 301.789H217.71V298.569H214.49V301.789Z" fill="#FAFAFA"/>
<path d="M208.25 301.789H211.47V298.569H208.25V301.789Z" fill="#E6E6E6"/>
<path d="M203.22 268.6H178.04V305.35H203.22V268.6Z" fill="#F0F0F0"/>
<path d="M201.61 270.211H192.14V279.291H201.61V270.211Z" fill="#FAFAFA"/>
<path d="M189.12 270.211H179.65V279.291H189.12V270.211Z" fill="#FAFAFA"/>
<path d="M201.61 281.92H192.14V291H201.61V281.92Z" fill="#FAFAFA"/>
<path d="M189.12 281.92H179.65V291H189.12V281.92Z" fill="#FAFAFA"/>
<path d="M201.61 293.631H192.14V302.711H201.61V293.631Z" fill="#FAFAFA"/>
<path d="M189.12 293.631H179.65V302.711H189.12V293.631Z" fill="#FAFAFA"/>
<path d="M250 427.56C357.082 427.56 443.89 422.492 443.89 416.24C443.89 409.988 357.082 404.92 250 404.92C142.917 404.92 56.11 409.988 56.11 416.24C56.11 422.492 142.917 427.56 250 427.56Z" fill="#F5F5F5"/>
<path d="M444.57 79.6094V299.849L418.07 326.349H264.66V79.6094H444.57Z" fill="#293751"/>
<path opacity="0.8" d="M444.57 79.6094V299.849L418.07 326.349H264.66V79.6094H444.57Z" fill="white"/>
<path opacity="0.2" d="M418.07 326.349V300.629H444.57L418.59 326.609" fill="black"/>
<path opacity="0.1" d="M332.74 100.999H283.12C282.422 100.999 281.754 100.721 281.26 100.228C280.767 99.735 280.49 99.066 280.49 98.3685C280.489 98.0223 280.556 97.6792 280.687 97.359C280.819 97.0387 281.012 96.7476 281.257 96.5023C281.501 96.2571 281.792 96.0625 282.111 95.9297C282.431 95.7969 282.774 95.7285 283.12 95.7285H332.74C333.438 95.7312 334.107 96.0105 334.6 96.5053C335.093 97.0001 335.37 97.6701 335.37 98.3685C335.37 99.066 335.093 99.735 334.6 100.228C334.106 100.721 333.438 100.999 332.74 100.999Z" fill="black"/>
<path opacity="0.1" d="M422.74 122.34H303.12C302.774 122.34 302.431 122.272 302.111 122.139C301.792 122.006 301.501 121.812 301.257 121.566C301.012 121.321 300.819 121.03 300.687 120.71C300.556 120.39 300.489 120.047 300.49 119.7C300.49 119.003 300.767 118.334 301.26 117.841C301.754 117.347 302.422 117.07 303.12 117.07H422.74C423.438 117.07 424.106 117.347 424.6 117.841C425.093 118.334 425.37 119.003 425.37 119.7C425.37 120.399 425.093 121.069 424.6 121.564C424.107 122.058 423.438 122.338 422.74 122.34Z" fill="black"/>
<path opacity="0.1" d="M422.74 132.709H283.12C282.422 132.709 281.754 132.432 281.26 131.939C280.767 131.446 280.49 130.777 280.49 130.079C280.489 129.733 280.556 129.39 280.687 129.07C280.819 128.75 281.012 128.459 281.257 128.213C281.501 127.968 281.792 127.773 282.111 127.641C282.431 127.508 282.774 127.439 283.12 127.439H422.74C423.438 127.442 424.107 127.721 424.6 128.216C425.093 128.711 425.37 129.381 425.37 130.079C425.37 130.777 425.093 131.446 424.6 131.939C424.106 132.432 423.438 132.709 422.74 132.709Z" fill="black"/>
<path opacity="0.1" d="M422.74 144.43H283.12C282.774 144.43 282.431 144.362 282.111 144.229C281.792 144.096 281.501 143.902 281.257 143.656C281.012 143.411 280.819 143.12 280.687 142.8C280.556 142.479 280.489 142.136 280.49 141.79C280.49 141.093 280.767 140.424 281.26 139.93C281.754 139.437 282.422 139.16 283.12 139.16H422.74C423.438 139.16 424.106 139.437 424.6 139.93C425.093 140.424 425.37 141.093 425.37 141.79C425.37 142.489 425.093 143.159 424.6 143.653C424.107 144.148 423.438 144.427 422.74 144.43Z" fill="black"/>
<path opacity="0.1" d="M422.74 156.139H283.12C282.422 156.139 281.754 155.862 281.26 155.369C280.767 154.875 280.49 154.206 280.49 153.509C280.49 152.811 280.767 152.142 281.26 151.649C281.754 151.156 282.422 150.879 283.12 150.879H422.74C423.438 150.879 424.106 151.156 424.6 151.649C425.093 152.142 425.37 152.811 425.37 153.509C425.37 154.206 425.093 154.875 424.6 155.369C424.106 155.862 423.438 156.139 422.74 156.139Z" fill="black"/>
<path opacity="0.1" d="M422.74 167.86H283.12C282.422 167.86 281.754 167.583 281.26 167.089C280.767 166.596 280.49 165.927 280.49 165.23C280.489 164.884 280.556 164.541 280.688 164.222C280.819 163.902 281.013 163.611 281.257 163.367C281.502 163.122 281.792 162.929 282.112 162.797C282.432 162.665 282.774 162.598 283.12 162.6H422.74C423.438 162.6 424.106 162.877 424.6 163.37C425.093 163.863 425.37 164.532 425.37 165.23C425.37 165.927 425.093 166.596 424.6 167.089C424.106 167.583 423.438 167.86 422.74 167.86Z" fill="black"/>
<path opacity="0.1" d="M422.74 179.579H283.12C282.422 179.579 281.754 179.302 281.26 178.808C280.767 178.315 280.49 177.646 280.49 176.949C280.489 176.602 280.556 176.259 280.687 175.939C280.819 175.619 281.012 175.328 281.257 175.082C281.501 174.837 281.792 174.643 282.111 174.51C282.431 174.377 282.774 174.309 283.12 174.309H422.74C423.438 174.311 424.107 174.591 424.6 175.085C425.093 175.58 425.37 176.25 425.37 176.949C425.37 177.646 425.093 178.315 424.6 178.808C424.106 179.302 423.438 179.579 422.74 179.579Z" fill="black"/>
<path opacity="0.1" d="M422.75 186.029H283.12C281.667 186.029 280.49 187.207 280.49 188.659V188.669C280.49 190.122 281.667 191.299 283.12 191.299H422.75C424.203 191.299 425.38 190.122 425.38 188.669V188.659C425.38 187.207 424.203 186.029 422.75 186.029Z" fill="black"/>
<path opacity="0.1" d="M422.74 203H283.12C282.422 203 281.754 202.723 281.26 202.23C280.767 201.737 280.49 201.068 280.49 200.37C280.49 199.673 280.767 199.004 281.26 198.511C281.754 198.017 282.422 197.74 283.12 197.74H422.74C423.438 197.74 424.106 198.017 424.6 198.511C425.093 199.004 425.37 199.673 425.37 200.37C425.37 201.068 425.093 201.737 424.6 202.23C424.106 202.723 423.438 203 422.74 203Z" fill="black"/>
<path opacity="0.1" d="M422.74 214.729H283.12C282.422 214.729 281.754 214.452 281.26 213.958C280.767 213.465 280.49 212.796 280.49 212.099C280.489 211.753 280.556 211.41 280.688 211.091C280.819 210.771 281.013 210.481 281.257 210.236C281.502 209.992 281.792 209.798 282.112 209.666C282.432 209.535 282.774 209.467 283.12 209.469H422.74C423.438 209.469 424.106 209.746 424.6 210.239C425.093 210.732 425.37 211.401 425.37 212.099C425.37 212.796 425.093 213.465 424.6 213.958C424.106 214.452 423.438 214.729 422.74 214.729Z" fill="black"/>
<path opacity="0.1" d="M422.74 226.45H283.12C282.422 226.45 281.754 226.173 281.26 225.679C280.767 225.186 280.49 224.517 280.49 223.82C280.489 223.473 280.556 223.13 280.687 222.81C280.819 222.49 281.012 222.199 281.257 221.954C281.501 221.708 281.792 221.514 282.111 221.381C282.431 221.248 282.774 221.18 283.12 221.18H422.74C423.438 221.182 424.107 221.462 424.6 221.956C425.093 222.451 425.37 223.121 425.37 223.82C425.37 224.517 425.093 225.186 424.6 225.679C424.106 226.173 423.438 226.45 422.74 226.45Z" fill="black"/>
<path opacity="0.1" d="M422.74 238.168H283.12C282.774 238.168 282.431 238.1 282.111 237.967C281.792 237.835 281.501 237.64 281.257 237.395C281.012 237.149 280.819 236.858 280.687 236.538C280.556 236.218 280.489 235.875 280.49 235.528C280.49 234.831 280.767 234.162 281.26 233.669C281.754 233.176 282.422 232.898 283.12 232.898H422.74C423.438 232.898 424.106 233.176 424.6 233.669C425.093 234.162 425.37 234.831 425.37 235.528C425.37 236.227 425.093 236.897 424.6 237.392C424.107 237.886 423.438 238.166 422.74 238.168Z" fill="black"/>
<path opacity="0.1" d="M342.74 249.879H283.12C282.422 249.879 281.754 249.602 281.26 249.109C280.767 248.616 280.49 247.947 280.49 247.249C280.49 246.552 280.767 245.883 281.26 245.389C281.754 244.896 282.422 244.619 283.12 244.619H342.74C343.438 244.619 344.106 244.896 344.6 245.389C345.093 245.883 345.37 246.552 345.37 247.249C345.37 247.947 345.093 248.616 344.6 249.109C344.106 249.602 343.438 249.879 342.74 249.879Z" fill="black"/>
<path d="M412 133.579L411.81 133.419C411.27 133.009 410.96 133.149 410.71 132.359C410.53 131.789 410.71 131.149 410.5 130.559C410.024 129.544 409.479 128.561 408.87 127.619L406.41 123.189C405.861 122.208 404.945 121.485 403.864 121.178C402.782 120.87 401.623 121.004 400.64 121.549L377.99 134.169C377.9 134.929 377.27 135.449 377.14 136.169C377.095 136.382 377.107 136.603 377.173 136.81C377.24 137.017 377.36 137.203 377.52 137.349C377.266 137.344 377.02 137.256 376.82 137.099C375.47 136.349 375.11 135.749 373.72 136.509C373.12 136.829 372.53 137.169 371.94 137.509L365.94 140.859L347.14 151.329L325.14 163.609L306.81 173.819C304.31 175.209 301.28 176.429 299.05 178.199C299.67 178.519 299.78 179.009 299.23 179.489L298.23 180.399C298.23 180.649 298.59 180.649 298.82 180.549L300.06 180.019C299.199 181.113 298.161 182.056 296.99 182.809C295.024 183.951 292.911 184.819 290.71 185.389L291.77 184.059C291.85 183.949 291.95 183.809 291.88 183.679C291.81 183.549 291.68 183.539 291.56 183.529C291.03 183.469 290.5 183.529 290.11 183.139C286.69 185.139 283.11 187.039 279.63 188.979C278.649 189.529 277.926 190.444 277.618 191.526C277.311 192.607 277.445 193.766 277.99 194.749L300.83 235.749C301.1 236.236 301.463 236.664 301.899 237.01C302.335 237.355 302.835 237.612 303.37 237.764C303.905 237.916 304.465 237.962 305.017 237.897C305.57 237.833 306.104 237.66 306.59 237.389L312.6 233.999C312.6 233.289 313.16 232.499 312.74 231.849C312.681 231.77 312.643 231.677 312.63 231.579C312.63 231.449 312.75 231.349 312.86 231.279C313.476 230.888 314.182 230.661 314.91 230.619C315.16 230.619 315.49 230.729 315.45 230.969C315.45 230.749 316.74 230.289 316.95 230.219C317.05 230.759 316.68 231.339 317.31 231.449C317.94 231.559 318.9 230.449 319.31 230.249L325.31 226.899L344.31 216.329L365.15 204.719L379 196.999C379.5 196.709 380.09 196.369 380.57 196.129C380.744 195.212 381.19 194.369 381.85 193.709C382.85 193.019 384.43 193.779 385.26 192.799C385.42 192.609 385.52 192.379 385.66 192.179C385.939 191.854 386.279 191.586 386.66 191.389C386.902 191.199 387.194 191.085 387.5 191.059C387.8 191.059 388.12 191.309 388.08 191.609C390.14 191.129 392 189.739 393.82 188.709C394.48 188.339 400.27 185.619 400.25 185.189C400.17 183.859 400.98 182.719 400.94 181.349C400.94 181.089 400.43 179.349 400.66 179.219C395.46 182.319 390.06 185.139 384.76 188.079C384.58 188.189 383.9 188.419 383.76 188.619C383.76 188.619 383.71 188.709 383.69 188.759L383.54 189.089V189.169C383.325 189.85 383.071 190.518 382.78 191.169C382.78 191.259 381.65 192.659 381.56 192.329C381.12 190.719 380.56 190.469 379.33 191.129L377.57 192.129L371.98 195.239L353.15 205.739L330.96 218.099L312.47 228.399L304.72 232.709C303.173 229.909 301.617 227.113 300.05 224.319L297.05 218.929C296.746 218.182 296.298 217.502 295.73 216.929C295.3 216.609 294.57 216.689 294.19 216.399C293.26 215.689 292.59 214.399 291.71 213.569C291.11 213.009 290.2 211.329 290.45 210.399C290.75 210.519 291.05 210.649 291.35 210.739C291.193 210.124 291.228 209.475 291.45 208.879C288.45 203.829 285.69 198.549 282.82 193.389L282.63 193.059L289.63 189.159L294.74 186.309C295.791 185.857 296.796 185.305 297.74 184.659C298.39 184.099 299.05 183.399 299.74 182.799C300.203 182.447 300.707 182.152 301.24 181.919L303.13 180.999C303.227 180.941 303.337 180.907 303.45 180.899C303.563 180.912 303.674 180.938 303.78 180.979C304.78 181.189 307.26 179.339 308.16 178.839L313.98 175.599L331.54 165.809L353.42 153.629L375.32 141.419L392.94 131.609L401.94 126.609L402.36 126.379L412.09 143.849C412.692 145.027 413.656 145.98 414.84 146.569C415.24 146.699 415.69 146.979 415.64 147.389C415.59 147.799 414.99 148.139 415.13 148.559C415.27 148.979 416.04 148.819 416.22 149.199C416.4 149.579 415.91 150.199 415.97 150.719C416.177 151.342 416.484 151.926 416.88 152.449L419.71 157.539C421.29 160.359 422.86 163.189 424.45 166.039L407.15 175.679C407.236 175.748 407.307 175.833 407.36 175.929L407.45 176.159C407.794 176.281 408.128 176.428 408.45 176.599C408.588 176.676 408.702 176.79 408.78 176.927C408.857 177.065 408.895 177.221 408.89 177.379C408.888 177.535 408.844 177.688 408.763 177.822C408.682 177.955 408.567 178.065 408.43 178.139L407.37 178.739C407.332 178.971 407.225 179.186 407.063 179.356C406.9 179.525 406.69 179.642 406.46 179.689C406.337 179.7 406.213 179.7 406.09 179.689C405.985 179.766 405.864 179.82 405.737 179.846C405.609 179.871 405.477 179.869 405.35 179.839C405.124 179.77 404.933 179.615 404.817 179.409C404.702 179.202 404.671 178.958 404.73 178.729C404.771 178.626 404.825 178.529 404.89 178.439C404.814 178.293 404.78 178.13 404.79 177.966C404.801 177.802 404.856 177.644 404.95 177.509H404.63C404.45 177.509 404.29 177.409 404.12 177.359C403.221 177.915 402.52 178.741 402.12 179.719C402.077 179.773 402.055 179.841 402.06 179.909C402.06 180.049 402.28 180.059 402.41 180.119C402.71 180.259 402.64 180.699 402.49 180.989C402.34 181.279 402.16 181.649 402.36 181.909C402.436 181.997 402.519 182.077 402.61 182.149C403.04 182.639 402.38 184.059 403.43 183.479C403.356 183.17 403.403 182.845 403.56 182.569C403.738 182.291 404.012 182.088 404.33 181.999C405.107 181.811 405.901 181.697 406.7 181.659L427.55 169.999C428.531 169.45 429.254 168.534 429.562 167.453C429.869 166.371 429.735 165.212 429.19 164.229L429.07 164.019L419.65 147.109L414.21 137.329C413.68 136.399 413.21 135.429 412.63 134.509C412.471 134.168 412.258 133.854 412 133.579Z" fill="#293751"/>
<path d="M315.66 188.83C314.97 187.99 315.18 187.97 315.05 187.07C315.05 187.07 315.05 187.07 315.05 187.01L314.97 186.92L314.85 186.78C314.38 186.99 313.91 187.22 313.44 187.48L304.23 192.61L307.94 199.26C307.42 198.34 309.26 198.61 309.33 198.6C309.525 198.543 309.727 198.509 309.93 198.5C310.13 198.543 310.305 198.661 310.42 198.83C310.805 199.503 310.919 200.296 310.74 201.05C310.63 202.05 311.16 203.05 310.59 204.05C311.08 204.85 315.51 212.91 315.53 212.9L324.74 207.77C325.27 207.47 326.53 206.94 326.84 206.41C327.15 205.88 326.66 205.05 327.21 204.8C327.417 204.724 327.639 204.696 327.859 204.716C328.078 204.737 328.291 204.807 328.48 204.92C330.234 203.183 331.362 200.913 331.686 198.466C332.01 196.019 331.512 193.534 330.27 191.4C327.68 186.75 321.8 183.98 316.65 186.14C316.29 186.29 316.77 187.9 315.91 188.08C316.074 187.758 316.31 187.477 316.6 187.26M322.34 204L318.05 206.39C317.7 205.76 317.36 205.13 317 204.52C317.45 205.28 316.21 205.04 315.95 204.87C315.32 204.45 315.15 203.24 315.13 202.56C315.115 201.394 314.768 200.256 314.13 199.28C313.123 197.46 312.123 195.64 311.13 193.82L315.42 191.43C319.42 189.19 323.42 190.12 325.58 194C327.74 197.88 326.37 201.79 322.34 204Z" fill="#293751"/>
<path d="M346.11 171.799C346.329 172.274 346.392 172.806 346.29 173.319C346.24 173.599 345.79 174.319 345.85 174.499C346.01 174.899 346.17 175.299 346.32 175.699C346.347 175.765 346.384 175.826 346.43 175.879C346.507 175.931 346.597 175.959 346.69 175.959C348.28 176.099 348.21 176.259 348.31 177.599C348.4 178.749 349.39 179.409 349.95 180.409C350.702 181.723 351.029 183.238 350.885 184.745C350.742 186.252 350.136 187.678 349.149 188.826C348.163 189.975 346.845 190.79 345.377 191.159C343.909 191.529 342.362 191.434 340.95 190.889C340.913 190.926 340.872 190.959 340.83 190.989C340.62 191.095 340.379 191.124 340.15 191.069C339.63 190.922 339.16 190.637 338.788 190.245C338.417 189.852 338.158 189.367 338.04 188.839C338.025 188.76 338.025 188.679 338.04 188.599C337.757 188.249 337.506 187.874 337.29 187.479C336.776 186.653 336.438 185.73 336.298 184.767C336.157 183.804 336.217 182.823 336.473 181.884C336.73 180.945 337.177 180.069 337.787 179.312C338.397 178.554 339.158 177.93 340.02 177.479C341.27 176.766 342.704 176.439 344.14 176.539L344.06 176.419C343.2 175.279 346.3 174.819 344.9 174.049C344.31 173.729 344.41 172.279 344.26 171.689C341.988 171.741 339.765 172.356 337.79 173.479C331.39 177.049 329.18 184.119 332.54 190.149C333.954 192.744 336.292 194.711 339.09 195.659C339.748 195.946 340.453 196.109 341.17 196.139C341.99 196.069 341.59 196.139 341.94 195.649C342.29 195.159 342.08 194.949 342.61 194.429C343.14 193.909 343.76 193.599 343.87 192.799C343.87 193.159 344.27 193.419 344.27 193.799C344.27 193.909 344.27 194.019 344.27 194.119C344.291 194.25 344.35 194.372 344.44 194.469C344.78 194.929 345.35 195.469 345.36 195.999C346.823 195.757 348.228 195.241 349.5 194.479C355.87 190.929 358.13 183.869 354.75 177.819C353 174.729 349.71 171.999 346.11 171.799Z" fill="#293751"/>
<path d="M366.56 157.88L373.42 170.19L356.48 163.49L352.6 165.66C355.22 170.36 358 175.01 360.46 179.8C360.63 179.28 361.03 179.18 361.51 179.11C362.41 178.99 362.38 179.44 362.87 180.33C362.93 180.44 363 180.55 363.11 180.57C363.22 180.59 363.44 180.41 363.62 180.43C363.8 180.45 363.87 180.67 363.82 180.84C363.757 181.006 363.673 181.164 363.57 181.31C363.28 181.86 363.76 182.21 363.7 182.71C363.7 182.97 362.83 184.03 362.93 184.21L363.93 185.93L368.57 183.35L367.33 181.13H367.1C365.75 181.31 366.35 179.54 366.05 178.81C365.564 177.776 365.013 176.774 364.4 175.81L361.67 171L375.44 176.42C375.404 176.024 375.452 175.626 375.58 175.25C375.69 175.04 376.58 174.65 376.58 174.45C376.632 175.095 376.933 175.694 377.42 176.12C377.95 176.59 377.95 176.52 377.85 177.35L378.67 177.68L382.53 175.53L371.23 155.26L366.56 157.88Z" fill="#293751"/>
<path d="M389.87 166.53L387.25 161.84L396.67 156.59L394.67 152.94L385.26 158.19L382.81 153.78L389.17 150.24C389.439 149.894 389.78 149.61 390.17 149.41C390.368 149.309 390.595 149.284 390.81 149.34L393.5 147.85C393.5 147.85 391.59 144.44 391.41 144.08C390.49 144.5 391.41 145.66 390.48 146.22C390.67 146.42 390.95 147.13 390.48 147.22C390.21 147.22 390.01 146.88 389.74 146.91C389.47 146.94 389.46 147.07 389.32 147.03C389.278 147.018 389.238 146.997 389.205 146.967C389.173 146.938 389.147 146.901 389.13 146.86C389.001 146.558 388.836 146.273 388.64 146.01C388.01 145.4 382.26 149.23 381.46 149.68L376.11 152.68L387.4 172.95L391.91 170.44L392 170.32C392.33 169.9 392.65 169.47 393 169.08C393.142 168.945 393.324 168.859 393.519 168.836C393.713 168.813 393.91 168.853 394.08 168.95C394.161 168.992 394.232 169.05 394.29 169.12L403.1 164.21L401 160.44L389.87 166.53Z" fill="#293751"/>
<path d="M401.9 382.211C401.9 382.211 395.32 367.871 402.83 353.721C410.34 339.571 412.53 336.241 407.74 333.351C402.95 330.461 400.74 344.661 400.74 344.661C400.74 344.661 396.74 334.881 400.03 324.661C403.32 314.441 405.46 297.761 400.91 295.971C396.36 294.181 400.04 316.761 396.09 324.461C394.076 319.056 392.775 313.412 392.22 307.671C391.68 299.451 392.53 286.331 388.93 282.961C385.33 279.591 383.04 281.961 386.57 300.061C388.692 310.901 389.866 321.906 390.08 332.951C390.08 332.951 382.27 309.151 377.08 308.461C371.89 307.771 371.85 315.461 376.34 322.151C380.83 328.841 389.43 340.801 390.84 347.001C390.84 347.001 382.28 329.101 374.57 334.581C366.86 340.061 381.28 350.891 387.7 354.801C394.12 358.711 398.59 383.201 398.59 383.201L401.9 382.211Z" fill="#293751"/>
<path opacity="0.2" d="M401.9 382.211C401.9 382.211 395.32 367.871 402.83 353.721C410.34 339.571 412.53 336.241 407.74 333.351C402.95 330.461 400.74 344.661 400.74 344.661C400.74 344.661 396.74 334.881 400.03 324.661C403.32 314.441 405.46 297.761 400.91 295.971C396.36 294.181 400.04 316.761 396.09 324.461C394.076 319.056 392.775 313.412 392.22 307.671C391.68 299.451 392.53 286.331 388.93 282.961C385.33 279.591 383.04 281.961 386.57 300.061C388.692 310.901 389.866 321.906 390.08 332.951C390.08 332.951 382.27 309.151 377.08 308.461C371.89 307.771 371.85 315.461 376.34 322.151C380.83 328.841 389.43 340.801 390.84 347.001C390.84 347.001 382.28 329.101 374.57 334.581C366.86 340.061 381.28 350.891 387.7 354.801C394.12 358.711 398.59 383.201 398.59 383.201L401.9 382.211Z" fill="black"/>
<path d="M396.7 388.1C396.7 388.1 403.11 373.65 395.43 359.62C387.75 345.59 385.52 342.29 390.28 339.32C395.04 336.35 397.4 350.53 397.4 350.53C397.4 350.53 401.32 340.7 397.87 330.53C394.42 320.36 392.12 303.71 396.65 301.86C401.18 300.01 397.77 322.64 401.81 330.27C403.761 324.841 404.991 319.179 405.47 313.43C405.92 305.2 404.91 292.09 408.47 288.67C412.03 285.25 414.36 287.55 411.04 305.74C409.05 316.606 408.009 327.624 407.93 338.67C407.93 338.67 415.45 314.76 420.68 313.99C425.91 313.22 425.99 320.92 421.59 327.67C417.19 334.42 408.69 346.52 407.34 352.67C407.34 352.67 415.69 334.67 423.46 340.02C431.23 345.37 416.95 356.42 410.58 360.42C404.21 364.42 400 389 400 389L396.7 388.1Z" fill="#293751"/>
<path d="M426.24 377.801H373.34L377.62 415.661H421.96L426.24 377.801Z" fill="#263238"/>
<path d="M155.63 139.75H120.72C119.375 139.75 118.086 140.284 117.135 141.235C116.184 142.186 115.65 143.475 115.65 144.82V178.76C115.65 180.105 116.184 181.394 117.135 182.345C118.086 183.296 119.375 183.83 120.72 183.83H131.89L124.37 194.05L137.37 183.83H155.62C156.965 183.83 158.254 183.296 159.205 182.345C160.156 181.394 160.69 180.105 160.69 178.76V144.82C160.69 143.477 160.157 142.189 159.209 141.238C158.26 140.288 156.973 139.753 155.63 139.75Z" fill="#293751"/>
<path opacity="0.6" d="M155.63 139.75H120.72C119.375 139.75 118.086 140.284 117.135 141.235C116.184 142.186 115.65 143.475 115.65 144.82V178.76C115.65 180.105 116.184 181.394 117.135 182.345C118.086 183.296 119.375 183.83 120.72 183.83H131.89L124.37 194.05L137.37 183.83H155.62C156.965 183.83 158.254 183.296 159.205 182.345C160.156 181.394 160.69 180.105 160.69 178.76V144.82C160.69 143.477 160.157 142.189 159.209 141.238C158.26 140.288 156.973 139.753 155.63 139.75Z" fill="white"/>
<path d="M138.18 177.639C146.934 177.639 154.03 170.543 154.03 161.789C154.03 153.036 146.934 145.939 138.18 145.939C129.426 145.939 122.33 153.036 122.33 161.789C122.33 170.543 129.426 177.639 138.18 177.639Z" fill="#293751"/>
<path opacity="0.2" d="M151.401 164.902C153.126 157.597 148.601 150.277 141.297 148.553C133.992 146.829 126.672 151.353 124.948 158.658C123.224 165.963 127.748 173.282 135.053 175.007C142.358 176.731 149.677 172.207 151.401 164.902Z" fill="black"/>
<path d="M136.49 168.279C136.306 168.283 136.123 168.251 135.951 168.184C135.78 168.117 135.623 168.017 135.49 167.889L129.72 162.239C129.455 161.982 129.303 161.63 129.297 161.26C129.291 160.891 129.433 160.534 129.69 160.269C129.947 160.004 130.299 159.852 130.669 159.846C131.038 159.84 131.395 159.982 131.66 160.239L136.39 164.869L144.57 155.739C144.821 155.486 145.159 155.339 145.515 155.329C145.871 155.318 146.217 155.444 146.483 155.682C146.749 155.919 146.913 156.249 146.942 156.604C146.971 156.959 146.863 157.312 146.64 157.589L137.49 167.799C137.364 167.94 137.21 168.054 137.038 168.133C136.866 168.212 136.679 168.255 136.49 168.259V168.279Z" fill="white"/>
<path d="M92.9 392.92L121.71 390.08V357.59H133.13V390.07L162.06 392.92C163.446 393.054 164.733 393.7 165.668 394.732C166.604 395.764 167.121 397.107 167.12 398.5V402.83H87.84V398.5C87.8385 397.107 88.356 395.764 89.2916 394.732C90.2272 393.7 91.5137 393.054 92.9 392.92Z" fill="#263238"/>
<path opacity="0.1" d="M92.9 392.92L121.71 390.08V357.59H133.13V390.07L162.06 392.92C163.446 393.054 164.733 393.7 165.668 394.732C166.604 395.764 167.121 397.107 167.12 398.5V402.83H87.84V398.5C87.8385 397.107 88.356 395.764 89.2916 394.732C90.2272 393.7 91.5137 393.054 92.9 392.92Z" fill="white"/>
<path d="M164.07 415.661C168.196 415.661 171.54 412.316 171.54 408.191C171.54 404.065 168.196 400.721 164.07 400.721C159.944 400.721 156.6 404.065 156.6 408.191C156.6 412.316 159.944 415.661 164.07 415.661Z" fill="#263238"/>
<path d="M90.8899 415.661C95.0155 415.661 98.3599 412.316 98.3599 408.191C98.3599 404.065 95.0155 400.721 90.8899 400.721C86.7644 400.721 83.4199 404.065 83.4199 408.191C83.4199 412.316 86.7644 415.661 90.8899 415.661Z" fill="#263238"/>
<path d="M130.96 366.289H123.84C122.745 366.289 121.694 365.854 120.92 365.079C120.145 364.305 119.71 363.254 119.71 362.159V330.219H135.09V362.159C135.09 363.254 134.655 364.305 133.88 365.079C133.106 365.854 132.055 366.289 130.96 366.289Z" fill="#263238"/>
<path opacity="0.2" d="M130.96 366.289H123.84C122.745 366.289 121.694 365.854 120.92 365.079C120.145 364.305 119.71 363.254 119.71 362.159V330.219H135.09V362.159C135.09 363.254 134.655 364.305 133.88 365.079C133.106 365.854 132.055 366.289 130.96 366.289Z" fill="white"/>
<path d="M87.54 267.619C87.54 267.619 96.1 320.999 113 330.229H95.82C95.82 330.229 78.82 312.029 73.7 267.619H87.54Z" fill="#263238"/>
<path opacity="0.1" d="M87.54 267.619C87.54 267.619 96.1 320.999 113 330.229H95.82C95.82 330.229 78.82 312.029 73.7 267.619H87.54Z" fill="white"/>
<path d="M95 322.68H161.92C163.246 322.68 164.518 323.206 165.456 324.144C166.393 325.082 166.92 326.354 166.92 327.68V334.37H90V327.68C90 326.354 90.5268 325.082 91.4645 324.144C92.4021 323.206 93.6739 322.68 95 322.68Z" fill="#293751"/>
<path d="M168.08 328.52H88.77C87.6599 328.52 86.76 329.419 86.76 330.53V332.35C86.76 333.46 87.6599 334.36 88.77 334.36H168.08C169.19 334.36 170.09 333.46 170.09 332.35V330.53C170.09 329.419 169.19 328.52 168.08 328.52Z" fill="#263238"/>
<path opacity="0.6" d="M168.08 328.52H88.77C87.6599 328.52 86.76 329.419 86.76 330.53V332.35C86.76 333.46 87.6599 334.36 88.77 334.36H168.08C169.19 334.36 170.09 333.46 170.09 332.35V330.53C170.09 329.419 169.19 328.52 168.08 328.52Z" fill="white"/>
<path d="M71.67 278.48H99.16C107.22 278.48 112.45 272.02 110.85 264.05L108.71 253.41C107.11 245.41 99.28 238.99 91.23 238.99H63.74C55.68 238.99 50.45 245.45 52.05 253.41L54.19 264.05C55.79 272 63.61 278.48 71.67 278.48Z" fill="#293751"/>
<path d="M217.54 367.889L211.24 370.359L206.71 361.819L202.59 354.049L209.57 349.869L213.79 359.399L217.54 367.889Z" fill="#E4897B"/>
<path opacity="0.2" d="M213.79 359.399L206.71 361.819L202.59 354.049L209.57 349.869L213.79 359.399Z" fill="black"/>
<path d="M212.48 354.74L203.91 359.34C203.91 359.34 171.52 302.39 166.54 302.87C161.56 303.35 114.31 333.45 99.9 322.33C85.49 311.21 99.51 277.73 99.51 277.73C99.51 277.73 129.32 269.21 132.51 275.73C133.351 277.683 134.066 279.687 134.65 281.73C135.28 283.78 135.76 285.51 135.76 285.51C136.67 285.14 166.11 273.07 179.25 279.51C192.66 286.13 212.48 354.74 212.48 354.74Z" fill="#263238"/>
<path opacity="0.3" d="M212.48 354.74L203.91 359.34C203.91 359.34 171.52 302.39 166.54 302.87C161.56 303.35 114.31 333.45 99.9 322.33C85.49 311.21 99.51 277.73 99.51 277.73C99.51 277.73 129.32 269.21 132.51 275.73C133.351 277.683 134.066 279.687 134.65 281.73C135.28 283.78 135.76 285.51 135.76 285.51C136.67 285.14 166.11 273.07 179.25 279.51C192.66 286.13 212.48 354.74 212.48 354.74Z" fill="white"/>
<path d="M165.92 401.18L159.2 400.41L159.16 390.93L159.15 382.23L167.28 381.85L166.56 392.08L165.92 401.18Z" fill="#E4897B"/>
<path opacity="0.2" d="M166.54 392.291L159.14 391.111V382.321L167.27 381.891L166.54 392.291Z" fill="black"/>
<path d="M199.72 356.51L212.26 350.23L213.57 355.55L204.07 360.45L199.72 356.51Z" fill="#293751"/>
<path d="M122.16 322.419C122.16 322.419 124.22 322.189 155.91 316.319C155.91 316.319 156.63 356.839 158.13 387.049L167.89 387.359C167.89 387.359 181.89 320.359 180.24 310.199C178.59 300.039 166.55 298.709 166.55 298.709C166.55 298.709 145.64 314.999 122.16 322.419Z" fill="#263238"/>
<path opacity="0.4" d="M122.16 322.419C122.16 322.419 124.22 322.189 155.91 316.319C155.91 316.319 156.63 356.839 158.13 387.049L167.89 387.359C167.89 387.359 181.89 320.359 180.24 310.199C178.59 300.039 166.55 298.709 166.55 298.709C166.55 298.709 145.64 314.999 122.16 322.419Z" fill="white"/>
<path opacity="0.3" d="M122.16 322.419C122.16 322.419 124.22 322.189 155.91 316.319C155.91 316.319 156.63 356.839 158.13 387.049L167.89 387.359C167.89 387.359 181.89 320.359 180.24 310.199C178.59 300.039 166.55 298.709 166.55 298.709C166.55 298.709 145.64 314.999 122.16 322.419Z" fill="black"/>
<path d="M156.34 384.349L169.65 384.039L167.83 389.519L157.03 389.619L156.34 384.349Z" fill="#293751"/>
<path opacity="0.3" d="M135.8 285.53L118.53 291.68C118.53 291.68 127.61 284.9 134.69 281.75C135.32 283.8 135.8 285.53 135.8 285.53Z" fill="black"/>
<path d="M97.51 275.67L98.15 280.46L130.52 273.59L129.77 267.93L97.51 275.67Z" fill="#263238"/>
<path opacity="0.2" d="M97.51 275.67L98.15 280.46L130.52 273.59L129.77 267.93L97.51 275.67Z" fill="black"/>
<path d="M108.235 272.189L106.623 272.488L108.146 280.698L109.758 280.399L108.235 272.189Z" fill="#263238"/>
<path d="M122.35 270.111L115.288 271.703L116.495 277.059L123.557 275.467L122.35 270.111Z" fill="white"/>
<path d="M126.892 266.767L125.285 267.062L126.788 275.245L128.395 274.95L126.892 266.767Z" fill="#263238"/>
<path opacity="0.3" d="M108.235 272.189L106.623 272.488L108.146 280.698L109.758 280.399L108.235 272.189Z" fill="white"/>
<path opacity="0.3" d="M126.892 266.767L125.285 267.062L126.788 275.245L128.395 274.95L126.892 266.767Z" fill="white"/>
<path d="M230.06 379.07C229.009 378.748 227.907 378.622 226.81 378.7C226.81 378.7 222.74 377 217.81 368.91L213.61 369.46C212.903 369.566 212.246 369.887 211.727 370.379C211.209 370.871 210.854 371.51 210.71 372.21C210.68 372.409 210.68 372.611 210.71 372.81C210.891 373.825 211.138 374.827 211.45 375.81C212.527 379.061 213.799 382.243 215.26 385.34L215.94 385.06L213.77 379C213.05 376.93 215.56 378.68 216.89 380.68C218.22 382.68 220.11 384.62 224.6 382.92C229.82 380.88 231.89 379.8 230.06 379.07Z" fill="#263238"/>
<path d="M216.76 366.76C216.76 366.76 223.5 377 226.81 378.7C226.81 378.7 223.1 381.7 218.15 376.88C211.76 370.69 210.69 372.81 210.69 372.81C210.633 371.597 210.69 370.382 210.86 369.18C211.37 366.83 216.76 366.76 216.76 366.76Z" fill="#E4897B"/>
<path d="M176 413.1C175.042 412.548 173.992 412.175 172.9 412C172.9 412 169.35 409.39 166.5 400.37L162.29 399.91C161.576 399.842 160.858 399.998 160.236 400.357C159.615 400.715 159.12 401.258 158.82 401.91C158.73 402.089 158.67 402.282 158.64 402.48C158.57 403.502 158.57 404.528 158.64 405.55C158.911 408.963 159.392 412.356 160.08 415.71L160.81 415.6L160.16 409.18C159.95 407 161.98 409.3 162.8 411.56C163.62 413.82 164.99 416.15 169.75 415.56C175.31 414.81 177.57 414.25 176 413.1Z" fill="#263238"/>
<path d="M166 397.999C166 397.999 170.12 409.549 172.93 411.999C172.93 411.999 168.62 413.999 164.93 408.179C160.18 400.649 158.65 402.459 158.65 402.459C158.874 401.271 159.208 400.106 159.65 398.979C160.71 396.779 166 397.999 166 397.999Z" fill="#E4897B"/>
<path d="M90.46 194.001L82 195.701C81.6695 195.979 81.2791 196.177 80.8593 196.28C80.4394 196.382 80.0016 196.386 79.58 196.291C77.06 195.291 73.43 192.361 72.97 191.291C72.29 189.781 72.97 185.351 74.75 184.551C76.53 183.751 82.66 191.151 82.66 191.151L91.75 189.101L90.46 194.001Z" fill="#E4897B"/>
<path d="M117.14 222.119C117.14 222.119 116.37 194.709 113.2 193.539C110.03 192.369 86.2 195.639 86.2 195.639L85.62 189.379C85.62 189.379 113.35 185.109 118.72 187.639C124.09 190.169 125.86 231.019 124.88 238.889L117.14 222.119Z" fill="#293751"/>
<path opacity="0.6" d="M117.14 222.119C117.14 222.119 116.37 194.709 113.2 193.539C110.03 192.369 86.2 195.639 86.2 195.639L85.62 189.379C85.62 189.379 113.35 185.109 118.72 187.639C124.09 190.169 125.86 231.019 124.88 238.889L117.14 222.119Z" fill="white"/>
<path d="M86.61 196.24L84.95 189.36L87.33 188.5L88.84 196.45L86.61 196.24Z" fill="#293751"/>
<path opacity="0.7" d="M86.61 196.24L84.95 189.36L87.33 188.5L88.84 196.45L86.61 196.24Z" fill="white"/>
<path d="M117 218.699C117 218.699 114.87 227.039 104.61 229.699C94.35 232.359 83 225.409 83 225.409L85.26 245.309L97.82 276.659L129.92 268.289C129.92 268.289 128 231.819 117 218.699Z" fill="#293751"/>
<path opacity="0.7" d="M117 218.699C117 218.699 114.87 227.039 104.61 229.699C94.35 232.359 83 225.409 83 225.409L85.26 245.309L97.82 276.659L129.92 268.289C129.92 268.289 128 231.819 117 218.699Z" fill="white"/>
<path opacity="0.6" d="M122.579 251.769L126.336 250.583C126.752 250.452 126.983 250.008 126.852 249.592L124.613 242.497C124.482 242.081 124.038 241.85 123.622 241.981L119.865 243.167C119.449 243.298 119.218 243.742 119.349 244.158L121.588 251.253C121.719 251.669 122.163 251.9 122.579 251.769Z" fill="#293751"/>
<path opacity="0.2" d="M121.814 249.606L126.086 248.258L124.242 242.412L119.969 243.76L121.814 249.606Z" fill="black"/>
<path d="M121.671 240.3L120.726 240.598L121.813 244.04L122.757 243.743L121.671 240.3Z" fill="#263238"/>
<path d="M95.18 187.551C87.27 187.551 82.05 195.931 83.9 209.221C85.75 222.511 93.16 226.341 93.16 226.341L92.69 223.131C100.916 224.998 109.397 225.471 117.78 224.531C117.78 224.531 113.96 213.691 115.2 202.621C115.2 202.621 117.71 187.531 95.18 187.551Z" fill="#263238"/>
<path opacity="0.2" d="M110.89 227L114.12 239L108.44 234.67C108.44 234.67 113.97 247.31 115.44 254.67C115.44 254.67 110.66 242.14 106.54 235.27L104.13 242.15L94.4399 232.28C94.4399 232.28 103 225.72 110.89 227Z" fill="black"/>
<path d="M106.17 230.87L96.31 231.17C100.68 225.58 92.78 215.84 92.78 215.84L102.52 217.95C104.84 227.59 108.85 227.88 108.85 227.88L106.17 230.87Z" fill="#E4897B"/>
<path opacity="0.2" d="M105.24 224.869C101.478 224.554 97.9784 222.812 95.46 219.999C94.682 218.554 93.7856 217.176 92.78 215.879L102.52 217.999C103.036 220.425 103.955 222.747 105.24 224.869Z" fill="black"/>
<path d="M102.51 191.62C111 192.33 113.36 197.1 113.25 205.91C113.12 216.91 110.04 224.48 99.62 221.26C85.46 216.89 88.4 190.44 102.51 191.62Z" fill="#E4897B"/>
<path d="M107.8 205C108.375 206.326 109.107 207.578 109.98 208.73C109.7 209.058 109.336 209.303 108.927 209.439C108.519 209.575 108.08 209.596 107.66 209.5L107.8 205Z" fill="#DE5753"/>
<path d="M102.05 203.58L103.89 202.98C103.89 202.98 102.91 204.44 102.05 203.58Z" fill="#263238"/>
<path d="M102.69 203.37C102.348 203.202 101.956 203.164 101.588 203.263C101.22 203.363 100.901 203.592 100.69 203.91C101.004 203.767 101.345 203.693 101.69 203.693C102.035 203.693 102.376 203.767 102.69 203.91V203.37Z" fill="#263238"/>
<path d="M99.2699 199.32C99.1754 199.317 99.0856 199.278 99.0199 199.21C98.9851 199.177 98.9574 199.137 98.9384 199.094C98.9195 199.05 98.9097 199.003 98.9097 198.955C98.9097 198.907 98.9195 198.86 98.9384 198.816C98.9574 198.772 98.9851 198.732 99.0199 198.7C99.5776 198.212 100.241 197.861 100.958 197.673C101.674 197.486 102.425 197.467 103.15 197.62C103.244 197.64 103.326 197.696 103.379 197.777C103.432 197.857 103.45 197.956 103.43 198.05C103.41 198.144 103.354 198.226 103.273 198.279C103.192 198.331 103.094 198.35 103 198.33C102.395 198.206 101.77 198.22 101.171 198.371C100.572 198.521 100.015 198.805 99.5399 199.2C99.5064 199.238 99.4649 199.269 99.4182 199.29C99.3716 199.31 99.321 199.321 99.2699 199.32Z" fill="#263238"/>
<path d="M112.59 199.469C112.511 199.472 112.433 199.447 112.37 199.399C111.97 199.032 111.493 198.759 110.974 198.6C110.455 198.441 109.907 198.4 109.37 198.479C109.324 198.491 109.276 198.495 109.229 198.489C109.182 198.483 109.136 198.467 109.095 198.444C109.053 198.42 109.017 198.388 108.988 198.351C108.959 198.313 108.937 198.27 108.925 198.224C108.913 198.178 108.909 198.13 108.915 198.083C108.921 198.035 108.937 197.99 108.96 197.949C108.984 197.907 109.016 197.871 109.053 197.842C109.091 197.813 109.134 197.791 109.18 197.779C109.828 197.664 110.494 197.699 111.127 197.881C111.759 198.063 112.342 198.387 112.83 198.829C112.904 198.89 112.952 198.977 112.963 199.072C112.974 199.167 112.948 199.263 112.89 199.339C112.854 199.383 112.808 199.417 112.756 199.44C112.703 199.463 112.647 199.472 112.59 199.469Z" fill="#263238"/>
<path d="M92 205.16C92 205.16 96.55 198.52 96.4 193.08C96.4 193.08 113.81 187.6 113.22 204.76C113.22 204.76 116.12 189.76 101.55 188.17C86.98 186.58 85.29 208 92.3 215C92.3 215 89.21 209.32 92 205.16Z" fill="#263238"/>
<path d="M93.27 207.07C93.27 206.08 92.8774 205.13 92.1781 204.429C91.4789 203.728 90.5302 203.333 89.54 203.33C86.88 203.4 85.18 208.7 91.62 210.55C92.54 210.81 93.15 209.94 93.27 207.07Z" fill="#E4897B"/>
<path d="M107.73 212.001C107.107 212.837 106.549 213.72 106.06 214.641C105.89 214.581 105.71 214.531 105.54 214.461C103.19 213.631 102.37 212.461 102.18 211.461C102.09 210.953 102.128 210.43 102.29 209.941C102.373 209.659 102.494 209.39 102.65 209.141C103.872 210.302 105.332 211.182 106.93 211.721C107.41 211.901 107.73 212.001 107.73 212.001Z" fill="#263238"/>
<path d="M106.93 211.699L106.42 212.469C104.2 211.679 102.75 210.829 102.29 209.919C102.373 209.637 102.494 209.368 102.65 209.119C103.872 210.28 105.333 211.161 106.93 211.699Z" fill="white"/>
<path d="M105.54 214.459C103.19 213.629 102.37 212.459 102.18 211.459C103.069 211.786 103.892 212.271 104.61 212.889C105.075 213.303 105.4 213.852 105.54 214.459Z" fill="#DE5753"/>
<path d="M102.28 192.25C102.28 192.25 97.69 205.94 88.91 205C80.13 204.06 95.18 187.52 95.18 187.52C95.18 187.52 109.99 183.29 116.44 191.52C122.89 199.75 113.25 204.74 113.25 204.74C113.25 204.74 114.69 194 102.28 192.25Z" fill="#263238"/>
<path d="M95.28 203.9C95.2292 203.898 95.18 203.882 95.1378 203.854C95.0955 203.825 95.0617 203.786 95.04 203.74C95.0171 203.677 95.02 203.606 95.048 203.545C95.076 203.483 95.1269 203.435 95.19 203.41C102.19 200.74 102.03 191.35 102.03 191.25C102.027 191.218 102.031 191.185 102.042 191.154C102.053 191.123 102.07 191.094 102.093 191.071C102.116 191.047 102.143 191.028 102.174 191.016C102.204 191.004 102.237 190.999 102.27 191C102.335 191.002 102.397 191.028 102.445 191.072C102.493 191.116 102.523 191.176 102.53 191.24C102.53 191.34 102.69 201.08 95.37 203.88L95.28 203.9Z" fill="#263238"/>
<path d="M110.67 204.41L112.51 203.82C112.51 203.82 111.52 205.27 110.67 204.41Z" fill="#263238"/>
<path d="M111.31 204.2C110.967 204.031 110.574 203.994 110.205 204.095C109.837 204.196 109.518 204.43 109.31 204.75C109.619 204.597 109.958 204.511 110.303 204.501C110.649 204.491 110.992 204.555 111.31 204.69V204.2Z" fill="#263238"/>
<path d="M97.7 227.129L105.13 230.909L105.01 238.439L94.39 232.249L97.7 227.129Z" fill="#293751"/>
<path d="M106.26 225.709L106.7 230.279L111.55 235.409L110.89 226.969L106.26 225.709Z" fill="#293751"/>
<path d="M71.93 174L68.83 166C68.8865 165.572 68.8428 165.137 68.7022 164.729C68.5616 164.321 68.3281 163.952 68.0199 163.65C65.86 162.04 61.4 160.58 60.28 160.75C58.65 160.99 55.28 163.94 55.57 165.87C55.86 167.8 65.38 168.99 65.38 168.99L68.54 177.76L71.93 174Z" fill="#E4897B"/>
<path d="M85.2799 245.311C85.2799 245.311 91.2799 240.541 88.8899 230.001L82.4399 200.841L71.3599 170.721L65.9399 173.461C65.9399 173.461 75.0399 202.891 75.8799 204.881C76.3099 205.881 78.0199 221.151 80.3499 231.381C82.4899 240.801 85.2799 245.311 85.2799 245.311Z" fill="#293751"/>
<path opacity="0.6" d="M85.2799 245.311C85.2799 245.311 91.2799 240.541 88.8899 230.001L82.4399 200.841L71.3599 170.721L65.9399 173.461C65.9399 173.461 75.0399 202.891 75.8799 204.881C76.3099 205.881 78.0199 221.151 80.3499 231.381C82.4899 240.801 85.2799 245.311 85.2799 245.311Z" fill="white"/>
<path d="M64.99 172.6L71.32 169.43L72.7 171.54L65.3 174.82L64.99 172.6Z" fill="#293751"/>
<path opacity="0.7" d="M64.99 172.6L71.32 169.43L72.7 171.54L65.3 174.82L64.99 172.6Z" fill="white"/>
<path opacity="0.6" d="M97.7 227.129L105.13 230.909L105.01 238.439L94.39 232.249L97.7 227.129Z" fill="white"/>
<path opacity="0.6" d="M106.26 225.709L106.7 230.279L111.55 235.409L110.89 226.969L106.26 225.709Z" fill="white"/>
<path d="M317.26 211.41H287.3V234.69H317.26V211.41Z" fill="white"/>
<path opacity="0.1" d="M317.26 211.41H309.58V234.69H317.26V211.41Z" fill="black"/>
<path d="M285.58 255.25H319.45V213H308.54L285.58 223.99V255.25Z" fill="#293751"/>
<path opacity="0.2" d="M319.45 213H308.54V255.25H319.45V213Z" fill="black"/>
<path opacity="0.7" d="M304.93 232.32H289.07V239.92H304.93V232.32Z" fill="white"/>
<path opacity="0.7" d="M304.93 242.461H289.07V243.551H304.93V242.461Z" fill="white"/>
<path opacity="0.7" d="M318.39 245.65H309.58V252.1H318.39V245.65Z" fill="white"/>
<path d="M304.53 210.141H274.57V234.691H304.53V210.141Z" fill="white"/>
<path opacity="0.1" d="M304.53 210.141H296.85V234.691H304.53V210.141Z" fill="black"/>
<path d="M272.85 255.25H306.72V213H295.81L272.85 223.99V255.25Z" fill="#293751"/>
<path opacity="0.2" d="M306.72 213H295.81V255.25H306.72V213Z" fill="black"/>
<path opacity="0.7" d="M292.2 232.32H276.34V239.92H292.2V232.32Z" fill="white"/>
<path opacity="0.7" d="M292.2 242.461H276.34V243.551H292.2V242.461Z" fill="white"/>
<path opacity="0.7" d="M305.66 245.65H296.85V252.1H305.66V245.65Z" fill="white"/>
<path d="M251.81 415.66H257.94L268.94 262.41H260.81L251.81 415.66Z" fill="#263238"/>
<path opacity="0.1" d="M251.81 415.66H257.94L268.4 270.02L268.94 262.66H260.81L260.38 270.02L251.81 415.66Z" fill="white"/>
<path opacity="0.2" d="M260.38 269.66H268.4L268.94 262.66H260.81L260.38 269.66Z" fill="black"/>
<path d="M206.85 415.66H212.98L213.98 262.41H205.85L206.85 415.66Z" fill="#263238"/>
<path opacity="0.1" d="M205.84 262.66L206.01 287.38L206.84 415.66H212.97L213.81 287.38L213.97 262.66H205.84Z" fill="white"/>
<path opacity="0.2" d="M205.84 262.66L206.01 287.66H213.81L213.97 262.66H205.84Z" fill="black"/>
<path d="M141.81 415.66H147.94L158.94 262.41H150.81L141.81 415.66Z" fill="#263238"/>
<path opacity="0.1" d="M141.81 415.66H147.94L158.41 270.02L158.94 262.66H150.81L150.38 270.02L141.81 415.66Z" fill="white"/>
<path opacity="0.2" d="M150.38 269.66H158.41L158.94 262.66H150.81L150.38 269.66Z" fill="black"/>
<path d="M321.89 415.66H328.02L319.01 262.41H310.88L321.89 415.66Z" fill="#263238"/>
<path opacity="0.1" d="M310.88 262.66L311.43 270.02L321.89 415.66H328.01L319.45 270.02L319.01 262.66H310.88Z" fill="white"/>
<path opacity="0.2" d="M319.01 262.66H310.88L311.43 269.66H319.45L319.01 262.66Z" fill="black"/>
<path d="M323.3 266.25H146.54C146.256 266.25 145.975 266.194 145.713 266.086C145.451 265.977 145.213 265.818 145.013 265.617C144.812 265.417 144.653 265.179 144.544 264.917C144.436 264.655 144.38 264.374 144.38 264.09V258.58H325.46V264.09C325.46 264.374 325.404 264.655 325.296 264.917C325.187 265.179 325.028 265.417 324.827 265.617C324.627 265.818 324.389 265.977 324.127 266.086C323.864 266.194 323.584 266.25 323.3 266.25Z" fill="#293751"/>
<path opacity="0.4" d="M323.3 266.25H146.54C146.256 266.25 145.975 266.194 145.713 266.086C145.451 265.977 145.213 265.818 145.013 265.617C144.812 265.417 144.653 265.179 144.544 264.917C144.436 264.655 144.38 264.374 144.38 264.09V258.58H325.46V264.09C325.46 264.374 325.404 264.655 325.296 264.917C325.187 265.179 325.028 265.417 324.827 265.617C324.627 265.818 324.389 265.977 324.127 266.086C323.864 266.194 323.584 266.25 323.3 266.25Z" fill="white"/>
<path opacity="0.2" d="M144.38 262.41H325.46V258.57H144.38V262.41Z" fill="black"/>
<path d="M140.58 259.57H329.25C329.534 259.571 329.816 259.516 330.078 259.408C330.341 259.3 330.579 259.141 330.78 258.94C330.981 258.739 331.14 258.501 331.248 258.238C331.356 257.975 331.411 257.694 331.41 257.41C331.41 256.837 331.182 256.288 330.777 255.883C330.372 255.478 329.823 255.25 329.25 255.25H140.58C140.006 255.25 139.456 255.477 139.049 255.882C138.642 256.287 138.413 256.836 138.41 257.41C138.41 257.695 138.466 257.976 138.575 258.239C138.685 258.502 138.845 258.74 139.046 258.941C139.248 259.142 139.487 259.3 139.75 259.408C140.014 259.516 140.296 259.571 140.58 259.57Z" fill="#293751"/>
<path opacity="0.4" d="M140.58 259.57H329.25C329.534 259.571 329.816 259.516 330.078 259.408C330.341 259.3 330.579 259.141 330.78 258.94C330.981 258.739 331.14 258.501 331.248 258.238C331.356 257.975 331.411 257.694 331.41 257.41C331.41 256.837 331.182 256.288 330.777 255.883C330.372 255.478 329.823 255.25 329.25 255.25H140.58C140.006 255.25 139.456 255.477 139.049 255.882C138.642 256.287 138.413 256.836 138.41 257.41C138.41 257.695 138.466 257.976 138.575 258.239C138.685 258.502 138.845 258.74 139.046 258.941C139.248 259.142 139.487 259.3 139.75 259.408C140.014 259.516 140.296 259.571 140.58 259.57Z" fill="white"/>
<path d="M288.71 255.23V251.85H290.98L288.71 250.53H290.41L288.14 249.05H285.99V247.35H288.49L285.99 246.36V242.67H288.49V240.26H290.98L288.49 239.42V237.7H290.27L288.81 236.25L287.55 234.98H248.91V236.71H246.36L249.2 237.99V239.42H243.99V242.08H241.68L243.99 243.24V246.21H245.63V247.63H248.91V251.85H247.07L248.58 253.36V255.25L288.71 255.23Z" fill="#293751"/>
<path opacity="0.7" d="M288.71 255.23V251.85H290.98L288.71 250.53H290.41L288.14 249.05H285.99V247.35H288.49L285.99 246.36V242.67H288.49V240.26H290.98L288.49 239.42V237.7H290.27L288.81 236.25L287.55 234.98H248.91V236.71H246.36L249.2 237.99V239.42H243.99V242.08H241.68L243.99 243.24V246.21H245.63V247.63H248.91V251.85H247.07L248.58 253.36V255.25L288.71 255.23Z" fill="white"/>
<path opacity="0.1" d="M288.71 255.23V251.85H290.98L288.71 250.53H290.41L288.14 249.05H285.99V247.35H288.49L285.99 246.36V242.67H288.49V240.26H290.98L288.49 239.42V237.7H290.27L288.81 236.25L287.55 234.98H267.2V236.71H264.65L267.48 237.99V239.42H262.27V242.08H259.96L262.27 243.24V246.21H263.91V247.63H267.2V251.85H265.36L266.86 253.36V255.25L288.71 255.23Z" fill="black"/>
<path opacity="0.1" d="M249.2 239.42H267.48L249.2 238.76V239.42Z" fill="black"/>
<path opacity="0.1" d="M248.91 247.631H267.2L267.28 248.911L248.91 247.631Z" fill="black"/>
<path opacity="0.1" d="M245.63 246.211H263.91L245.63 246.851V246.211Z" fill="black"/>
<path opacity="0.1" d="M248.91 251.85H267.2L248.91 251.18V251.85Z" fill="black"/>
<path opacity="0.1" d="M248.58 253.361H266.86V254.061L248.58 253.361Z" fill="black"/>
<path opacity="0.1" d="M243.99 242.08H262.27L243.99 241.5V242.08Z" fill="black"/>
<path opacity="0.1" d="M248.91 236.71H267.2L248.91 236.07V236.71Z" fill="black"/>
<path opacity="0.1" d="M288.49 237.701H269.94L288.49 238.271V237.701Z" fill="black"/>
<path opacity="0.1" d="M267.48 239.42H288.49L269.44 240.04L267.48 239.42Z" fill="black"/>
<path opacity="0.1" d="M262.27 242.08L288.49 242.67V242.08H262.27Z" fill="black"/>
<path opacity="0.1" d="M262.27 243.24H275.24L262.27 243.87V243.24Z" fill="black"/>
<path opacity="0.1" d="M285.99 246.361L267.2 246.211L285.99 245.791V246.361Z" fill="black"/>
<path opacity="0.1" d="M285.99 247.352H266.86L285.99 247.992V247.352Z" fill="black"/>
<path opacity="0.1" d="M288.71 250.531H267.48V251.181L288.71 250.531Z" fill="black"/>
<path opacity="0.1" d="M288.71 251.852H273.33L288.71 252.282V251.852Z" fill="black"/>
<path d="M239.51 250.871V254.081C239.51 254.901 238.51 255.241 237.72 255.241H173.6C172.78 255.241 171.79 254.901 171.79 254.081V250.871H239.51Z" fill="#263238"/>
<path opacity="0.4" d="M239.51 250.871V254.081C239.51 254.901 238.51 255.241 237.72 255.241H173.6C172.78 255.241 171.79 254.901 171.79 254.081V250.871H239.51Z" fill="white"/>
<path opacity="0.2" d="M239.51 250.871V254.081C239.51 254.901 238.51 255.241 237.72 255.241H195.43C194.61 255.241 193.63 254.901 193.63 254.081V250.871H239.51Z" fill="black"/>
<path d="M250.24 217.551L242.6 252.181C242.469 252.743 242.153 253.245 241.704 253.607C241.255 253.97 240.697 254.172 240.12 254.181H198.43C198.171 254.175 197.916 254.11 197.686 253.989C197.457 253.868 197.258 253.696 197.106 253.486C196.954 253.276 196.852 253.033 196.81 252.777C196.767 252.521 196.784 252.259 196.86 252.011L204.48 217.651C204.636 217.126 204.968 216.671 205.419 216.362C205.871 216.053 206.415 215.907 206.96 215.951H248.66C249.78 215.911 250.48 216.421 250.24 217.551Z" fill="#263238"/>
<path opacity="0.4" d="M250.24 217.552L242.6 252.182C242.469 252.744 242.153 253.246 241.704 253.608C241.255 253.97 240.697 254.172 240.12 254.182H199.84C199.581 254.176 199.326 254.11 199.096 253.99C198.867 253.869 198.668 253.697 198.516 253.487C198.364 253.276 198.262 253.034 198.22 252.778C198.177 252.522 198.194 252.26 198.27 252.012L205.9 217.652C206.055 217.126 206.386 216.67 206.838 216.36C207.289 216.051 207.834 215.906 208.38 215.952H248.66C249.78 215.912 250.48 216.422 250.24 217.552Z" fill="white"/>
<path opacity="0.2" d="M229.68 235.151C229.68 238.151 226.5 240.521 224.17 240.521C221.84 240.521 220.46 238.111 221.17 235.151C221.88 232.191 224.17 229.881 226.43 229.791C225.77 232.791 227.19 235.151 229.51 235.151H229.68Z" fill="black"/>
</svg>
