<svg width="1728" height="1117" viewBox="0 0 1728 1117" fill="none" xmlns="http://www.w3.org/2000/svg">
<g clip-path="url(#clip0_4752_18610)">
<rect width="1728" height="1117" fill="white"/>
<g clip-path="url(#clip1_4752_18610)">
<path d="M1728 -1H0V1117H1728V-1Z" fill="#1C2537"/>
<path d="M0 869.176L41.28 848.679C82.56 828.183 165.12 787.189 247.296 798.928C329.664 810.854 411.456 875.325 493.824 897.499C576 919.486 658.56 898.989 740.736 875.139C823.104 851.102 904.896 823.897 987.264 837.127C1069.44 850.543 1152 904.579 1234.18 900.48C1316.54 896.567 1398.34 834.332 1480.7 817.375C1562.88 800.233 1645.44 828.183 1686.72 842.158L1728 856.133V1118.86H1686.72C1645.44 1118.86 1562.88 1118.86 1480.7 1118.86C1398.34 1118.86 1316.54 1118.86 1234.18 1118.86C1152 1118.86 1069.44 1118.86 987.264 1118.86C904.896 1118.86 823.104 1118.86 740.736 1118.86C658.56 1118.86 576 1118.86 493.824 1118.86C411.456 1118.86 329.664 1118.86 247.296 1118.86C165.12 1118.86 82.56 1118.86 41.28 1118.86H0V869.176Z" fill="#293751"/>
</g>
</g>
<defs>
<clipPath id="clip0_4752_18610">
<rect width="1728" height="1117" fill="white"/>
</clipPath>
<clipPath id="clip1_4752_18610">
<rect width="1728" height="1118" fill="white" transform="translate(0 -1)"/>
</clipPath>
</defs>
</svg>
