<svg width="24" height="25" viewBox="0 0 24 25" fill="none" xmlns="http://www.w3.org/2000/svg">
<path d="M21.8055 10.1665H21V10.125H12V14.125H17.6515C16.827 16.4535 14.6115 18.125 12 18.125C8.6865 18.125 6 15.4385 6 12.125C6 8.8115 8.6865 6.125 12 6.125C13.5295 6.125 14.921 6.702 15.9805 7.6445L18.809 4.816C17.023 3.1515 14.634 2.125 12 2.125C6.4775 2.125 2 6.6025 2 12.125C2 17.6475 6.4775 22.125 12 22.125C17.5225 22.125 22 17.6475 22 12.125C22 11.4545 21.931 10.8 21.8055 10.1665Z" fill="#FFC107"/>
<path d="M3.153 7.4705L6.4385 9.88C7.3275 7.679 9.4805 6.125 12 6.125C13.5295 6.125 14.921 6.702 15.9805 7.6445L18.809 4.816C17.023 3.1515 14.634 2.125 12 2.125C8.159 2.125 4.828 4.2935 3.153 7.4705Z" fill="#FF3D00"/>
<path d="M12 22.1253C14.583 22.1253 16.93 21.1368 18.7045 19.5293L15.6095 16.9103C14.5718 17.6995 13.3037 18.1264 12 18.1253C9.399 18.1253 7.1905 16.4668 6.3585 14.1523L3.0975 16.6648C4.7525 19.9033 8.1135 22.1253 12 22.1253Z" fill="#4CAF50"/>
<path d="M21.8055 10.1665H21V10.125H12V14.125H17.6515C17.2571 15.2332 16.5467 16.2016 15.608 16.9105L15.6095 16.9095L18.7045 19.5285C18.4855 19.7275 22 17.125 22 12.125C22 11.4545 21.931 10.8 21.8055 10.1665Z" fill="#1976D2"/>
</svg>
