<svg width="150" height="150" viewBox="0 0 150 150" fill="none" xmlns="http://www.w3.org/2000/svg">
<circle cx="75" cy="75" r="75" fill="#293751"/>
<path d="M95.625 54.8438H54.375C53.5048 54.8438 52.6702 55.1895 52.0548 55.8048C51.4395 56.4202 51.0938 57.2548 51.0938 58.125V91.875C51.0938 92.7452 51.4395 93.5798 52.0548 94.1952C52.6702 94.8105 53.5048 95.1562 54.375 95.1562H95.625C96.4952 95.1562 97.3298 94.8105 97.9452 94.1952C98.5605 93.5798 98.9062 92.7452 98.9062 91.875V58.125C98.9062 57.2548 98.5605 56.4202 97.9452 55.8048C97.3298 55.1895 96.4952 54.8438 95.625 54.8438ZM54.375 57.6562H95.625C95.7493 57.6562 95.8685 57.7056 95.9565 57.7935C96.0444 57.8815 96.0938 58.0007 96.0938 58.125V62.3438H53.9062V58.125C53.9062 58.0007 53.9556 57.8815 54.0435 57.7935C54.1315 57.7056 54.2507 57.6562 54.375 57.6562ZM95.625 92.3438H54.375C54.2507 92.3438 54.1315 92.2944 54.0435 92.2065C53.9556 92.1185 53.9062 91.9993 53.9062 91.875V65.1562H96.0938V91.875C96.0938 91.9993 96.0444 92.1185 95.9565 92.2065C95.8685 92.2944 95.7493 92.3438 95.625 92.3438ZM85.7812 71.25C85.7812 74.1094 84.6454 76.8516 82.6235 78.8735C80.6016 80.8954 77.8594 82.0312 75 82.0312C72.1406 82.0312 69.3984 80.8954 67.3765 78.8735C65.3546 76.8516 64.2188 74.1094 64.2188 71.25C64.2188 70.877 64.3669 70.5194 64.6306 70.2556C64.8944 69.9919 65.252 69.8438 65.625 69.8438C65.998 69.8438 66.3556 69.9919 66.6194 70.2556C66.8831 70.5194 67.0312 70.877 67.0312 71.25C67.0312 73.3634 67.8708 75.3903 69.3652 76.8848C70.8597 78.3792 72.8866 79.2188 75 79.2188C77.1134 79.2188 79.1403 78.3792 80.6348 76.8848C82.1292 75.3903 82.9688 73.3634 82.9688 71.25C82.9688 70.877 83.1169 70.5194 83.3806 70.2556C83.6444 69.9919 84.002 69.8438 84.375 69.8438C84.748 69.8438 85.1056 69.9919 85.3694 70.2556C85.6331 70.5194 85.7812 70.877 85.7812 71.25Z" fill="white"/>
</svg>
