<svg width="48" height="50" viewBox="0 0 48 50" fill="none" xmlns="http://www.w3.org/2000/svg">
<path d="M29.8817 20.869V20.7012C29.8817 18.57 28.21 16.8422 26.1478 16.8422H22.0891C19.9373 16.8422 18.1928 18.6451 18.1928 20.869C18.1928 23.0929 19.9373 24.8957 22.0891 24.8957H25.9854C28.1373 24.8957 29.8817 26.6986 29.8817 28.9225C29.8817 31.1464 28.1373 32.9492 25.9854 32.9492H22.008C19.9009 32.9492 18.1928 31.1839 18.1928 29.0064V28.9225M24.0373 35.9693V13.8222M41.5707 24.8957C41.5707 34.9033 33.7207 43.0161 24.0373 43.0161C14.3539 43.0161 6.50391 34.9033 6.50391 24.8957C6.50391 14.8881 14.3539 6.77539 24.0373 6.77539C33.7207 6.77539 41.5707 14.8881 41.5707 24.8957Z" stroke="white" strokeWidth="2" strokeLinecap="round" strokeLinejoin="round"/>
</svg>
