<svg width="250" height="250" viewBox="0 0 250 250" fill="none" xmlns="http://www.w3.org/2000/svg">
<path d="M250 191.199H0V191.324H250V191.199Z" fill="#EBEBEB"/>
<path d="M42.7905 195.961H26.2305V196.086H42.7905V195.961Z" fill="#EBEBEB"/>
<path d="M106.835 194.605H85.5703V194.73H106.835V194.605Z" fill="#EBEBEB"/>
<path d="M56.3294 197.715H46.7344V197.84H56.3294V197.715Z" fill="#EBEBEB"/>
<path d="M224.951 199.766H217.336V199.891H224.951V199.766Z" fill="#EBEBEB"/>
<path d="M212.879 199.766H195.734V199.891H212.879V199.766Z" fill="#EBEBEB"/>
<path d="M165.915 196.164H154V196.289H165.915V196.164Z" fill="#EBEBEB"/>
<path d="M118.5 168.9H21.9605C21.2033 168.9 20.4771 168.599 19.9417 168.064C19.4063 167.528 19.1055 166.802 19.1055 166.045V30.33C19.1121 29.5771 19.4158 28.8574 19.9505 28.3274C20.4852 27.7973 21.2076 27.5 21.9605 27.5H118.5C119.258 27.5 119.984 27.8008 120.519 28.3362C121.055 28.8716 121.355 29.5978 121.355 30.355V166.045C121.355 166.802 121.055 167.528 120.519 168.064C119.984 168.599 119.258 168.9 118.5 168.9ZM21.9605 27.6C21.2368 27.6013 20.5432 27.8894 20.0315 28.4011C19.5198 28.9127 19.2318 29.6064 19.2305 30.33V166.045C19.2318 166.769 19.5198 167.462 20.0315 167.974C20.5432 168.486 21.2368 168.774 21.9605 168.775H118.5C119.224 168.774 119.918 168.486 120.429 167.974C120.941 167.462 121.229 166.769 121.23 166.045V30.33C121.229 29.6064 120.941 28.9127 120.429 28.4011C119.918 27.8894 119.224 27.6013 118.5 27.6H21.9605Z" fill="#EBEBEB"/>
<path d="M226.655 168.9H130.105C129.348 168.899 128.623 168.597 128.088 168.062C127.553 167.527 127.251 166.802 127.25 166.045V30.33C127.258 29.5776 127.562 28.8585 128.096 28.3288C128.631 27.7991 129.353 27.5013 130.105 27.5H226.655C227.406 27.5026 228.126 27.8011 228.659 28.3309C229.191 28.8606 229.493 29.5789 229.5 30.33V166.045C229.5 166.8 229.201 167.525 228.667 168.06C228.134 168.595 227.41 168.897 226.655 168.9ZM130.105 27.6C129.381 27.6013 128.688 27.8894 128.176 28.4011C127.664 28.9127 127.376 29.6064 127.375 30.33V166.045C127.376 166.769 127.664 167.462 128.176 167.974C128.688 168.486 129.381 168.774 130.105 168.775H226.655C227.379 168.774 228.072 168.486 228.584 167.974C229.096 167.462 229.384 166.769 229.385 166.045V30.33C229.384 29.6064 229.096 28.9127 228.584 28.4011C228.072 27.8894 227.379 27.6013 226.655 27.6H130.105Z" fill="#EBEBEB"/>
<path d="M153.749 98.1855H207.684V44.1055L153.749 44.1055V98.1855Z" fill="#F0F0F0"/>
<path d="M153.75 44.1094H152.82V98.1894H153.75V44.1094Z" fill="#E0E0E0"/>
<path d="M158.516 94.7695H202.926V47.5195L158.516 47.5195V94.7695Z" fill="#FAFAFA"/>
<path d="M176 84.5009H190.065C193.115 84.5009 195.155 82.0309 194.62 79.0009L191.885 63.3359C191.581 61.8202 190.774 60.4519 189.593 59.4533C188.413 58.4548 186.93 57.8848 185.385 57.8359H171.355C168.305 57.8359 166.265 60.3059 166.8 63.3359L169.535 79.0009C169.837 80.5114 170.639 81.8759 171.812 82.874C172.985 83.872 174.461 84.4453 176 84.5009Z" fill="#F0F0F0"/>
<path d="M52.4844 114.609H40.4844V188.634H52.4844V114.609Z" fill="#F0F0F0"/>
<path d="M105.141 188.641H41.7109V191.196H105.141V188.641Z" fill="#F0F0F0"/>
<path d="M52.4853 188.641H106.195L106.195 114.616H52.4853L52.4853 188.641Z" fill="#F5F5F5"/>
<path d="M54.6452 166.375H104.035V153.155H54.6452V166.375Z" fill="#F0F0F0"/>
<path d="M54.6452 183.676H104.035V170.456H54.6452V183.676Z" fill="#F0F0F0"/>
<path d="M98.1884 152.346H60.4884C60.1626 152.346 59.8984 152.61 59.8984 152.936V153.571C59.8984 153.897 60.1626 154.161 60.4884 154.161H98.1884C98.5143 154.161 98.7784 153.897 98.7784 153.571V152.936C98.7784 152.61 98.5143 152.346 98.1884 152.346Z" fill="#F5F5F5"/>
<path d="M98.1884 169.65H60.4884C60.1626 169.65 59.8984 169.915 59.8984 170.24V170.875C59.8984 171.201 60.1626 171.465 60.4884 171.465H98.1884C98.5143 171.465 98.7784 171.201 98.7784 170.875V170.24C98.7784 169.915 98.5143 169.65 98.1884 169.65Z" fill="#F5F5F5"/>
<path d="M54.6452 131.91H104.035V118.69H54.6452V131.91Z" fill="#F0F0F0"/>
<path d="M54.6452 149.08H104.035V135.86H54.6452V149.08Z" fill="#F0F0F0"/>
<path d="M98.1884 117.885H60.4884C60.1626 117.885 59.8984 118.149 59.8984 118.475V119.11C59.8984 119.436 60.1626 119.7 60.4884 119.7H98.1884C98.5143 119.7 98.7784 119.436 98.7784 119.11V118.475C98.7784 118.149 98.5143 117.885 98.1884 117.885Z" fill="#F5F5F5"/>
<path d="M98.1884 135.045H60.4884C60.1626 135.045 59.8984 135.309 59.8984 135.635V136.27C59.8984 136.596 60.1626 136.86 60.4884 136.86H98.1884C98.5143 136.86 98.7784 136.596 98.7784 136.27V135.635C98.7784 135.309 98.5143 135.045 98.1884 135.045Z" fill="#F5F5F5"/>
<path d="M104.25 40.0293H36.8945V99.1593H104.25V40.0293Z" fill="#E6E6E6"/>
<path d="M111.471 37.7305H32.5361C32.4484 37.7305 32.3615 37.7478 32.2805 37.7816C32.1995 37.8153 32.1259 37.8647 32.0641 37.927C32.0023 37.9893 31.9534 38.0632 31.9203 38.1444C31.8872 38.2257 31.8705 38.3127 31.8711 38.4005C31.8711 38.5768 31.9412 38.746 32.0659 38.8707C32.1906 38.9954 32.3597 39.0655 32.5361 39.0655H111.471C111.648 39.0655 111.818 38.9956 111.943 38.871C112.069 38.7464 112.14 38.5773 112.141 38.4005C112.141 38.2228 112.071 38.0524 111.945 37.9267C111.819 37.8011 111.649 37.7305 111.471 37.7305Z" fill="#E6E6E6"/>
<path d="M107.11 40.0293H38.2305V99.1593H107.11V40.0293Z" fill="#F0F0F0"/>
<path d="M104.25 99.1602H36.8945V101.055H106.22L104.25 99.1602Z" fill="#E6E6E6"/>
<path d="M111.871 99.1602H42.9961L44.9611 101.055H113.841L111.871 99.1602Z" fill="#F0F0F0"/>
<path d="M103.109 95.1593V44.0293L42.2344 44.0293V95.1593H103.109Z" fill="#FAFAFA"/>
<path d="M56.0547 95.1593L79.5347 44.0293H90.6247L67.1397 95.1593H56.0547Z" fill="white"/>
<path d="M69.5195 95.1593L93.0045 44.0293H97.3245L73.8445 95.1593H69.5195Z" fill="white"/>
<path d="M103.109 95.1593V44.0293H102.599V95.1593H103.109Z" fill="#E6E6E6"/>
<g opacity="0.4">
<path d="M42.2795 36.5352H35.3945V85.3302H42.2795V36.5352Z" fill="#F0F0F0"/>
<path d="M44.9627 36.5352H39.5977V85.3302H44.9627V36.5352Z" fill="#E6E6E6"/>
<path d="M49.1663 36.5352H42.2812V85.3302H49.1663V36.5352Z" fill="#F0F0F0"/>
<path d="M51.8494 36.5352H46.4844V85.3302H51.8494V36.5352Z" fill="#E6E6E6"/>
<path d="M56.0491 36.5352H49.1641V85.3302H56.0491V36.5352Z" fill="#F0F0F0"/>
</g>
<g opacity="0.4">
<path d="M100.548 36.5352H96.5781V85.3302H100.548V36.5352Z" fill="#F0F0F0"/>
<path d="M102.09 36.5352H99V85.3302H102.09V36.5352Z" fill="#E6E6E6"/>
<path d="M104.513 36.5352H100.543V85.3302H104.513V36.5352Z" fill="#F0F0F0"/>
<path d="M106.059 36.5352H102.969V85.3302H106.059V36.5352Z" fill="#E6E6E6"/>
<path d="M108.482 36.5352H104.512V85.3302H108.482V36.5352Z" fill="#F0F0F0"/>
</g>
<path d="M178.426 134.604C178.367 135.328 178.524 136.052 178.877 136.686C179.23 137.32 179.763 137.836 180.408 138.167C181.054 138.498 181.783 138.631 182.504 138.548C183.225 138.465 183.905 138.17 184.458 137.7C185.012 137.231 185.414 136.608 185.613 135.91C185.812 135.212 185.8 134.471 185.578 133.78C185.357 133.089 184.935 132.48 184.367 132.028C183.799 131.577 183.109 131.304 182.386 131.244C181.416 131.166 180.453 131.475 179.711 132.105C178.969 132.735 178.506 133.634 178.426 134.604Z" fill="#E0E0E0"/>
<path d="M188.628 140.45C190.636 140.154 192.024 138.287 191.729 136.279C191.433 134.271 189.566 132.882 187.558 133.178C185.55 133.473 184.161 135.341 184.457 137.349C184.752 139.357 186.62 140.745 188.628 140.45Z" fill="#E0E0E0"/>
<path d="M190.86 137.275C190.801 137.998 190.958 138.723 191.311 139.357C191.663 139.991 192.196 140.506 192.842 140.838C193.488 141.169 194.217 141.302 194.938 141.219C195.659 141.136 196.339 140.841 196.892 140.371C197.445 139.902 197.847 139.279 198.046 138.581C198.246 137.883 198.234 137.142 198.012 136.451C197.79 135.76 197.369 135.15 196.8 134.699C196.232 134.248 195.543 133.975 194.82 133.915C194.339 133.875 193.855 133.93 193.395 134.077C192.936 134.224 192.51 134.461 192.142 134.773C191.774 135.085 191.471 135.467 191.251 135.896C191.031 136.326 190.898 136.794 190.86 137.275Z" fill="#E0E0E0"/>
<path d="M171.602 136.53C171.543 137.254 171.7 137.978 172.053 138.612C172.406 139.246 172.939 139.762 173.584 140.093C174.23 140.424 174.959 140.557 175.68 140.474C176.401 140.391 177.081 140.096 177.634 139.626C178.188 139.157 178.589 138.534 178.789 137.836C178.988 137.138 178.976 136.397 178.754 135.706C178.532 135.015 178.111 134.406 177.543 133.954C176.974 133.503 176.285 133.23 175.562 133.17C174.591 133.091 173.629 133.401 172.887 134.031C172.144 134.661 171.682 135.56 171.602 136.53Z" fill="#E0E0E0"/>
<path d="M200.358 140.448C202.366 140.152 203.754 138.285 203.459 136.277C203.164 134.269 201.296 132.881 199.288 133.176C197.28 133.471 195.892 135.339 196.187 137.347C196.483 139.355 198.35 140.743 200.358 140.448Z" fill="#E0E0E0"/>
<path d="M172.695 136.516C174.238 135.196 174.419 132.876 173.1 131.334C171.78 129.791 169.461 129.61 167.918 130.93C166.375 132.249 166.194 134.569 167.514 136.111C168.833 137.654 171.153 137.835 172.695 136.516Z" fill="#E0E0E0"/>
<path d="M161.461 135.694C161.402 136.418 161.559 137.142 161.912 137.776C162.265 138.41 162.798 138.926 163.443 139.257C164.089 139.588 164.818 139.721 165.539 139.638C166.26 139.555 166.94 139.26 167.494 138.79C168.047 138.321 168.449 137.698 168.648 137C168.847 136.302 168.835 135.561 168.614 134.87C168.392 134.179 167.97 133.57 167.402 133.118C166.834 132.667 166.144 132.394 165.421 132.334C164.451 132.256 163.489 132.565 162.746 133.195C162.004 133.825 161.542 134.724 161.461 135.694Z" fill="#E0E0E0"/>
<path d="M157.266 136.686C157.266 136.686 157.896 151.721 182.056 151.721C206.216 151.721 206.846 136.686 206.846 136.686H157.266Z" fill="#F0F0F0"/>
<path d="M220.63 151.721H216.035V191.196H220.63V151.721Z" fill="#E6E6E6"/>
<path d="M221.853 151.721H219.148V191.196H221.853V151.721Z" fill="#F0F0F0"/>
<path d="M201.079 151.721H196.484V191.196H201.079V151.721Z" fill="#E6E6E6"/>
<path d="M201.939 151.721H199.234V191.196H201.939V151.721Z" fill="#F0F0F0"/>
<path d="M157.465 156.51H222.695V151.725H157.465V156.51Z" fill="#F0F0F0"/>
<path d="M137.529 151.721H132.934V191.196H137.529V151.721Z" fill="#E6E6E6"/>
<path d="M138.389 151.721H135.684V191.196H138.389V151.721Z" fill="#F0F0F0"/>
<path d="M132.115 156.51H155.5V151.725H132.115V156.51Z" fill="#E6E6E6"/>
<path d="M157.075 151.721H152.48V191.196H157.075V151.721Z" fill="#E6E6E6"/>
<path d="M158.307 151.721H155.602V191.196H158.307V151.721Z" fill="#F0F0F0"/>
<path d="M125 213.781C178.541 213.781 221.945 211.247 221.945 208.121C221.945 204.995 178.541 202.461 125 202.461C71.4584 202.461 28.0547 204.995 28.0547 208.121C28.0547 211.247 71.4584 213.781 125 213.781Z" fill="#F5F5F5"/>
<path d="M177.741 203.154C177.742 204.153 177.388 205.12 176.743 205.883C176.097 206.646 175.202 207.155 174.216 207.319C162.085 209.366 149.697 209.366 137.566 207.319C136.585 207.15 135.695 206.639 135.054 205.877C134.414 205.115 134.064 204.15 134.066 203.154V162.654H177.761L177.741 203.154Z" fill="#0C3B2E"/>
<path opacity="0.3" d="M134.039 163.385V169.07C136.669 170.045 145.304 170.76 155.889 170.76C166.474 170.76 175.124 170.045 177.739 169.07V163.385H134.039Z" fill="black"/>
<path d="M178.56 167.72C178.56 169.005 168.64 170.045 155.89 170.045C143.14 170.045 133.22 169.005 133.22 167.72L132.805 162.67H179L178.56 167.72Z" fill="#0C3B2E"/>
<path d="M155.89 164.99C168.639 164.99 178.975 163.951 178.975 162.67C178.975 161.388 168.639 160.35 155.89 160.35C143.14 160.35 132.805 161.388 132.805 162.67C132.805 163.951 143.14 164.99 155.89 164.99Z" fill="#0C3B2E"/>
<path opacity="0.3" d="M155.89 164.99C168.639 164.99 178.975 163.951 178.975 162.67C178.975 161.388 168.639 160.35 155.89 160.35C143.14 160.35 132.805 161.388 132.805 162.67C132.805 163.951 143.14 164.99 155.89 164.99Z" fill="black"/>
<path opacity="0.2" d="M139.898 200.305C139.449 200.304 139.019 200.125 138.701 199.807C138.383 199.49 138.204 199.059 138.203 198.61V175.39C138.204 174.941 138.383 174.511 138.701 174.193C139.019 173.876 139.449 173.697 139.898 173.695C140.347 173.698 140.776 173.877 141.094 174.195C141.411 174.512 141.591 174.942 141.593 175.39V198.61C141.591 199.059 141.411 199.489 141.094 199.806C140.776 200.123 140.347 200.303 139.898 200.305Z" fill="black"/>
<path opacity="0.2" d="M171.886 200.305C171.437 200.304 171.007 200.125 170.689 199.807C170.372 199.49 170.193 199.059 170.191 198.61V175.39C170.193 174.941 170.372 174.511 170.689 174.193C171.007 173.876 171.437 173.697 171.886 173.695C172.335 173.698 172.765 173.877 173.082 174.195C173.399 174.512 173.579 174.942 173.581 175.39V198.61C173.579 199.059 173.399 199.489 173.082 199.806C172.765 200.123 172.335 200.303 171.886 200.305Z" fill="black"/>
<path opacity="0.2" d="M161.218 200.305C160.77 200.303 160.34 200.123 160.023 199.806C159.705 199.489 159.526 199.059 159.523 198.61V175.39C159.526 174.942 159.705 174.512 160.023 174.195C160.34 173.877 160.77 173.698 161.218 173.695C161.668 173.697 162.098 173.876 162.416 174.193C162.733 174.511 162.912 174.941 162.913 175.39V198.61C162.912 199.059 162.733 199.49 162.416 199.807C162.098 200.125 161.668 200.304 161.218 200.305Z" fill="black"/>
<path opacity="0.2" d="M150.558 200.305C150.11 200.303 149.68 200.123 149.363 199.806C149.045 199.489 148.866 199.059 148.863 198.61V175.39C148.866 174.942 149.045 174.512 149.363 174.195C149.68 173.877 150.11 173.698 150.558 173.695C151.007 173.697 151.438 173.876 151.755 174.193C152.073 174.511 152.252 174.941 152.253 175.39V198.61C152.252 199.059 152.073 199.49 151.755 199.807C151.438 200.125 151.007 200.304 150.558 200.305Z" fill="black"/>
<path d="M96.4408 69.5798C96.4408 70.0386 96.3047 70.4872 96.0498 70.8687C95.7949 71.2502 95.4325 71.5476 95.0086 71.7232C94.5847 71.8988 94.1182 71.9447 93.6682 71.8552C93.2181 71.7657 92.8048 71.5447 92.4803 71.2203C92.1558 70.8958 91.9349 70.4824 91.8454 70.0324C91.7558 69.5823 91.8018 69.1159 91.9774 68.6919C92.153 68.268 92.4503 67.9057 92.8319 67.6508C93.2134 67.3958 93.6619 67.2598 94.1208 67.2598C94.7361 67.2598 95.3262 67.5042 95.7613 67.9393C96.1964 68.3744 96.4408 68.9645 96.4408 69.5798Z" fill="#263238"/>
<path d="M92.2548 69.9149C92.2322 69.9155 92.2099 69.9097 92.1904 69.8982C92.171 69.8867 92.1552 69.87 92.1448 69.8499C91.9915 69.5682 91.8952 69.2591 91.8613 68.9402C91.8274 68.6212 91.8567 68.2988 91.9475 67.9912C92.0383 67.6836 92.1888 67.3969 92.3903 67.1474C92.5919 66.898 92.8406 66.6907 93.1223 66.5374C93.404 66.3841 93.7131 66.2877 94.032 66.2539C94.3509 66.22 94.6734 66.2493 94.981 66.3401C95.2886 66.4309 95.5753 66.5813 95.8247 66.7829C96.0742 66.9845 96.2815 67.2332 96.4348 67.5149C96.4495 67.5443 96.4525 67.5782 96.4433 67.6097C96.434 67.6413 96.4131 67.6681 96.3848 67.6849C96.3704 67.6928 96.3545 67.6978 96.3381 67.6996C96.3218 67.7013 96.3052 67.6999 96.2894 67.6952C96.2736 67.6906 96.2589 67.6828 96.2461 67.6725C96.2333 67.6621 96.2226 67.6494 96.2148 67.6349C95.937 67.1243 95.4677 66.7451 94.9103 66.5805C94.3528 66.4159 93.7528 66.4796 93.2423 66.7574C92.7318 67.0352 92.3525 67.5044 92.1879 68.0619C92.0234 68.6193 92.087 69.2193 92.3648 69.7299C92.3727 69.7443 92.3777 69.7602 92.3795 69.7765C92.3813 69.7929 92.3798 69.8095 92.3751 69.8253C92.3705 69.8411 92.3628 69.8558 92.3524 69.8686C92.3421 69.8814 92.3293 69.892 92.3148 69.8999C92.2962 69.9095 92.2757 69.9146 92.2548 69.9149Z" fill="#263238"/>
<path d="M90.0015 80.181C89.5495 80.1792 89.1069 80.0521 88.7228 79.8139C88.3387 79.5757 88.0282 79.2358 87.8257 78.8317C87.6231 78.4277 87.5365 77.9754 87.5755 77.5252C87.6145 77.0749 87.7775 76.6442 88.0465 76.281C88.2382 76.0242 88.4786 75.8077 88.754 75.6439C89.0294 75.48 89.3344 75.372 89.6515 75.326C89.6676 75.3232 89.6842 75.3237 89.7001 75.3275C89.7161 75.3313 89.7311 75.3384 89.7442 75.3482C89.7573 75.3581 89.7683 75.3705 89.7764 75.3847C89.7846 75.399 89.7897 75.4147 89.7915 75.431C89.7958 75.4635 89.7872 75.4963 89.7676 75.5225C89.7479 75.5486 89.7188 75.5661 89.6865 75.571C89.1116 75.6552 88.5938 75.9643 88.2468 76.4304C87.8999 76.8964 87.7523 77.4812 87.8365 78.056C87.9207 78.6309 88.2298 79.1487 88.6958 79.4957C89.1619 79.8426 89.7466 79.9902 90.3215 79.906C90.3546 79.9007 90.3885 79.9088 90.4157 79.9285C90.4429 79.9482 90.4612 79.9779 90.4665 80.011C90.4718 80.0442 90.4637 80.0781 90.444 80.1053C90.4243 80.1325 90.3946 80.1507 90.3615 80.156C90.2421 80.1718 90.1219 80.1802 90.0015 80.181Z" fill="#263238"/>
<path d="M102.605 83.961C102.136 83.9603 101.677 83.823 101.285 83.566C101.257 83.5475 101.237 83.5191 101.23 83.4865C101.222 83.4539 101.228 83.4197 101.245 83.391C101.264 83.3639 101.293 83.3452 101.325 83.3387C101.358 83.3322 101.392 83.3384 101.42 83.356C101.907 83.6722 102.5 83.782 103.068 83.661C103.637 83.54 104.134 83.1983 104.45 82.711C104.766 82.2236 104.876 81.6306 104.755 81.0624C104.634 80.4941 104.292 79.9972 103.805 79.681C103.777 79.6625 103.757 79.6341 103.75 79.6015C103.742 79.5689 103.748 79.5347 103.765 79.506C103.784 79.4789 103.813 79.4602 103.845 79.4537C103.878 79.4472 103.912 79.4534 103.94 79.471C104.482 79.8239 104.862 80.3772 104.997 81.0098C105.132 81.6423 105.011 82.3026 104.66 82.846C104.487 83.1163 104.261 83.3494 103.997 83.5314C103.732 83.7134 103.434 83.8408 103.12 83.906C102.951 83.9416 102.778 83.96 102.605 83.961Z" fill="#263238"/>
<path d="M92.8191 76.8159C94.6306 76.8159 96.0991 75.3474 96.0991 73.5359C96.0991 71.7244 94.6306 70.2559 92.8191 70.2559C91.0076 70.2559 89.5391 71.7244 89.5391 73.5359C89.5391 75.3474 91.0076 76.8159 92.8191 76.8159Z" fill="#263238"/>
<path d="M95.8996 81.0271C97.5984 79.3283 97.5984 76.574 95.8996 74.8753C94.2008 73.1765 91.4466 73.1765 89.7478 74.8753C88.049 76.574 88.049 79.3283 89.7478 81.0271C91.4466 82.7259 94.2008 82.7259 95.8996 81.0271Z" fill="#263238"/>
<path d="M93.2827 88.2899C95.9391 88.2899 98.0927 86.1364 98.0927 83.4799C98.0927 80.8234 95.9391 78.6699 93.2827 78.6699C90.6262 78.6699 88.4727 80.8234 88.4727 83.4799C88.4727 86.1364 90.6262 88.2899 93.2827 88.2899Z" fill="#263238"/>
<path d="M102.776 84.9112C103.386 82.3258 101.785 79.7352 99.1998 79.125C96.6143 78.5147 94.0237 80.116 93.4135 82.7014C92.8033 85.2869 94.4045 87.8775 96.99 88.4877C99.5754 89.0979 102.166 87.4967 102.776 84.9112Z" fill="#263238"/>
<path d="M114.045 93.7313C114.045 94.1213 114.045 94.6163 114.08 95.0663C114.115 95.5163 114.115 95.9963 114.145 96.4613C114.21 97.3913 114.275 98.3313 114.375 99.2663C114.555 101.143 114.807 103.011 115.13 104.871C115.215 105.331 115.29 105.801 115.385 106.261L115.605 107.396C115.66 107.576 115.605 107.541 115.535 107.536C115.465 107.531 115.535 107.626 115.83 107.626C116.585 107.551 117.32 107.339 118 107.001C118.4 106.821 118.81 106.626 119.22 106.416C119.63 106.206 120.045 105.966 120.42 105.756L121.88 107.441C121.532 107.84 121.161 108.219 120.77 108.576C120.385 108.943 119.978 109.285 119.55 109.601C119.102 109.938 118.629 110.241 118.135 110.506C117.573 110.813 116.97 111.039 116.345 111.176C115.959 111.26 115.564 111.294 115.17 111.276C114.689 111.248 114.217 111.13 113.78 110.926C113.315 110.708 112.901 110.395 112.565 110.006C112.276 109.669 112.04 109.289 111.865 108.881C111.729 108.569 111.619 108.246 111.535 107.916L111.34 107.186C111.2 106.686 111.085 106.211 110.965 105.721C110.497 103.756 110.137 101.766 109.885 99.7613C109.76 98.7613 109.66 97.7613 109.6 96.7363C109.57 96.2363 109.545 95.7363 109.53 95.2063C109.515 94.6763 109.53 94.2063 109.53 93.6113L114.045 93.7313Z" fill="#FFB573"/>
<path d="M111.621 88.3405C115.886 91.6055 115.716 97.7605 115.716 97.7605L108.086 99.5855C108.086 99.5855 105.746 93.3955 106.696 91.1305C107.686 88.7705 109.221 86.5005 111.621 88.3405Z" fill="#0C3B2E"/>
<path opacity="0.7" d="M111.621 88.3405C115.886 91.6055 115.716 97.7605 115.716 97.7605L108.086 99.5855C108.086 99.5855 105.746 93.3955 106.696 91.1305C107.686 88.7705 109.221 86.5005 111.621 88.3405Z" fill="white"/>
<path d="M120.136 106.331L121.396 104.211L124.556 107.591C124.556 107.591 122.291 109.041 119.941 108.006L120.136 106.331Z" fill="#FFB573"/>
<path d="M122.95 103.195L127.005 105.585L124.555 107.59L121.395 104.21L122.95 103.195Z" fill="#FFB573"/>
<path d="M87.7461 204.43L92.1061 204.85L94.8161 194.635L90.4511 194.215L87.7461 204.43Z" fill="#FFB573"/>
<path d="M65.3945 195.845L69.3095 197.895L73.9645 188.665L70.0495 186.615L65.3945 195.845Z" fill="#FFB573"/>
<path d="M70.3558 196.1L66.8558 192.545C66.7977 192.483 66.7185 192.444 66.6335 192.437C66.5486 192.429 66.4639 192.454 66.3958 192.505L63.1808 194.87C63.1029 194.933 63.0389 195.011 62.9932 195.1C62.9474 195.189 62.9209 195.287 62.9152 195.387C62.9095 195.487 62.9249 195.587 62.9604 195.68C62.9958 195.774 63.0505 195.859 63.1208 195.93C64.3608 197.15 65.0208 197.675 66.5608 199.24C67.5108 200.2 69.4608 202.465 70.7708 203.795C72.0808 205.125 73.4608 203.9 73.0358 203.23C71.1258 200.23 70.8058 198.345 70.6858 196.82C70.6641 196.549 70.5473 196.294 70.3558 196.1Z" fill="#263238"/>
<path d="M92.785 203.526H87.5C87.4054 203.527 87.3137 203.559 87.2389 203.616C87.164 203.674 87.1099 203.755 87.085 203.846L85.955 208.001C85.9267 208.1 85.9221 208.204 85.9414 208.304C85.9608 208.405 86.0035 208.5 86.0663 208.581C86.1291 208.663 86.2101 208.728 86.3028 208.772C86.3955 208.816 86.4973 208.838 86.6 208.836C88.455 208.836 89.335 208.836 91.65 208.836H98.735C100.66 208.836 101.065 206.891 100.265 206.711C96.695 205.921 94.635 204.831 93.535 203.791C93.3265 203.612 93.0592 203.518 92.785 203.526Z" fill="#263238"/>
<path opacity="0.2" d="M94.8114 194.641L93.4164 199.906H88.9414L90.4464 194.221L94.8114 194.641Z" fill="black"/>
<path opacity="0.2" d="M70.0445 186.615L73.9645 188.67L71.5645 193.425L67.6445 191.37L70.0445 186.615Z" fill="black"/>
<path d="M110.332 87.71C110.332 87.71 112.262 88.555 105.792 114.155L87.822 112.6C88.757 105.315 89.152 100.805 86.957 85.49C89.5188 85.19 92.0988 85.0747 94.677 85.145C97.4103 85.1863 100.137 85.4219 102.837 85.85C105.365 86.343 107.867 86.9638 110.332 87.71Z" fill="#0C3B2E"/>
<path opacity="0.7" d="M110.332 87.71C110.332 87.71 112.262 88.555 105.792 114.155L87.822 112.6C88.757 105.315 89.152 100.805 86.957 85.49C89.5188 85.19 92.0988 85.0747 94.677 85.145C97.4103 85.1863 100.137 85.4219 102.837 85.85C105.365 86.343 107.867 86.9638 110.332 87.71Z" fill="white"/>
<path d="M94.6757 85C94.6757 85 93.6757 85 92.4507 85C91.7257 86.115 94.7857 89.37 98.6757 92.57C99.6157 89.655 101.096 89.665 101.096 89.665L94.6757 85Z" fill="white"/>
<path d="M102.832 85.7852C102.832 85.7852 103.287 85.8502 104.377 86.1002C105.097 87.2152 105.502 90.0051 103.377 92.4352C102.542 89.4352 101.102 89.7052 101.102 89.7052L102.832 85.7852Z" fill="white"/>
<path d="M96.2758 76.0254C96.5658 78.6954 96.6608 83.5254 94.6758 85.1454C94.6758 85.1454 96.7958 87.3154 101.096 89.7054C104.216 87.5454 102.836 85.8504 102.836 85.8504C99.9658 84.9004 100.231 82.7354 100.916 80.7354L96.2758 76.0254Z" fill="#FFB573"/>
<path opacity="0.2" d="M98.1714 77.9512L100.916 80.7362C100.748 81.199 100.621 81.6759 100.536 82.1612C99.4364 81.9062 97.8364 80.7562 97.8164 79.5762C97.8356 79.0175 97.9558 78.4669 98.1714 77.9512Z" fill="black"/>
<path d="M106.586 67.3164C108.426 68.9464 108.966 72.9164 107.216 75.6114C106.69 72.8794 106.479 70.0964 106.586 67.3164Z" fill="#263238"/>
<path d="M95.7141 70.4199C95.3941 74.8149 95.1691 76.6699 97.0691 79.2049C99.9291 83.0199 105.399 82.4449 107.024 78.2349C108.489 74.4399 108.764 67.8899 104.729 65.5799C103.842 65.0624 102.838 64.781 101.811 64.7627C100.785 64.7444 99.7707 64.9898 98.8662 65.4754C97.9617 65.961 97.1969 66.6707 96.645 67.5364C96.0931 68.4021 95.7726 69.3949 95.7141 70.4199Z" fill="#FFB573"/>
<path d="M95.1322 73.9606C98.3822 73.8356 100.182 69.5857 99.3672 67.7907C103.052 69.7107 108.632 71.2206 108.012 68.7506C107.177 65.4156 103.142 62.9706 98.1772 64.7506C95.3022 66.0006 92.8422 68.7506 95.1322 73.9606Z" fill="#263238"/>
<path d="M94.142 73.9552C94.2808 74.7956 94.744 75.5479 95.432 76.0502C96.352 76.7052 97.192 75.9752 97.257 74.9102C97.317 73.9452 96.912 72.4452 95.832 72.2152C95.5955 72.1682 95.351 72.1812 95.1207 72.2529C94.8905 72.3246 94.6819 72.4528 94.5139 72.6257C94.3459 72.7987 94.2239 73.011 94.1589 73.2432C94.0939 73.4754 94.0881 73.7202 94.142 73.9552Z" fill="#FFB573"/>
<path d="M105.79 114.155C105.79 114.155 109.855 140.68 107.59 157.72C105.875 170.595 94.81 198.375 94.81 198.375L87.625 198.18C87.625 198.18 95.045 171.255 96.58 160.68C99.205 142.57 92.63 113.035 92.63 113.035L105.79 114.155Z" fill="#263238"/>
<path opacity="0.2" d="M98.7803 119.59L94.9453 125.635C96.1001 132.802 96.833 140.031 97.1403 147.285C102.53 137.635 100 124.695 98.7803 119.59Z" fill="black"/>
<path d="M95.9323 198.775L86.9023 198.53L87.4523 195.625L96.7823 195.68L95.9323 198.775Z" fill="#0C3B2E"/>
<path d="M101.861 113.871C101.861 113.871 98.8609 143.241 92.0059 159.221C86.4609 172.121 73.2409 192.756 73.2409 192.756L67.9609 189.666C67.9609 189.666 76.4609 166.721 80.6559 158.121C90.8909 137.036 81.3709 120.121 87.8209 112.621L101.861 113.871Z" fill="#263238"/>
<path d="M73.817 193.206L67.082 189.511L68.177 186.631L75.352 190.681L73.817 193.206Z" fill="#0C3B2E"/>
<path d="M87.6405 111.526L86.6905 113.066C86.6205 113.181 86.7555 113.326 86.9655 113.341L105.811 114.971C105.971 114.971 106.116 114.916 106.131 114.816L106.436 113.221C106.436 113.111 106.321 113.006 106.146 112.991L87.9455 111.416C87.8895 111.407 87.8323 111.413 87.779 111.432C87.7258 111.451 87.6782 111.484 87.6405 111.526Z" fill="#0C3B2E"/>
<path d="M89.9099 113.771L89.4099 113.731C89.3149 113.731 89.2449 113.666 89.2549 113.606L89.6649 111.536C89.6649 111.471 89.7699 111.431 89.8649 111.441L90.3649 111.481C90.4649 111.481 90.5349 111.546 90.5199 111.606L90.1149 113.676C90.0949 113.736 89.9999 113.781 89.9099 113.771Z" fill="#263238"/>
<path d="M104.427 115.025L103.927 114.985C103.827 114.985 103.757 114.92 103.772 114.86L104.182 112.79C104.182 112.73 104.282 112.685 104.377 112.695L104.877 112.735C104.972 112.735 105.042 112.8 105.032 112.86L104.622 114.93C104.612 115 104.502 115.035 104.427 115.025Z" fill="#263238"/>
<path d="M97.1677 114.401L96.6677 114.356C96.5727 114.356 96.5027 114.291 96.5127 114.231L96.9227 112.161C96.9227 112.101 97.0227 112.056 97.1227 112.066L97.6227 112.111C97.7177 112.111 97.7877 112.176 97.7777 112.236L97.3677 114.306C97.3577 114.366 97.2677 114.406 97.1677 114.401Z" fill="#263238"/>
<path d="M102.599 72.6049C102.549 72.9599 102.699 73.2749 102.929 73.3049C103.159 73.3349 103.389 73.0749 103.429 72.7199C103.469 72.3649 103.324 72.0499 103.094 72.0199C102.864 71.9899 102.644 72.2499 102.599 72.6049Z" fill="#263238"/>
<path d="M106.61 73.1459C106.565 73.5009 106.715 73.816 106.945 73.846C107.175 73.876 107.405 73.616 107.445 73.261C107.485 72.906 107.345 72.5909 107.115 72.5609C106.885 72.5309 106.66 72.7909 106.61 73.1459Z" fill="#263238"/>
<path d="M107 72.5656L107.89 72.4355C107.89 72.4355 107.37 73.0406 107 72.5656Z" fill="#263238"/>
<path d="M105.034 73.5352C105.243 74.3865 105.566 75.2056 105.994 75.9702C105.796 76.0753 105.578 76.136 105.354 76.1481C105.131 76.1602 104.907 76.1234 104.699 76.0402L105.034 73.5352Z" fill="#ED893E"/>
<path d="M102.622 77.1006C101.919 76.8714 101.329 76.3834 100.972 75.7356C100.963 75.7149 100.962 75.6916 100.97 75.6703C100.977 75.649 100.992 75.6313 101.012 75.6206C101.033 75.6101 101.058 75.6085 101.08 75.6159C101.103 75.6234 101.122 75.6395 101.132 75.6606C101.354 76.0501 101.665 76.3817 102.04 76.6285C102.414 76.8752 102.842 77.0301 103.287 77.0806C103.31 77.0806 103.331 77.0895 103.347 77.1055C103.363 77.1214 103.372 77.143 103.372 77.1656C103.372 77.1881 103.363 77.2097 103.347 77.2257C103.331 77.2416 103.31 77.2506 103.287 77.2506C103.061 77.2256 102.838 77.1753 102.622 77.1006Z" fill="#263238"/>
<path d="M100.776 70.5512C100.746 70.5392 100.721 70.5203 100.701 70.4962C100.684 70.4803 100.671 70.4613 100.662 70.4402C100.653 70.4192 100.648 70.3965 100.648 70.3737C100.648 70.3508 100.653 70.3282 100.662 70.3071C100.671 70.2861 100.684 70.267 100.701 70.2512C100.946 70.0321 101.24 69.8757 101.559 69.7956C101.878 69.7155 102.211 69.714 102.531 69.7912C102.552 69.7975 102.573 69.8081 102.59 69.8223C102.608 69.8366 102.623 69.8543 102.633 69.8744C102.644 69.8944 102.651 69.9164 102.653 69.939C102.655 69.9617 102.652 69.9845 102.646 70.0062C102.633 70.0505 102.603 70.0879 102.563 70.1104C102.522 70.1328 102.475 70.1385 102.431 70.1262C102.168 70.0676 101.894 70.0725 101.634 70.1403C101.373 70.2081 101.132 70.3369 100.931 70.5162C100.909 70.5328 100.884 70.5446 100.857 70.5507C100.83 70.5567 100.802 70.5569 100.776 70.5512Z" fill="#263238"/>
<path d="M108.297 71.6155C108.271 71.6053 108.247 71.59 108.227 71.5705C108.052 71.3648 107.83 71.2032 107.581 71.099C107.332 70.9947 107.061 70.9507 106.792 70.9705C106.769 70.9755 106.746 70.9757 106.723 70.971C106.7 70.9662 106.678 70.9567 106.659 70.943C106.64 70.9293 106.625 70.9117 106.613 70.8914C106.601 70.8712 106.594 70.8487 106.592 70.8255C106.585 70.7797 106.596 70.733 106.623 70.6955C106.65 70.658 106.691 70.6328 106.737 70.6255C107.063 70.5961 107.392 70.6452 107.696 70.7687C107.999 70.8922 108.269 71.0865 108.482 71.3355C108.506 71.3643 108.521 71.4003 108.523 71.438C108.525 71.4757 108.515 71.5131 108.494 71.5445C108.473 71.576 108.443 71.6 108.407 71.6127C108.372 71.6255 108.333 71.6265 108.297 71.6155Z" fill="#263238"/>
<path d="M112.251 109.341C112.574 108.333 113.094 107.398 113.779 106.59C114.464 105.782 115.301 105.117 116.243 104.633C117.185 104.148 118.213 103.854 119.269 103.767C120.325 103.681 121.387 103.802 122.396 104.126C123.404 104.45 124.339 104.969 125.147 105.654C125.955 106.339 126.62 107.177 127.104 108.119C127.588 109.061 127.882 110.089 127.969 111.144C128.056 112.2 127.934 113.263 127.611 114.271L124.501 124.001L109.141 119.066L112.251 109.341Z" fill="#0C3B2E"/>
<path opacity="0.3" d="M112.251 109.341C112.574 108.333 113.094 107.398 113.779 106.59C114.464 105.782 115.301 105.117 116.243 104.633C117.185 104.148 118.213 103.854 119.269 103.767C120.325 103.681 121.387 103.802 122.396 104.126C123.404 104.45 124.339 104.969 125.147 105.654C125.955 106.339 126.62 107.177 127.104 108.119C127.588 109.061 127.882 110.089 127.969 111.144C128.056 112.2 127.934 113.263 127.611 114.271L124.501 124.001L109.141 119.066L112.251 109.341Z" fill="black"/>
<path d="M97.094 104.472L94.284 113.222C94.2429 113.347 94.227 113.48 94.2375 113.612C94.248 113.744 94.2845 113.872 94.3449 113.99C94.4054 114.107 94.4886 114.212 94.5897 114.297C94.6908 114.383 94.8078 114.447 94.934 114.487L109.134 119.047L112.254 109.337C112.909 107.302 114.344 105.61 116.246 104.633C118.147 103.656 120.358 103.474 122.394 104.127L107.239 99.2566C105.202 98.6054 102.99 98.7887 101.088 99.7664C99.1863 100.744 97.7499 102.436 97.094 104.472Z" fill="#0C3B2E"/>
<path d="M104.717 111.105L108.632 98.9199C108.646 98.8762 108.65 98.8301 108.644 98.7847C108.638 98.7393 108.622 98.6957 108.598 98.6569C108.574 98.618 108.542 98.5848 108.504 98.5594C108.465 98.5341 108.422 98.5172 108.377 98.5099L104.377 97.9199L103.877 99.4999L106.792 100.435L103.492 110.705L104.717 111.105Z" fill="#263238"/>
<path d="M102.634 110.435C102.544 110.718 102.539 111.021 102.62 111.306C102.702 111.591 102.866 111.845 103.093 112.037C103.319 112.228 103.597 112.349 103.891 112.383C104.186 112.417 104.484 112.362 104.747 112.227C105.011 112.092 105.229 111.881 105.373 111.622C105.517 111.363 105.582 111.067 105.558 110.772C105.534 110.476 105.423 110.194 105.239 109.962C105.055 109.729 104.806 109.556 104.524 109.465C104.336 109.405 104.138 109.382 103.942 109.397C103.745 109.413 103.553 109.468 103.378 109.558C103.202 109.648 103.046 109.772 102.918 109.923C102.791 110.073 102.694 110.247 102.634 110.435Z" fill="#263238"/>
<path d="M109.877 120.501L129.577 126.826C129.648 126.849 129.724 126.858 129.799 126.852C129.874 126.846 129.947 126.825 130.014 126.791C130.081 126.756 130.14 126.709 130.189 126.651C130.237 126.594 130.274 126.527 130.297 126.456C130.321 126.384 130.33 126.308 130.325 126.233C130.319 126.158 130.298 126.085 130.264 126.017C130.229 125.95 130.182 125.891 130.124 125.842C130.066 125.794 129.999 125.758 129.927 125.736L109.137 119.061C109.044 119.35 109.07 119.664 109.209 119.934C109.347 120.204 109.588 120.408 109.877 120.501Z" fill="#0C3B2E"/>
<path opacity="0.2" d="M109.877 120.501L117.927 123.086C117.999 123.109 118.074 123.118 118.15 123.112C118.225 123.106 118.299 123.085 118.366 123.051C118.433 123.017 118.493 122.969 118.542 122.912C118.591 122.854 118.629 122.787 118.652 122.716C118.697 122.571 118.684 122.414 118.615 122.279C118.546 122.145 118.426 122.043 118.282 121.996L109.137 119.061C109.044 119.35 109.07 119.664 109.209 119.934C109.347 120.204 109.588 120.408 109.877 120.501Z" fill="black"/>
<path d="M89.0698 92.5516L88.7948 92.8566L88.4848 93.2116C88.2748 93.4516 88.0648 93.7116 87.8648 93.9566C87.4548 94.4566 87.0648 94.9916 86.6998 95.5316C85.189 97.67 83.9997 100.018 83.1698 102.502C82.9698 103.122 82.7848 103.742 82.6398 104.377C82.5898 104.562 82.5848 104.637 82.5598 104.722C82.5559 104.795 82.5559 104.868 82.5598 104.942C82.5518 105.02 82.5518 105.098 82.5598 105.177C82.5598 105.267 82.7298 105.477 83.1398 105.677C83.6327 105.898 84.1519 106.056 84.6848 106.147C85.9708 106.351 87.273 106.436 88.5748 106.402C89.9348 106.402 91.3148 106.282 92.6948 106.137C94.0748 105.992 95.4748 105.812 96.8298 105.607L97.3748 107.772C94.5841 108.68 91.7126 109.318 88.7998 109.677C87.2662 109.876 85.7156 109.91 84.1748 109.777C83.2939 109.694 82.4289 109.489 81.6048 109.167C81.1104 108.968 80.646 108.702 80.2248 108.377C79.7287 107.988 79.3198 107.499 79.0248 106.942C78.5169 105.897 78.381 104.709 78.6398 103.577C78.7598 102.812 78.9348 102.077 79.1398 101.307C79.5322 99.8285 80.0542 98.3879 80.6998 97.0016C81.3471 95.612 82.101 94.2747 82.9548 93.0016C83.3848 92.3666 83.8448 91.7516 84.3248 91.1466C84.5698 90.8466 84.8248 90.5516 85.0748 90.2566L85.4798 89.8216C85.6248 89.6666 85.7398 89.5416 85.9398 89.3516L89.0698 92.5516Z" fill="#FFB573"/>
<path d="M95.7398 106.066L99.2398 104.211L99.3948 107.971C99.3948 107.971 96.8948 109.006 95.4648 107.866L95.7398 106.066Z" fill="#FFB573"/>
<path d="M102.126 103.926L101.601 107.391L99.4011 107.971L99.2461 104.211L102.126 103.926Z" fill="#FFB573"/>
<path d="M86.9541 85.5002C84.7491 85.8902 81.6641 92.2102 81.6641 92.2102L87.2191 97.2102C87.2191 97.2102 91.6341 92.3902 91.3991 89.5202C91.1991 87.0952 89.7591 85.0002 86.9541 85.5002Z" fill="#0C3B2E"/>
<path opacity="0.7" d="M86.9541 85.5002C84.7491 85.8902 81.6641 92.2102 81.6641 92.2102L87.2191 97.2102C87.2191 97.2102 91.6341 92.3902 91.3991 89.5202C91.1991 87.0952 89.7591 85.0002 86.9541 85.5002Z" fill="white"/>
<path d="M72.077 198.031C72.0189 198.038 71.9601 198.038 71.902 198.031C71.347 198.001 70.757 197.151 70.452 196.651C70.4426 196.637 70.4375 196.62 70.4375 196.603C70.4375 196.586 70.4426 196.57 70.452 196.556C70.4612 196.541 70.4749 196.529 70.4911 196.523C70.5074 196.517 70.5252 196.516 70.542 196.521C70.722 196.556 72.277 196.906 72.472 197.431C72.4923 197.488 72.4974 197.549 72.4869 197.609C72.4763 197.668 72.4506 197.724 72.412 197.771C72.332 197.892 72.2142 197.983 72.077 198.031ZM70.712 196.761C71.157 197.446 71.597 197.856 71.912 197.876C71.9838 197.877 72.0546 197.86 72.1177 197.826C72.1808 197.791 72.234 197.741 72.272 197.681C72.2936 197.659 72.3084 197.631 72.3146 197.601C72.3208 197.571 72.3182 197.539 72.307 197.511C72.187 197.191 71.252 196.891 70.712 196.761Z" fill="#0C3B2E"/>
<path d="M71.9154 196.651C71.4543 196.778 70.9705 196.799 70.5004 196.711C70.4856 196.707 70.4723 196.698 70.4618 196.687C70.4513 196.675 70.4439 196.661 70.4404 196.646C70.4334 196.633 70.4297 196.619 70.4297 196.604C70.4297 196.589 70.4334 196.574 70.4404 196.561C70.4804 196.526 71.3904 195.636 72.0254 195.681C72.1038 195.682 72.1809 195.702 72.2504 195.739C72.3199 195.775 72.3798 195.827 72.4254 195.891C72.48 195.95 72.5135 196.025 72.5208 196.104C72.528 196.184 72.5085 196.264 72.4653 196.331C72.3217 196.495 72.1286 196.607 71.9154 196.651ZM70.7104 196.571C71.2104 196.641 72.1453 196.516 72.3403 196.231C72.3703 196.186 72.3954 196.116 72.3054 196.001C72.2751 195.957 72.2349 195.921 72.1879 195.896C72.1409 195.871 72.0886 195.857 72.0354 195.856C71.6004 195.826 70.9704 196.336 70.7104 196.571Z" fill="#0C3B2E"/>
<path d="M94.6514 204.195C94.168 204.183 93.687 204.121 93.2164 204.01C93.2 204.004 93.1857 203.993 93.1756 203.979C93.1656 203.965 93.1602 203.947 93.1602 203.93C93.1602 203.912 93.1656 203.895 93.1756 203.881C93.1857 203.867 93.2 203.856 93.2164 203.85C93.4314 203.745 95.3464 202.85 95.8264 203.19C95.8697 203.219 95.9042 203.26 95.9262 203.308C95.9482 203.355 95.9569 203.408 95.9514 203.46C95.9491 203.558 95.9245 203.653 95.8794 203.74C95.8344 203.827 95.7701 203.902 95.6914 203.96C95.3778 204.145 95.0141 204.227 94.6514 204.195ZM93.5164 203.895C94.0814 204 95.1314 204.14 95.5664 203.815C95.6222 203.771 95.668 203.716 95.7007 203.653C95.7335 203.59 95.7525 203.521 95.7564 203.45C95.7608 203.428 95.7584 203.405 95.7494 203.385C95.7405 203.364 95.7255 203.347 95.7064 203.335C95.4364 203.15 94.3064 203.545 93.5014 203.895H93.5164Z" fill="#0C3B2E"/>
<path d="M93.231 204.001C93.213 204.006 93.194 204.006 93.176 204.001C93.164 203.99 93.1549 203.976 93.1497 203.96C93.1444 203.944 93.1432 203.927 93.146 203.911C93.146 203.831 93.601 201.946 94.646 202.066C94.906 202.101 94.976 202.226 94.991 202.331C95.056 202.831 93.851 203.776 93.276 204.016L93.231 204.001ZM94.541 202.216C93.881 202.216 93.496 203.316 93.366 203.756C93.991 203.426 94.866 202.641 94.811 202.336C94.811 202.311 94.811 202.241 94.616 202.221L94.541 202.216Z" fill="#0C3B2E"/>
<path d="M103 72.0265L103.885 71.8965C103.885 71.8965 103.36 72.5015 103 72.0265Z" fill="#263238"/>
<path d="M133.766 113.855L114.406 117.855C114.075 117.917 113.732 117.847 113.452 117.66C113.172 117.474 112.976 117.184 112.906 116.855L112.001 112.655L111.676 111.105L112.246 109.335C112.325 109.081 112.42 108.832 112.531 108.59C112.543 108.551 112.56 108.515 112.581 108.48C112.9 107.752 113.33 107.077 113.856 106.48L114.856 106.27L131.456 102.825C131.787 102.763 132.129 102.833 132.409 103.019C132.69 103.206 132.886 103.495 132.956 103.825L134.721 112.325C134.793 112.654 134.734 112.999 134.555 113.285C134.377 113.57 134.093 113.775 133.766 113.855Z" fill="#0C3B2E"/>
<path opacity="0.3" d="M132.805 103.375L123.465 112.875L121.465 112.065L113.685 108.91L112.59 108.465C112.909 107.737 113.339 107.062 113.865 106.465L114.865 106.255L131.465 102.81C131.719 102.759 131.983 102.786 132.222 102.887C132.461 102.988 132.664 103.158 132.805 103.375Z" fill="black"/>
<path d="M132.804 103.375L121.464 112.08L120.724 112.65L113.599 109.115L112.539 108.615C112.552 108.577 112.568 108.54 112.589 108.505C112.908 107.777 113.339 107.102 113.864 106.505L114.864 106.295L131.464 102.85C131.714 102.795 131.975 102.816 132.214 102.91C132.452 103.003 132.658 103.165 132.804 103.375Z" fill="#0C3B2E"/>
<path opacity="0.2" d="M132.804 103.375L121.464 112.08L120.724 112.65L113.599 109.115L112.539 108.615C112.552 108.577 112.568 108.54 112.589 108.505C112.908 107.777 113.339 107.102 113.864 106.505L114.864 106.295L131.464 102.85C131.714 102.795 131.975 102.816 132.214 102.91C132.452 103.003 132.658 103.165 132.804 103.375Z" fill="white"/>
<path d="M157.402 131.39L151.502 137.75C151.27 137.998 150.948 138.144 150.608 138.156C150.268 138.169 149.937 138.046 149.687 137.815L135.217 124.34C134.968 124.108 134.822 123.787 134.809 123.446C134.797 123.106 134.921 122.775 135.152 122.525L141.072 116.165C141.187 116.041 141.325 115.94 141.479 115.869C141.633 115.798 141.8 115.759 141.969 115.753C142.138 115.747 142.307 115.774 142.466 115.834C142.624 115.894 142.769 115.984 142.892 116.1L157.357 129.575C157.545 129.75 157.676 129.976 157.734 130.226C157.792 130.475 157.774 130.736 157.682 130.975C157.62 131.132 157.524 131.274 157.402 131.39Z" fill="#0C3B2E"/>
<path opacity="0.3" d="M157.66 131.001L144.5 128.856L141.445 115.856C141.679 115.748 141.938 115.712 142.192 115.752C142.445 115.792 142.682 115.907 142.87 116.081L157.335 129.556C157.532 129.733 157.669 129.968 157.727 130.227C157.785 130.485 157.762 130.756 157.66 131.001Z" fill="black"/>
<path d="M157.66 131L144.845 127.18L141.445 115.9C141.679 115.793 141.938 115.757 142.192 115.797C142.445 115.837 142.682 115.951 142.87 116.125L157.335 129.6C157.523 129.775 157.654 130.001 157.712 130.251C157.77 130.5 157.752 130.761 157.66 131Z" fill="#0C3B2E"/>
<path opacity="0.2" d="M157.66 131L144.845 127.18L141.445 115.9C141.679 115.793 141.938 115.757 142.192 115.797C142.445 115.837 142.682 115.951 142.87 116.125L157.335 129.6C157.523 129.775 157.654 130.001 157.712 130.251C157.77 130.5 157.752 130.761 157.66 131Z" fill="white"/>
<path d="M162.544 141.864L169.044 149.454C169.169 149.6 169.262 149.769 169.319 149.951C169.375 150.134 169.394 150.326 169.374 150.516C169.354 150.706 169.295 150.89 169.202 151.056C169.108 151.223 168.981 151.368 168.829 151.484L154.709 162.484C154.472 162.627 154.19 162.677 153.918 162.623C153.647 162.569 153.405 162.417 153.239 162.194L148.154 156.394C148.059 156.283 147.98 156.158 147.919 156.024C147.825 155.84 147.786 155.633 147.806 155.427C147.826 155.222 147.906 155.026 148.034 154.864L160.534 141.809C160.73 141.598 160.987 141.455 161.27 141.401C161.553 141.347 161.845 141.385 162.104 141.509C162.272 141.599 162.422 141.719 162.544 141.864Z" fill="#0C3B2E"/>
<path opacity="0.3" d="M162.104 141.524L158.999 155.334L147.939 156.039C147.845 155.855 147.805 155.648 147.826 155.442C147.846 155.237 147.925 155.041 148.054 154.879L160.554 141.824C160.748 141.617 161.002 141.477 161.28 141.423C161.559 141.369 161.847 141.405 162.104 141.524Z" fill="black"/>
<path d="M162.106 141.526L156.901 156.181L147.931 156.041C147.837 155.857 147.797 155.649 147.818 155.444C147.838 155.238 147.917 155.042 148.046 154.881L160.546 141.826C160.741 141.616 160.997 141.475 161.277 141.421C161.558 141.367 161.848 141.403 162.106 141.526Z" fill="#0C3B2E"/>
<path opacity="0.2" d="M162.106 141.526L156.901 156.181L147.931 156.041C147.837 155.857 147.797 155.649 147.818 155.444C147.838 155.238 147.917 155.042 148.046 154.881L160.546 141.826C160.741 141.616 160.997 141.475 161.277 141.421C161.558 141.367 161.848 141.403 162.106 141.526Z" fill="white"/>
</svg>
