<svg width="500" height="500" viewBox="0 0 500 500" fill="none" xmlns="http://www.w3.org/2000/svg">
<rect width="500" height="500" rx="250" fill="#293751"/>
<path d="M130.727 210.637C130.558 211.243 130.471 211.87 130.469 212.5V231.25C130.466 238.363 132.166 245.372 135.429 251.693C138.691 258.013 143.419 263.46 149.219 267.578V353.125C149.219 354.99 149.96 356.778 151.278 358.097C152.597 359.415 154.385 360.156 156.25 360.156H343.75C345.615 360.156 347.403 359.415 348.722 358.097C350.04 356.778 350.781 354.99 350.781 353.125V267.578C356.581 263.46 361.309 258.013 364.571 251.693C367.834 245.372 369.534 238.363 369.531 231.25V212.5C369.532 211.85 369.441 211.203 369.262 210.578L352.457 151.738C351.467 148.324 349.399 145.321 346.563 143.178C343.727 141.034 340.274 139.865 336.719 139.844H163.281C159.726 139.865 156.273 141.034 153.437 143.178C150.601 145.321 148.533 148.324 147.543 151.738L130.727 210.637ZM161.066 155.559C161.213 155.084 161.506 154.668 161.904 154.371C162.303 154.074 162.785 153.911 163.281 153.906H336.719C337.227 153.907 337.722 154.073 338.128 154.38C338.534 154.686 338.829 155.116 338.969 155.605L353.184 205.469H146.875L161.066 155.559ZM219.531 219.531H280.469V231.25C280.469 239.331 277.259 247.081 271.545 252.795C265.831 258.509 258.081 261.719 250 261.719C241.919 261.719 234.169 258.509 228.455 252.795C222.741 247.081 219.531 239.331 219.531 231.25V219.531ZM144.531 219.531H205.469V231.25C205.475 236.508 204.12 241.678 201.536 246.258C198.952 250.837 195.226 254.67 190.722 257.383C186.218 260.097 181.089 261.598 175.832 261.742C170.576 261.886 165.372 260.666 160.727 258.203C160.149 257.711 159.497 257.315 158.793 257.031C154.43 254.29 150.833 250.488 148.339 245.979C145.845 241.47 144.535 236.403 144.531 231.25V219.531ZM336.719 346.094H163.281V274.211C172.439 276.703 182.153 276.203 191.007 272.786C199.86 269.369 207.391 263.213 212.5 255.215C216.519 261.518 222.061 266.707 228.616 270.301C235.17 273.896 242.525 275.78 250 275.78C257.475 275.78 264.83 273.896 271.384 270.301C277.939 266.707 283.481 261.518 287.5 255.215C292.609 263.213 300.14 269.369 308.993 272.786C317.847 276.203 327.561 276.703 336.719 274.211V346.094ZM341.207 257.031C340.504 257.315 339.851 257.711 339.273 258.203C334.628 260.666 329.424 261.886 324.168 261.742C318.911 261.598 313.782 260.097 309.278 257.383C304.774 254.67 301.048 250.837 298.464 246.258C295.88 241.678 294.525 236.508 294.531 231.25V219.531H355.469V231.25C355.465 236.403 354.156 241.47 351.661 245.979C349.167 250.488 345.57 254.29 341.207 257.031Z" fill="white"/>
</svg>
