<svg xmlns="http://www.w3.org/2000/svg" xmlns:xlink="http://www.w3.org/1999/xlink" width="802" zoomAndPan="magnify" viewBox="0 0 601.5 886.499972" height="1182" preserveAspectRatio="xMidYMid meet" version="1.0"><defs><clipPath id="3628a8ca29"><path d="M 250 536 L 317 536 L 317 547.949219 L 250 547.949219 Z M 250 536 " clip-rule="nonzero"/></clipPath><clipPath id="86df88a69f"><path d="M 180.300781 376 L 387 376 L 387 515 L 180.300781 515 Z M 180.300781 376 " clip-rule="nonzero"/></clipPath><clipPath id="9ef547f234"><path d="M 348 465 L 420.851562 465 L 420.851562 538 L 348 538 Z M 348 465 " clip-rule="nonzero"/></clipPath><clipPath id="8bcbf72218"><path d="M 254 376 L 420.851562 376 L 420.851562 547.949219 L 254 547.949219 Z M 254 376 " clip-rule="nonzero"/></clipPath><clipPath id="bb18fa2c65"><path d="M 343 338.125 L 347 338.125 L 347 348 L 343 348 Z M 343 338.125 " clip-rule="nonzero"/></clipPath><clipPath id="ebcbc0e182"><path d="M 221 534 L 235 534 L 235 547.949219 L 221 547.949219 Z M 221 534 " clip-rule="nonzero"/></clipPath></defs><path fill="#dee1ec" d="M 188.179688 377.917969 L 378.296875 377.917969 C 378.707031 377.917969 379.113281 377.957031 379.515625 378.039062 C 379.921875 378.117188 380.3125 378.234375 380.691406 378.394531 C 381.070312 378.550781 381.433594 378.742188 381.773438 378.972656 C 382.117188 379.199219 382.433594 379.460938 382.722656 379.75 C 383.015625 380.042969 383.273438 380.355469 383.5 380.699219 C 383.730469 381.039062 383.921875 381.402344 384.082031 381.78125 C 384.238281 382.160156 384.355469 382.550781 384.4375 382.957031 C 384.515625 383.359375 384.558594 383.765625 384.558594 384.175781 L 384.558594 506.433594 C 384.558594 506.84375 384.515625 507.253906 384.4375 507.65625 C 384.355469 508.058594 384.238281 508.449219 384.082031 508.828125 C 383.921875 509.210938 383.730469 509.570312 383.5 509.914062 C 383.273438 510.253906 383.015625 510.570312 382.722656 510.859375 C 382.433594 511.152344 382.117188 511.410156 381.773438 511.640625 C 381.433594 511.867188 381.070312 512.0625 380.691406 512.21875 C 380.3125 512.375 379.921875 512.496094 379.515625 512.574219 C 379.113281 512.65625 378.707031 512.695312 378.296875 512.695312 L 188.179688 512.695312 C 187.769531 512.695312 187.363281 512.65625 186.957031 512.574219 C 186.554688 512.496094 186.164062 512.375 185.785156 512.21875 C 185.402344 512.0625 185.042969 511.867188 184.699219 511.640625 C 184.359375 511.410156 184.042969 511.152344 183.753906 510.859375 C 183.460938 510.570312 183.203125 510.253906 182.972656 509.914062 C 182.746094 509.570312 182.550781 509.210938 182.394531 508.828125 C 182.238281 508.449219 182.117188 508.058594 182.039062 507.65625 C 181.957031 507.253906 181.917969 506.84375 181.917969 506.433594 L 181.917969 384.175781 C 181.917969 383.765625 181.957031 383.359375 182.039062 382.957031 C 182.117188 382.550781 182.238281 382.160156 182.394531 381.78125 C 182.550781 381.402344 182.746094 381.039062 182.972656 380.699219 C 183.203125 380.355469 183.460938 380.042969 183.753906 379.75 C 184.042969 379.460938 184.359375 379.199219 184.699219 378.972656 C 185.042969 378.742188 185.402344 378.550781 185.785156 378.394531 C 186.164062 378.234375 186.554688 378.117188 186.957031 378.039062 C 187.363281 377.957031 187.769531 377.917969 188.179688 377.917969 Z M 188.179688 377.917969 " fill-opacity="1" fill-rule="nonzero"/><path fill="#f5f5f5" d="M 384.5625 384.1875 L 384.5625 486.882812 L 181.917969 486.882812 L 181.917969 384.230469 C 181.917969 383.816406 181.957031 383.40625 182.039062 383 C 182.121094 382.59375 182.238281 382.199219 182.398438 381.816406 C 182.558594 381.433594 182.753906 381.066406 182.984375 380.722656 C 183.214844 380.378906 183.476562 380.058594 183.769531 379.765625 C 184.0625 379.472656 184.378906 379.210938 184.726562 378.980469 C 185.070312 378.75 185.433594 378.554688 185.816406 378.398438 C 186.199219 378.238281 186.59375 378.117188 187 378.039062 C 187.410156 377.957031 187.820312 377.917969 188.234375 377.917969 L 378.285156 377.917969 C 378.695312 377.917969 379.105469 377.957031 379.507812 378.035156 C 379.914062 378.117188 380.304688 378.234375 380.6875 378.394531 C 381.066406 378.550781 381.429688 378.742188 381.773438 378.972656 C 382.113281 379.199219 382.433594 379.460938 382.722656 379.75 C 383.015625 380.042969 383.273438 380.359375 383.503906 380.703125 C 383.734375 381.042969 383.925781 381.40625 384.085938 381.785156 C 384.242188 382.167969 384.363281 382.558594 384.441406 382.964844 C 384.523438 383.367188 384.5625 383.777344 384.5625 384.1875 Z M 384.5625 384.1875 " fill-opacity="1" fill-rule="nonzero"/><path fill="#dcdfea" d="M 357.097656 377.910156 L 357.097656 458.105469 C 357.097656 458.652344 357.070312 459.199219 357.015625 459.746094 C 356.960938 460.292969 356.878906 460.832031 356.769531 461.371094 C 356.664062 461.910156 356.527344 462.441406 356.367188 462.964844 C 356.207031 463.492188 356.023438 464.007812 355.8125 464.511719 C 355.601562 465.019531 355.367188 465.515625 355.105469 465.996094 C 354.847656 466.480469 354.566406 466.949219 354.257812 467.40625 C 353.953125 467.863281 353.628906 468.300781 353.277344 468.726562 C 352.929688 469.148438 352.5625 469.554688 352.171875 469.945312 C 351.785156 470.332031 351.378906 470.699219 350.953125 471.046875 C 350.53125 471.394531 350.089844 471.722656 349.632812 472.027344 C 349.175781 472.332031 348.707031 472.613281 348.222656 472.871094 C 347.738281 473.128906 347.242188 473.363281 346.738281 473.574219 C 346.230469 473.785156 345.714844 473.96875 345.1875 474.128906 C 344.664062 474.289062 344.132812 474.421875 343.59375 474.527344 C 343.054688 474.636719 342.511719 474.714844 341.96875 474.769531 C 341.421875 474.824219 340.875 474.851562 340.324219 474.851562 L 225.066406 474.851562 C 224.515625 474.851562 223.96875 474.824219 223.421875 474.769531 C 222.875 474.714844 222.332031 474.636719 221.792969 474.527344 C 221.257812 474.417969 220.722656 474.285156 220.199219 474.125 C 219.671875 473.96875 219.15625 473.78125 218.648438 473.570312 C 218.140625 473.359375 217.648438 473.125 217.164062 472.867188 C 216.679688 472.609375 216.207031 472.328125 215.75 472.019531 C 215.292969 471.714844 214.855469 471.390625 214.429688 471.039062 C 214.003906 470.691406 213.597656 470.324219 213.210938 469.9375 C 212.820312 469.546875 212.453125 469.140625 212.105469 468.71875 C 211.757812 468.292969 211.429688 467.851562 211.125 467.394531 C 210.820312 466.9375 210.535156 466.46875 210.277344 465.984375 C 210.019531 465.5 209.785156 465.003906 209.574219 464.496094 C 209.363281 463.992188 209.179688 463.472656 209.019531 462.949219 C 208.859375 462.421875 208.726562 461.890625 208.617188 461.351562 C 208.511719 460.816406 208.429688 460.273438 208.375 459.726562 C 208.320312 459.179688 208.292969 458.632812 208.292969 458.082031 L 208.292969 377.910156 Z M 357.097656 377.910156 " fill-opacity="1" fill-rule="nonzero"/><path fill="#dee1ec" d="M 259.953125 512.695312 L 306.523438 512.695312 L 306.523438 537.914062 L 259.953125 537.914062 Z M 259.953125 512.695312 " fill-opacity="1" fill-rule="nonzero"/><path fill="#dee1ec" d="M 310.597656 545.898438 L 255.878906 545.898438 C 255.609375 545.910156 255.34375 545.894531 255.078125 545.847656 C 254.8125 545.804688 254.554688 545.734375 254.304688 545.640625 C 254.054688 545.542969 253.816406 545.421875 253.589844 545.277344 C 253.363281 545.136719 253.152344 544.96875 252.957031 544.785156 C 252.765625 544.597656 252.59375 544.394531 252.441406 544.171875 C 252.289062 543.949219 252.160156 543.71875 252.054688 543.46875 C 251.949219 543.222656 251.871094 542.96875 251.816406 542.703125 C 251.761719 542.441406 251.734375 542.175781 251.734375 541.90625 C 251.734375 541.636719 251.761719 541.371094 251.816406 541.109375 C 251.871094 540.847656 251.949219 540.589844 252.054688 540.34375 C 252.160156 540.097656 252.289062 539.863281 252.441406 539.640625 C 252.59375 539.421875 252.765625 539.214844 252.957031 539.03125 C 253.152344 538.84375 253.363281 538.679688 253.589844 538.535156 C 253.816406 538.390625 254.054688 538.269531 254.304688 538.175781 C 254.554688 538.078125 254.8125 538.007812 255.078125 537.964844 C 255.34375 537.921875 255.609375 537.902344 255.878906 537.914062 L 310.597656 537.914062 C 310.863281 537.902344 311.132812 537.921875 311.394531 537.964844 C 311.660156 538.007812 311.917969 538.078125 312.171875 538.175781 C 312.421875 538.269531 312.660156 538.390625 312.886719 538.535156 C 313.113281 538.679688 313.324219 538.84375 313.515625 539.03125 C 313.710938 539.214844 313.882812 539.421875 314.035156 539.640625 C 314.1875 539.863281 314.316406 540.097656 314.421875 540.34375 C 314.527344 540.589844 314.605469 540.847656 314.660156 541.109375 C 314.710938 541.371094 314.738281 541.636719 314.738281 541.90625 C 314.738281 542.175781 314.710938 542.441406 314.660156 542.703125 C 314.605469 542.96875 314.527344 543.222656 314.421875 543.46875 C 314.316406 543.71875 314.1875 543.949219 314.035156 544.171875 C 313.882812 544.394531 313.710938 544.597656 313.515625 544.785156 C 313.324219 544.96875 313.113281 545.136719 312.886719 545.277344 C 312.660156 545.421875 312.421875 545.542969 312.171875 545.640625 C 311.917969 545.734375 311.660156 545.804688 311.394531 545.847656 C 311.132812 545.894531 310.863281 545.910156 310.597656 545.898438 Z M 310.597656 545.898438 " fill-opacity="1" fill-rule="nonzero"/><g clip-path="url(#3628a8ca29)"><path fill="#5e6175" d="M 310.597656 547.515625 L 255.878906 547.515625 C 255.503906 547.527344 255.128906 547.503906 254.757812 547.441406 C 254.390625 547.375 254.027344 547.277344 253.675781 547.140625 C 253.328125 547.003906 252.992188 546.835938 252.675781 546.632812 C 252.359375 546.429688 252.066406 546.199219 251.796875 545.9375 C 251.527344 545.675781 251.285156 545.390625 251.074219 545.078125 C 250.859375 544.769531 250.679688 544.441406 250.535156 544.09375 C 250.386719 543.75 250.277344 543.390625 250.203125 543.023438 C 250.128906 542.65625 250.089844 542.28125 250.089844 541.90625 C 250.089844 541.53125 250.128906 541.160156 250.203125 540.789062 C 250.277344 540.421875 250.386719 540.066406 250.535156 539.71875 C 250.679688 539.371094 250.859375 539.042969 251.074219 538.734375 C 251.285156 538.425781 251.527344 538.136719 251.796875 537.875 C 252.066406 537.613281 252.359375 537.382812 252.675781 537.179688 C 252.992188 536.976562 253.328125 536.808594 253.675781 536.671875 C 254.027344 536.535156 254.390625 536.4375 254.757812 536.375 C 255.128906 536.308594 255.503906 536.285156 255.878906 536.296875 L 310.597656 536.296875 C 310.972656 536.285156 311.34375 536.308594 311.714844 536.375 C 312.085938 536.4375 312.445312 536.535156 312.796875 536.671875 C 313.148438 536.808594 313.480469 536.976562 313.796875 537.179688 C 314.113281 537.382812 314.410156 537.613281 314.679688 537.875 C 314.949219 538.136719 315.191406 538.425781 315.402344 538.734375 C 315.613281 539.042969 315.792969 539.371094 315.941406 539.71875 C 316.085938 540.066406 316.199219 540.421875 316.273438 540.789062 C 316.347656 541.160156 316.386719 541.53125 316.386719 541.90625 C 316.386719 542.28125 316.347656 542.65625 316.273438 543.023438 C 316.199219 543.390625 316.085938 543.75 315.941406 544.09375 C 315.792969 544.441406 315.613281 544.769531 315.402344 545.078125 C 315.191406 545.390625 314.949219 545.675781 314.679688 545.9375 C 314.410156 546.199219 314.113281 546.429688 313.796875 546.632812 C 313.480469 546.835938 313.148438 547.003906 312.796875 547.140625 C 312.445312 547.277344 312.085938 547.375 311.714844 547.441406 C 311.34375 547.503906 310.972656 547.527344 310.597656 547.515625 Z M 255.878906 539.558594 C 255.554688 539.542969 255.238281 539.59375 254.933594 539.707031 C 254.628906 539.820312 254.359375 539.988281 254.125 540.210938 C 253.890625 540.4375 253.707031 540.699219 253.578125 540.996094 C 253.453125 541.296875 253.386719 541.609375 253.386719 541.933594 C 253.386719 542.257812 253.453125 542.570312 253.578125 542.871094 C 253.707031 543.167969 253.890625 543.429688 254.125 543.65625 C 254.359375 543.878906 254.628906 544.046875 254.933594 544.160156 C 255.238281 544.277344 255.554688 544.324219 255.878906 544.308594 L 310.597656 544.308594 C 310.921875 544.324219 311.234375 544.277344 311.539062 544.160156 C 311.84375 544.046875 312.117188 543.878906 312.351562 543.65625 C 312.585938 543.429688 312.769531 543.167969 312.894531 542.871094 C 313.023438 542.570312 313.089844 542.257812 313.089844 541.933594 C 313.089844 541.609375 313.023438 541.296875 312.894531 540.996094 C 312.769531 540.699219 312.585938 540.4375 312.351562 540.210938 C 312.117188 539.988281 311.84375 539.820312 311.539062 539.707031 C 311.234375 539.59375 310.921875 539.542969 310.597656 539.558594 Z M 255.878906 539.558594 " fill-opacity="1" fill-rule="nonzero"/></g><path fill="#a7adc2" d="M 259.953125 512.695312 L 306.523438 512.695312 L 306.523438 526.003906 L 259.953125 526.003906 Z M 259.953125 512.695312 " fill-opacity="1" fill-rule="nonzero"/><path fill="#5e6175" d="M 308.125 539.558594 L 258.332031 539.558594 L 258.332031 511.078125 L 308.125 511.078125 Z M 261.554688 536.324219 L 304.890625 536.324219 L 304.890625 514.3125 L 261.570312 514.3125 Z M 261.554688 536.324219 " fill-opacity="1" fill-rule="nonzero"/><g clip-path="url(#86df88a69f)"><path fill="#5e6175" d="M 378.296875 514.3125 L 188.179688 514.3125 C 187.664062 514.3125 187.152344 514.261719 186.644531 514.160156 C 186.136719 514.058594 185.644531 513.90625 185.167969 513.710938 C 184.6875 513.511719 184.234375 513.269531 183.804688 512.980469 C 183.375 512.695312 182.976562 512.367188 182.609375 512 C 182.246094 511.636719 181.917969 511.238281 181.632812 510.808594 C 181.34375 510.378906 181.101562 509.925781 180.902344 509.449219 C 180.703125 508.96875 180.554688 508.476562 180.453125 507.96875 C 180.351562 507.464844 180.300781 506.953125 180.300781 506.433594 L 180.300781 384.175781 C 180.300781 383.660156 180.351562 383.148438 180.453125 382.640625 C 180.554688 382.132812 180.703125 381.640625 180.902344 381.164062 C 181.101562 380.6875 181.34375 380.234375 181.632812 379.804688 C 181.917969 379.375 182.246094 378.976562 182.609375 378.609375 C 182.976562 378.246094 183.375 377.917969 183.804688 377.628906 C 184.234375 377.34375 184.6875 377.101562 185.167969 376.902344 C 185.644531 376.703125 186.136719 376.554688 186.644531 376.453125 C 187.152344 376.351562 187.664062 376.300781 188.179688 376.300781 L 378.296875 376.300781 C 378.8125 376.300781 379.324219 376.351562 379.832031 376.453125 C 380.339844 376.550781 380.832031 376.703125 381.308594 376.898438 C 381.789062 377.097656 382.242188 377.339844 382.671875 377.628906 C 383.101562 377.914062 383.5 378.242188 383.867188 378.609375 C 384.230469 378.972656 384.558594 379.371094 384.84375 379.800781 C 385.132812 380.230469 385.375 380.683594 385.574219 381.164062 C 385.773438 381.640625 385.921875 382.132812 386.023438 382.640625 C 386.125 383.148438 386.175781 383.660156 386.175781 384.175781 L 386.175781 506.433594 C 386.175781 506.953125 386.125 507.464844 386.023438 507.96875 C 385.921875 508.476562 385.769531 508.96875 385.574219 509.449219 C 385.375 509.925781 385.132812 510.378906 384.84375 510.808594 C 384.554688 511.238281 384.230469 511.636719 383.863281 512 C 383.5 512.367188 383.101562 512.695312 382.671875 512.980469 C 382.242188 513.269531 381.785156 513.511719 381.308594 513.710938 C 380.832031 513.90625 380.339844 514.058594 379.832031 514.160156 C 379.324219 514.261719 378.8125 514.3125 378.296875 514.3125 Z M 188.179688 379.535156 C 187.875 379.535156 187.574219 379.566406 187.273438 379.625 C 186.976562 379.683594 186.683594 379.773438 186.402344 379.890625 C 186.121094 380.007812 185.855469 380.148438 185.601562 380.320312 C 185.347656 380.488281 185.113281 380.679688 184.898438 380.894531 C 184.683594 381.113281 184.488281 381.347656 184.320312 381.597656 C 184.152344 381.851562 184.007812 382.121094 183.890625 382.402344 C 183.773438 382.683594 183.6875 382.972656 183.625 383.273438 C 183.566406 383.570312 183.535156 383.871094 183.535156 384.175781 L 183.535156 506.433594 C 183.535156 506.738281 183.566406 507.039062 183.625 507.339844 C 183.6875 507.636719 183.773438 507.929688 183.890625 508.210938 C 184.007812 508.492188 184.152344 508.757812 184.320312 509.011719 C 184.488281 509.265625 184.683594 509.5 184.898438 509.714844 C 185.113281 509.929688 185.347656 510.125 185.601562 510.292969 C 185.855469 510.460938 186.121094 510.605469 186.402344 510.722656 C 186.683594 510.839844 186.976562 510.925781 187.273438 510.988281 C 187.574219 511.046875 187.875 511.078125 188.179688 511.078125 L 378.296875 511.078125 C 378.601562 511.078125 378.902344 511.046875 379.199219 510.988281 C 379.5 510.925781 379.789062 510.839844 380.070312 510.722656 C 380.351562 510.605469 380.621094 510.460938 380.875 510.292969 C 381.128906 510.125 381.363281 509.929688 381.578125 509.714844 C 381.792969 509.5 381.984375 509.265625 382.15625 509.011719 C 382.324219 508.757812 382.46875 508.492188 382.585938 508.210938 C 382.699219 507.929688 382.789062 507.636719 382.847656 507.339844 C 382.910156 507.039062 382.9375 506.738281 382.9375 506.433594 L 382.9375 384.175781 C 382.9375 383.871094 382.910156 383.570312 382.847656 383.273438 C 382.789062 382.972656 382.699219 382.683594 382.585938 382.402344 C 382.46875 382.121094 382.324219 381.851562 382.15625 381.597656 C 381.984375 381.347656 381.792969 381.113281 381.578125 380.894531 C 381.363281 380.679688 381.128906 380.488281 380.875 380.320312 C 380.621094 380.148438 380.351562 380.007812 380.070312 379.890625 C 379.789062 379.773438 379.5 379.683594 379.199219 379.625 C 378.902344 379.566406 378.601562 379.535156 378.296875 379.535156 Z M 188.179688 379.535156 " fill-opacity="1" fill-rule="nonzero"/></g><path fill="#f5f5f5" d="M 419.214844 501.570312 C 419.214844 502.707031 419.160156 503.839844 419.050781 504.96875 C 418.9375 506.101562 418.769531 507.222656 418.550781 508.335938 C 418.328125 509.449219 418.054688 510.550781 417.722656 511.636719 C 417.394531 512.722656 417.011719 513.792969 416.578125 514.839844 C 416.144531 515.890625 415.660156 516.914062 415.125 517.917969 C 414.589844 518.917969 414.003906 519.890625 413.375 520.835938 C 412.746094 521.78125 412.070312 522.691406 411.347656 523.570312 C 410.628906 524.449219 409.867188 525.289062 409.066406 526.089844 C 408.261719 526.894531 407.421875 527.65625 406.542969 528.375 C 405.667969 529.097656 404.757812 529.773438 403.8125 530.402344 C 402.867188 531.035156 401.894531 531.617188 400.894531 532.152344 C 399.894531 532.6875 398.871094 533.171875 397.820312 533.609375 C 396.773438 534.042969 395.703125 534.425781 394.617188 534.753906 C 393.53125 535.085938 392.433594 535.359375 391.320312 535.582031 C 390.207031 535.804688 389.085938 535.96875 387.953125 536.082031 C 386.824219 536.191406 385.691406 536.246094 384.558594 536.246094 C 383.421875 536.246094 382.289062 536.191406 381.160156 536.082031 C 380.03125 535.96875 378.910156 535.804688 377.796875 535.582031 C 376.683594 535.359375 375.582031 535.085938 374.496094 534.753906 C 373.410156 534.425781 372.34375 534.042969 371.292969 533.609375 C 370.246094 533.171875 369.21875 532.6875 368.21875 532.152344 C 367.21875 531.617188 366.246094 531.035156 365.300781 530.402344 C 364.359375 529.773438 363.449219 529.097656 362.570312 528.375 C 361.691406 527.65625 360.851562 526.894531 360.050781 526.089844 C 359.246094 525.289062 358.484375 524.449219 357.765625 523.570312 C 357.046875 522.691406 356.371094 521.78125 355.738281 520.835938 C 355.109375 519.890625 354.527344 518.917969 353.992188 517.917969 C 353.457031 516.914062 352.972656 515.890625 352.535156 514.839844 C 352.101562 513.792969 351.71875 512.722656 351.390625 511.636719 C 351.0625 510.550781 350.785156 509.449219 350.566406 508.335938 C 350.34375 507.222656 350.175781 506.101562 350.066406 504.96875 C 349.953125 503.839844 349.898438 502.707031 349.898438 501.570312 C 349.898438 500.433594 349.953125 499.300781 350.066406 498.171875 C 350.175781 497.042969 350.34375 495.917969 350.566406 494.804688 C 350.785156 493.691406 351.0625 492.589844 351.390625 491.503906 C 351.71875 490.417969 352.101562 489.347656 352.535156 488.300781 C 352.972656 487.25 353.457031 486.226562 353.992188 485.222656 C 354.527344 484.222656 355.109375 483.25 355.738281 482.304688 C 356.371094 481.359375 357.046875 480.449219 357.765625 479.570312 C 358.484375 478.695312 359.246094 477.851562 360.050781 477.050781 C 360.851562 476.246094 361.691406 475.484375 362.570312 474.765625 C 363.449219 474.042969 364.359375 473.367188 365.300781 472.738281 C 366.246094 472.105469 367.21875 471.523438 368.21875 470.988281 C 369.21875 470.453125 370.246094 469.96875 371.292969 469.53125 C 372.34375 469.097656 373.410156 468.714844 374.496094 468.386719 C 375.582031 468.058594 376.683594 467.78125 377.796875 467.558594 C 378.910156 467.339844 380.03125 467.171875 381.160156 467.058594 C 382.289062 466.949219 383.421875 466.894531 384.558594 466.894531 C 385.691406 466.894531 386.824219 466.949219 387.953125 467.058594 C 389.085938 467.171875 390.207031 467.339844 391.320312 467.558594 C 392.433594 467.78125 393.53125 468.058594 394.617188 468.386719 C 395.703125 468.714844 396.773438 469.097656 397.820312 469.53125 C 398.871094 469.96875 399.894531 470.453125 400.894531 470.988281 C 401.894531 471.523438 402.867188 472.105469 403.8125 472.738281 C 404.757812 473.367188 405.667969 474.042969 406.542969 474.765625 C 407.421875 475.484375 408.261719 476.246094 409.066406 477.050781 C 409.867188 477.851562 410.628906 478.695312 411.347656 479.570312 C 412.070312 480.449219 412.746094 481.359375 413.375 482.304688 C 414.003906 483.25 414.589844 484.222656 415.125 485.222656 C 415.660156 486.226562 416.144531 487.25 416.578125 488.300781 C 417.011719 489.347656 417.394531 490.417969 417.722656 491.503906 C 418.054688 492.589844 418.328125 493.691406 418.550781 494.804688 C 418.769531 495.917969 418.9375 497.042969 419.050781 498.171875 C 419.160156 499.300781 419.214844 500.433594 419.214844 501.570312 Z M 419.214844 501.570312 " fill-opacity="1" fill-rule="nonzero"/><g clip-path="url(#9ef547f234)"><path fill="#5e6175" d="M 384.558594 537.855469 C 383.367188 537.855469 382.183594 537.796875 381 537.679688 C 379.816406 537.5625 378.644531 537.390625 377.476562 537.15625 C 376.3125 536.925781 375.160156 536.636719 374.023438 536.292969 C 372.882812 535.949219 371.765625 535.546875 370.667969 535.09375 C 369.570312 534.636719 368.496094 534.128906 367.449219 533.570312 C 366.402344 533.011719 365.382812 532.398438 364.394531 531.738281 C 363.40625 531.078125 362.453125 530.371094 361.535156 529.617188 C 360.613281 528.863281 359.734375 528.066406 358.894531 527.226562 C 358.054688 526.386719 357.257812 525.507812 356.503906 524.589844 C 355.75 523.671875 355.042969 522.71875 354.378906 521.730469 C 353.71875 520.742188 353.109375 519.722656 352.550781 518.675781 C 351.988281 517.625 351.480469 516.554688 351.027344 515.457031 C 350.570312 514.359375 350.171875 513.242188 349.828125 512.101562 C 349.480469 510.964844 349.195312 509.816406 348.960938 508.648438 C 348.730469 507.484375 348.554688 506.308594 348.4375 505.128906 C 348.324219 503.945312 348.265625 502.757812 348.265625 501.570312 C 348.265625 500.382812 348.324219 499.195312 348.4375 498.015625 C 348.554688 496.832031 348.730469 495.65625 348.960938 494.492188 C 349.195312 493.328125 349.480469 492.175781 349.828125 491.039062 C 350.171875 489.902344 350.570312 488.78125 351.027344 487.683594 C 351.480469 486.585938 351.988281 485.515625 352.550781 484.464844 C 353.109375 483.417969 353.71875 482.398438 354.378906 481.414062 C 355.042969 480.425781 355.75 479.472656 356.503906 478.550781 C 357.257812 477.632812 358.054688 476.753906 358.894531 475.914062 C 359.734375 475.074219 360.613281 474.277344 361.535156 473.523438 C 362.453125 472.769531 363.40625 472.0625 364.394531 471.402344 C 365.382812 470.742188 366.402344 470.132812 367.449219 469.570312 C 368.496094 469.011719 369.570312 468.503906 370.667969 468.046875 C 371.765625 467.59375 372.882812 467.195312 374.023438 466.847656 C 375.160156 466.503906 376.3125 466.214844 377.476562 465.984375 C 378.644531 465.75 379.816406 465.578125 381 465.460938 C 382.183594 465.34375 383.367188 465.285156 384.558594 465.285156 C 385.746094 465.285156 386.933594 465.34375 388.113281 465.460938 C 389.296875 465.578125 390.472656 465.75 391.636719 465.984375 C 392.804688 466.214844 393.953125 466.503906 395.09375 466.847656 C 396.230469 467.195312 397.347656 467.59375 398.445312 468.046875 C 399.542969 468.503906 400.617188 469.011719 401.664062 469.570312 C 402.714844 470.132812 403.730469 470.742188 404.71875 471.402344 C 405.707031 472.0625 406.664062 472.769531 407.582031 473.523438 C 408.5 474.277344 409.378906 475.074219 410.21875 475.914062 C 411.0625 476.753906 411.859375 477.632812 412.613281 478.550781 C 413.367188 479.472656 414.074219 480.425781 414.734375 481.414062 C 415.394531 482.398438 416.003906 483.417969 416.566406 484.464844 C 417.125 485.515625 417.632812 486.585938 418.085938 487.683594 C 418.542969 488.78125 418.941406 489.902344 419.289062 491.039062 C 419.632812 492.175781 419.921875 493.328125 420.152344 494.492188 C 420.382812 495.65625 420.558594 496.832031 420.675781 498.015625 C 420.792969 499.195312 420.851562 500.382812 420.851562 501.570312 C 420.847656 502.757812 420.789062 503.945312 420.671875 505.125 C 420.554688 506.308594 420.378906 507.480469 420.148438 508.648438 C 419.914062 509.8125 419.625 510.964844 419.28125 512.101562 C 418.9375 513.238281 418.535156 514.355469 418.082031 515.453125 C 417.625 516.550781 417.117188 517.621094 416.558594 518.667969 C 415.996094 519.71875 415.386719 520.734375 414.726562 521.722656 C 414.066406 522.710938 413.359375 523.664062 412.605469 524.582031 C 411.851562 525.5 411.050781 526.378906 410.210938 527.21875 C 409.371094 528.058594 408.492188 528.855469 407.574219 529.609375 C 406.65625 530.363281 405.703125 531.070312 404.714844 531.730469 C 403.726562 532.390625 402.707031 533.003906 401.660156 533.5625 C 400.613281 534.121094 399.539062 534.628906 398.441406 535.085938 C 397.34375 535.539062 396.226562 535.941406 395.089844 536.285156 C 393.953125 536.632812 392.800781 536.921875 391.636719 537.152344 C 390.46875 537.386719 389.296875 537.558594 388.113281 537.675781 C 386.929688 537.792969 385.746094 537.855469 384.558594 537.855469 Z M 384.558594 468.523438 C 383.476562 468.523438 382.394531 468.574219 381.316406 468.679688 C 380.238281 468.789062 379.171875 468.945312 378.109375 469.15625 C 377.046875 469.367188 375.996094 469.628906 374.960938 469.945312 C 373.925781 470.257812 372.90625 470.625 371.90625 471.039062 C 370.90625 471.453125 369.929688 471.914062 368.972656 472.425781 C 368.019531 472.933594 367.09375 473.492188 366.191406 474.089844 C 365.292969 474.691406 364.421875 475.335938 363.585938 476.023438 C 362.75 476.710938 361.949219 477.4375 361.183594 478.203125 C 360.417969 478.96875 359.691406 479.769531 359.003906 480.605469 C 358.316406 481.441406 357.671875 482.308594 357.070312 483.210938 C 356.46875 484.109375 355.914062 485.035156 355.402344 485.992188 C 354.894531 486.945312 354.429688 487.921875 354.015625 488.921875 C 353.601562 489.921875 353.238281 490.941406 352.925781 491.976562 C 352.609375 493.011719 352.347656 494.0625 352.136719 495.125 C 351.925781 496.183594 351.765625 497.253906 351.660156 498.332031 C 351.554688 499.410156 351.5 500.488281 351.5 501.570312 C 351.5 502.652344 351.554688 503.734375 351.660156 504.808594 C 351.765625 505.886719 351.925781 506.957031 352.136719 508.019531 C 352.347656 509.078125 352.609375 510.128906 352.925781 511.164062 C 353.238281 512.199219 353.601562 513.21875 354.015625 514.21875 C 354.429688 515.21875 354.894531 516.195312 355.402344 517.148438 C 355.914062 518.105469 356.46875 519.03125 357.070312 519.929688 C 357.671875 520.832031 358.316406 521.699219 359.003906 522.535156 C 359.691406 523.375 360.417969 524.175781 361.183594 524.941406 C 361.949219 525.703125 362.75 526.429688 363.585938 527.117188 C 364.421875 527.804688 365.292969 528.449219 366.191406 529.050781 C 367.09375 529.652344 368.019531 530.207031 368.972656 530.71875 C 369.929688 531.226562 370.90625 531.6875 371.90625 532.105469 C 372.90625 532.519531 373.925781 532.882812 374.960938 533.195312 C 375.996094 533.511719 377.046875 533.773438 378.109375 533.984375 C 379.171875 534.195312 380.238281 534.355469 381.316406 534.460938 C 382.394531 534.566406 383.476562 534.621094 384.558594 534.621094 C 385.640625 534.621094 386.71875 534.566406 387.796875 534.460938 C 388.875 534.355469 389.945312 534.195312 391.007812 533.984375 C 392.066406 533.773438 393.117188 533.511719 394.152344 533.195312 C 395.1875 532.882812 396.207031 532.519531 397.207031 532.105469 C 398.207031 531.6875 399.183594 531.226562 400.140625 530.71875 C 401.09375 530.207031 402.023438 529.652344 402.921875 529.050781 C 403.824219 528.449219 404.691406 527.804688 405.527344 527.117188 C 406.363281 526.429688 407.167969 525.703125 407.933594 524.941406 C 408.699219 524.175781 409.421875 523.375 410.109375 522.535156 C 410.796875 521.699219 411.441406 520.832031 412.042969 519.929688 C 412.644531 519.03125 413.199219 518.105469 413.710938 517.148438 C 414.222656 516.195312 414.683594 515.21875 415.097656 514.21875 C 415.511719 513.21875 415.875 512.199219 416.191406 511.164062 C 416.503906 510.128906 416.769531 509.078125 416.980469 508.019531 C 417.191406 506.957031 417.347656 505.886719 417.453125 504.808594 C 417.5625 503.734375 417.613281 502.652344 417.613281 501.570312 C 417.613281 500.488281 417.558594 499.410156 417.453125 498.332031 C 417.347656 497.253906 417.1875 496.1875 416.976562 495.125 C 416.761719 494.0625 416.5 493.015625 416.1875 491.980469 C 415.871094 490.945312 415.507812 489.925781 415.09375 488.925781 C 414.675781 487.925781 414.214844 486.949219 413.703125 485.996094 C 413.195312 485.042969 412.636719 484.113281 412.035156 483.214844 C 411.433594 482.316406 410.789062 481.445312 410.105469 480.609375 C 409.417969 479.773438 408.691406 478.972656 407.925781 478.207031 C 407.160156 477.441406 406.359375 476.714844 405.523438 476.03125 C 404.6875 475.34375 403.816406 474.699219 402.917969 474.097656 C 402.015625 473.496094 401.089844 472.941406 400.136719 472.429688 C 399.179688 471.921875 398.203125 471.457031 397.203125 471.042969 C 396.203125 470.628906 395.1875 470.265625 394.152344 469.949219 C 393.113281 469.636719 392.066406 469.371094 391.003906 469.160156 C 389.941406 468.949219 388.875 468.789062 387.796875 468.683594 C 386.71875 468.578125 385.640625 468.523438 384.558594 468.523438 Z M 384.558594 468.523438 " fill-opacity="1" fill-rule="nonzero"/></g><path fill="#5e6175" d="M 289.339844 499.785156 C 289.339844 500.1875 289.300781 500.582031 289.222656 500.976562 C 289.144531 501.367188 289.03125 501.75 288.875 502.121094 C 288.722656 502.488281 288.535156 502.839844 288.3125 503.175781 C 288.089844 503.507812 287.835938 503.816406 287.554688 504.097656 C 287.269531 504.382812 286.960938 504.632812 286.628906 504.855469 C 286.296875 505.078125 285.945312 505.265625 285.574219 505.421875 C 285.203125 505.574219 284.824219 505.6875 284.429688 505.765625 C 284.039062 505.84375 283.640625 505.882812 283.242188 505.882812 C 282.839844 505.882812 282.441406 505.84375 282.050781 505.765625 C 281.65625 505.6875 281.277344 505.574219 280.90625 505.421875 C 280.535156 505.265625 280.183594 505.078125 279.851562 504.855469 C 279.519531 504.632812 279.210938 504.382812 278.925781 504.097656 C 278.644531 503.816406 278.390625 503.507812 278.167969 503.175781 C 277.945312 502.839844 277.757812 502.488281 277.605469 502.121094 C 277.453125 501.75 277.335938 501.367188 277.257812 500.976562 C 277.179688 500.582031 277.140625 500.1875 277.140625 499.785156 C 277.140625 499.386719 277.179688 498.988281 277.257812 498.597656 C 277.335938 498.203125 277.453125 497.820312 277.605469 497.453125 C 277.757812 497.082031 277.945312 496.730469 278.167969 496.398438 C 278.390625 496.066406 278.644531 495.757812 278.925781 495.472656 C 279.210938 495.191406 279.519531 494.9375 279.851562 494.714844 C 280.183594 494.492188 280.535156 494.304688 280.90625 494.152344 C 281.277344 494 281.65625 493.882812 282.050781 493.804688 C 282.441406 493.726562 282.839844 493.6875 283.242188 493.6875 C 283.640625 493.6875 284.039062 493.726562 284.429688 493.804688 C 284.824219 493.882812 285.203125 494 285.574219 494.152344 C 285.945312 494.304688 286.296875 494.492188 286.628906 494.714844 C 286.960938 494.9375 287.269531 495.191406 287.554688 495.472656 C 287.835938 495.757812 288.089844 496.066406 288.3125 496.398438 C 288.535156 496.730469 288.722656 497.082031 288.875 497.453125 C 289.03125 497.820312 289.144531 498.203125 289.222656 498.597656 C 289.300781 498.988281 289.339844 499.386719 289.339844 499.785156 Z M 289.339844 499.785156 " fill-opacity="1" fill-rule="nonzero"/><g clip-path="url(#8bcbf72218)"><path stroke-linecap="butt" transform="matrix(0.53935, 0, 0, 0.539219, 162.501578, 304.998265)" fill="none" stroke-linejoin="miter" d="M 392.07074 344.743596 C 390.723632 346.091031 389.521374 347.561618 388.463967 349.155358 C 387.406559 350.741853 386.51573 352.422524 385.784235 354.190126 C 385.059984 355.950484 384.509552 357.77604 384.140184 359.645062 C 383.770816 361.521329 383.589753 363.412083 383.589753 365.324571 C 383.589753 367.229814 383.785301 369.120569 384.154669 370.996835 C 384.53128 372.865857 385.088954 374.684169 385.820448 376.444527 C 386.551942 378.21213 387.450014 379.885556 388.514664 381.472052 C 389.572072 383.058547 390.781572 384.529134 392.12868 385.876569 C 393.483031 387.224003 394.953262 388.433796 396.539373 389.49146 C 398.132727 390.549123 399.805749 391.447413 401.572923 392.179084 C 403.332854 392.903512 405.150726 393.454076 407.026538 393.830778 C 408.90235 394.200236 410.792647 394.388587 412.697429 394.388587 C 414.609454 394.388587 416.499751 394.200236 418.375563 393.830778 C 420.244132 393.454076 422.062004 392.903512 423.829178 392.179084 C 425.596352 391.447413 427.269374 390.549123 428.862727 389.49146 C 430.448839 388.433796 431.91907 387.224003 433.266178 385.876569 C 434.620528 384.529134 435.830029 383.058547 436.887436 381.472052 C 437.952086 379.885556 438.850158 378.21213 439.581653 376.444527 C 440.313147 374.684169 440.870821 372.865857 441.240189 370.996835 C 441.6168 369.120569 441.805105 367.229814 441.812348 365.324571 C 441.812348 363.412083 441.631285 361.521329 441.261917 359.645062 C 440.892548 357.77604 440.342117 355.950484 439.617865 354.190126 C 438.886371 352.422524 437.995541 350.741853 436.938134 349.155358 C 435.880726 347.561618 434.678469 346.091031 433.33136 344.743596 " stroke="#e1830e" stroke-width="15" stroke-opacity="1" stroke-miterlimit="10"/></g><path stroke-linecap="butt" transform="matrix(0.53935, 0, 0, 0.539219, 162.501578, 304.998265)" fill="none" stroke-linejoin="miter" d="M 412.697429 361.238802 L 412.697429 326.698117 " stroke="#e1830e" stroke-width="15" stroke-opacity="1" stroke-miterlimit="10"/><path fill="#f5f5f5" d="M 225.09375 358.433594 L 340.324219 358.433594 C 340.902344 358.433594 341.476562 358.492188 342.042969 358.605469 C 342.609375 358.714844 343.160156 358.882812 343.695312 359.105469 C 344.226562 359.324219 344.734375 359.597656 345.214844 359.917969 C 345.695312 360.238281 346.140625 360.605469 346.550781 361.011719 C 346.957031 361.421875 347.324219 361.867188 347.644531 362.347656 C 347.964844 362.828125 348.234375 363.332031 348.457031 363.867188 C 348.679688 364.402344 348.84375 364.953125 348.957031 365.519531 C 349.070312 366.085938 349.128906 366.65625 349.128906 367.234375 L 349.128906 458.105469 C 349.128906 458.683594 349.070312 459.253906 348.957031 459.820312 C 348.84375 460.386719 348.679688 460.9375 348.457031 461.472656 C 348.234375 462.003906 347.964844 462.511719 347.644531 462.992188 C 347.324219 463.472656 346.957031 463.917969 346.550781 464.328125 C 346.140625 464.734375 345.695312 465.101562 345.214844 465.421875 C 344.734375 465.742188 344.226562 466.011719 343.695312 466.234375 C 343.160156 466.457031 342.609375 466.621094 342.042969 466.734375 C 341.476562 466.847656 340.902344 466.902344 340.324219 466.902344 L 225.09375 466.902344 C 224.515625 466.902344 223.941406 466.847656 223.375 466.734375 C 222.808594 466.621094 222.257812 466.457031 221.726562 466.234375 C 221.191406 466.011719 220.683594 465.742188 220.203125 465.421875 C 219.722656 465.101562 219.277344 464.734375 218.867188 464.328125 C 218.460938 463.917969 218.09375 463.472656 217.773438 462.992188 C 217.453125 462.511719 217.183594 462.003906 216.960938 461.472656 C 216.738281 460.9375 216.574219 460.386719 216.460938 459.820312 C 216.347656 459.253906 216.289062 458.683594 216.289062 458.105469 L 216.289062 367.234375 C 216.289062 366.65625 216.347656 366.085938 216.460938 365.519531 C 216.574219 364.953125 216.738281 364.402344 216.960938 363.867188 C 217.183594 363.332031 217.453125 362.828125 217.773438 362.347656 C 218.09375 361.867188 218.460938 361.421875 218.867188 361.011719 C 219.277344 360.605469 219.722656 360.238281 220.203125 359.917969 C 220.683594 359.597656 221.191406 359.324219 221.726562 359.105469 C 222.257812 358.882812 222.808594 358.714844 223.375 358.605469 C 223.941406 358.492188 224.515625 358.433594 225.09375 358.433594 Z M 225.09375 358.433594 " fill-opacity="1" fill-rule="nonzero"/><path fill="#5e6175" d="M 340.324219 468.523438 L 225.066406 468.523438 C 224.382812 468.519531 223.707031 468.453125 223.035156 468.320312 C 222.363281 468.183594 221.714844 467.988281 221.082031 467.722656 C 220.449219 467.460938 219.851562 467.140625 219.28125 466.761719 C 218.714844 466.382812 218.1875 465.949219 217.703125 465.464844 C 217.222656 464.980469 216.789062 464.457031 216.410156 463.886719 C 216.03125 463.320312 215.707031 462.71875 215.445312 462.089844 C 215.183594 461.457031 214.988281 460.804688 214.851562 460.136719 C 214.71875 459.464844 214.652344 458.789062 214.652344 458.105469 L 214.652344 367.234375 C 214.652344 366.550781 214.71875 365.875 214.851562 365.203125 C 214.984375 364.53125 215.183594 363.882812 215.445312 363.25 C 215.707031 362.617188 216.027344 362.019531 216.40625 361.449219 C 216.789062 360.882812 217.21875 360.355469 217.703125 359.871094 C 218.1875 359.386719 218.710938 358.957031 219.28125 358.578125 C 219.847656 358.195312 220.449219 357.875 221.082031 357.613281 C 221.710938 357.351562 222.363281 357.152344 223.035156 357.019531 C 223.703125 356.886719 224.382812 356.816406 225.066406 356.816406 L 340.324219 356.816406 C 341.007812 356.820312 341.6875 356.886719 342.355469 357.019531 C 343.027344 357.15625 343.675781 357.355469 344.308594 357.617188 C 344.9375 357.878906 345.539062 358.199219 346.105469 358.578125 C 346.675781 358.960938 347.199219 359.390625 347.683594 359.875 C 348.167969 360.359375 348.597656 360.886719 348.976562 361.453125 C 349.355469 362.019531 349.679688 362.621094 349.941406 363.253906 C 350.203125 363.882812 350.398438 364.535156 350.53125 365.203125 C 350.667969 365.875 350.734375 366.550781 350.734375 367.234375 L 350.734375 458.105469 C 350.734375 458.789062 350.667969 459.464844 350.53125 460.132812 C 350.398438 460.804688 350.199219 461.453125 349.9375 462.085938 C 349.675781 462.71875 349.355469 463.316406 348.976562 463.882812 C 348.597656 464.453125 348.164062 464.980469 347.683594 465.460938 C 347.199219 465.945312 346.671875 466.378906 346.105469 466.757812 C 345.539062 467.136719 344.9375 467.460938 344.308594 467.722656 C 343.675781 467.984375 343.027344 468.183594 342.355469 468.316406 C 341.683594 468.453125 341.007812 468.519531 340.324219 468.523438 Z M 225.066406 360.050781 C 224.59375 360.054688 224.128906 360.101562 223.664062 360.191406 C 223.203125 360.285156 222.753906 360.421875 222.320312 360.601562 C 221.882812 360.78125 221.46875 361.003906 221.078125 361.265625 C 220.6875 361.527344 220.324219 361.828125 219.992188 362.160156 C 219.65625 362.492188 219.359375 362.855469 219.097656 363.246094 C 218.835938 363.640625 218.617188 364.054688 218.433594 364.488281 C 218.253906 364.921875 218.117188 365.371094 218.027344 365.835938 C 217.933594 366.296875 217.886719 366.761719 217.886719 367.234375 L 217.886719 458.105469 C 217.886719 458.574219 217.933594 459.042969 218.027344 459.503906 C 218.117188 459.964844 218.253906 460.414062 218.433594 460.851562 C 218.617188 461.285156 218.835938 461.699219 219.097656 462.089844 C 219.359375 462.484375 219.65625 462.847656 219.992188 463.179688 C 220.324219 463.511719 220.6875 463.808594 221.078125 464.074219 C 221.46875 464.335938 221.882812 464.554688 222.320312 464.738281 C 222.753906 464.917969 223.203125 465.054688 223.664062 465.148438 C 224.128906 465.238281 224.59375 465.285156 225.066406 465.285156 L 340.324219 465.285156 C 340.796875 465.285156 341.261719 465.238281 341.722656 465.144531 C 342.1875 465.050781 342.632812 464.914062 343.070312 464.734375 C 343.503906 464.554688 343.917969 464.332031 344.308594 464.070312 C 344.699219 463.808594 345.0625 463.507812 345.394531 463.175781 C 345.726562 462.84375 346.023438 462.480469 346.285156 462.089844 C 346.546875 461.695312 346.769531 461.285156 346.949219 460.847656 C 347.128906 460.414062 347.265625 459.964844 347.359375 459.503906 C 347.453125 459.042969 347.496094 458.574219 347.5 458.105469 L 347.5 367.234375 C 347.5 366.765625 347.453125 366.296875 347.359375 365.835938 C 347.269531 365.375 347.132812 364.925781 346.953125 364.488281 C 346.769531 364.054688 346.550781 363.640625 346.289062 363.25 C 346.027344 362.859375 345.730469 362.496094 345.398438 362.160156 C 345.0625 361.828125 344.703125 361.53125 344.308594 361.269531 C 343.917969 361.007812 343.503906 360.785156 343.070312 360.605469 C 342.636719 360.421875 342.1875 360.285156 341.726562 360.191406 C 341.261719 360.101562 340.796875 360.054688 340.324219 360.050781 Z M 225.066406 360.050781 " fill-opacity="1" fill-rule="nonzero"/><path fill="#5e6175" d="M 349.117188 367.234375 L 349.117188 377.960938 L 216.289062 377.960938 L 216.289062 367.234375 C 216.289062 366.65625 216.347656 366.085938 216.457031 365.519531 C 216.570312 364.953125 216.734375 364.40625 216.957031 363.871094 C 217.175781 363.339844 217.445312 362.832031 217.765625 362.351562 C 218.085938 361.871094 218.449219 361.425781 218.855469 361.019531 C 219.265625 360.609375 219.707031 360.246094 220.1875 359.925781 C 220.664062 359.601562 221.171875 359.332031 221.703125 359.109375 C 222.238281 358.886719 222.785156 358.71875 223.351562 358.605469 C 223.917969 358.492188 224.488281 358.4375 225.066406 358.433594 L 340.324219 358.433594 C 340.902344 358.4375 341.472656 358.492188 342.039062 358.605469 C 342.605469 358.71875 343.15625 358.886719 343.691406 359.109375 C 344.222656 359.328125 344.730469 359.601562 345.210938 359.921875 C 345.691406 360.242188 346.132812 360.609375 346.542969 361.015625 C 346.949219 361.425781 347.316406 361.867188 347.636719 362.347656 C 347.957031 362.828125 348.226562 363.335938 348.449219 363.871094 C 348.667969 364.402344 348.835938 364.953125 348.949219 365.519531 C 349.058594 366.085938 349.117188 366.65625 349.117188 367.234375 Z M 349.117188 367.234375 " fill-opacity="1" fill-rule="nonzero"/><path fill="#f5f5f5" d="M 230.425781 368.195312 C 230.425781 368.632812 230.34375 369.050781 230.175781 369.457031 C 230.007812 369.859375 229.769531 370.214844 229.460938 370.523438 C 229.152344 370.832031 228.796875 371.070312 228.394531 371.238281 C 227.988281 371.40625 227.570312 371.488281 227.132812 371.488281 C 226.695312 371.488281 226.273438 371.40625 225.871094 371.238281 C 225.46875 371.070312 225.109375 370.832031 224.800781 370.523438 C 224.492188 370.214844 224.253906 369.859375 224.085938 369.457031 C 223.921875 369.050781 223.835938 368.632812 223.835938 368.195312 C 223.835938 367.757812 223.921875 367.335938 224.085938 366.933594 C 224.253906 366.53125 224.492188 366.175781 224.800781 365.863281 C 225.109375 365.554688 225.46875 365.316406 225.871094 365.152344 C 226.273438 364.984375 226.695312 364.898438 227.132812 364.898438 C 227.570312 364.898438 227.988281 364.984375 228.394531 365.152344 C 228.796875 365.316406 229.152344 365.554688 229.460938 365.863281 C 229.769531 366.175781 230.007812 366.53125 230.175781 366.933594 C 230.34375 367.335938 230.425781 367.757812 230.425781 368.195312 Z M 230.425781 368.195312 " fill-opacity="1" fill-rule="nonzero"/><path fill="#f5f5f5" d="M 243.089844 368.195312 C 243.089844 368.632812 243.007812 369.050781 242.839844 369.457031 C 242.671875 369.859375 242.433594 370.214844 242.125 370.523438 C 241.816406 370.832031 241.460938 371.070312 241.058594 371.238281 C 240.652344 371.40625 240.234375 371.488281 239.796875 371.488281 C 239.359375 371.488281 238.9375 371.40625 238.535156 371.238281 C 238.132812 371.070312 237.773438 370.832031 237.464844 370.523438 C 237.15625 370.214844 236.917969 369.859375 236.75 369.457031 C 236.582031 369.050781 236.5 368.632812 236.5 368.195312 C 236.5 367.757812 236.582031 367.335938 236.75 366.933594 C 236.917969 366.53125 237.15625 366.175781 237.464844 365.863281 C 237.773438 365.554688 238.132812 365.316406 238.535156 365.152344 C 238.9375 364.984375 239.359375 364.898438 239.796875 364.898438 C 240.234375 364.898438 240.652344 364.984375 241.058594 365.152344 C 241.460938 365.316406 241.816406 365.554688 242.125 365.863281 C 242.433594 366.175781 242.671875 366.53125 242.839844 366.933594 C 243.007812 367.335938 243.089844 367.757812 243.089844 368.195312 Z M 243.089844 368.195312 " fill-opacity="1" fill-rule="nonzero"/><path fill="#e1830e" d="M 293.890625 452.996094 L 310.34375 452.996094 C 310.671875 452.996094 310.996094 452.964844 311.316406 452.902344 C 311.636719 452.839844 311.949219 452.742188 312.25 452.617188 C 312.554688 452.492188 312.84375 452.339844 313.113281 452.15625 C 313.386719 451.976562 313.640625 451.769531 313.871094 451.535156 C 314.101562 451.304688 314.308594 451.054688 314.492188 450.78125 C 314.671875 450.507812 314.828125 450.222656 314.953125 449.917969 C 315.078125 449.617188 315.171875 449.304688 315.234375 448.984375 C 315.300781 448.660156 315.332031 448.335938 315.332031 448.011719 C 315.332031 447.683594 315.300781 447.359375 315.234375 447.035156 C 315.171875 446.714844 315.078125 446.402344 314.953125 446.101562 C 314.828125 445.796875 314.671875 445.511719 314.492188 445.238281 C 314.308594 444.964844 314.101562 444.714844 313.871094 444.484375 C 313.640625 444.25 313.386719 444.042969 313.113281 443.863281 C 312.84375 443.679688 312.554688 443.527344 312.25 443.402344 C 311.949219 443.277344 311.636719 443.183594 311.316406 443.117188 C 310.996094 443.054688 310.671875 443.023438 310.34375 443.023438 L 293.890625 443.023438 C 293.566406 443.023438 293.242188 443.054688 292.917969 443.117188 C 292.597656 443.183594 292.285156 443.277344 291.984375 443.402344 C 291.679688 443.527344 291.394531 443.679688 291.121094 443.863281 C 290.847656 444.042969 290.597656 444.25 290.363281 444.484375 C 290.132812 444.714844 289.925781 444.964844 289.746094 445.238281 C 289.5625 445.511719 289.410156 445.796875 289.285156 446.101562 C 289.15625 446.402344 289.0625 446.714844 289 447.035156 C 288.933594 447.359375 288.902344 447.683594 288.902344 448.011719 C 288.902344 448.335938 288.933594 448.660156 289 448.984375 C 289.0625 449.304688 289.15625 449.617188 289.285156 449.917969 C 289.410156 450.222656 289.5625 450.507812 289.746094 450.78125 C 289.925781 451.054688 290.132812 451.304688 290.363281 451.535156 C 290.597656 451.769531 290.847656 451.976562 291.121094 452.15625 C 291.394531 452.339844 291.679688 452.492188 291.984375 452.617188 C 292.285156 452.742188 292.597656 452.839844 292.917969 452.902344 C 293.242188 452.964844 293.566406 452.996094 293.890625 452.996094 Z M 293.890625 452.996094 " fill-opacity="1" fill-rule="nonzero"/><path fill="#a9afc4" d="M 256.136719 452.996094 L 272.589844 452.996094 C 272.914062 452.996094 273.242188 452.964844 273.5625 452.902344 C 273.882812 452.839844 274.195312 452.742188 274.496094 452.617188 C 274.800781 452.492188 275.085938 452.339844 275.359375 452.15625 C 275.632812 451.976562 275.882812 451.769531 276.117188 451.535156 C 276.347656 451.304688 276.554688 451.054688 276.738281 450.78125 C 276.917969 450.507812 277.070312 450.222656 277.199219 449.917969 C 277.324219 449.617188 277.417969 449.304688 277.480469 448.984375 C 277.546875 448.660156 277.578125 448.335938 277.578125 448.011719 C 277.578125 447.683594 277.546875 447.359375 277.480469 447.035156 C 277.417969 446.714844 277.324219 446.402344 277.199219 446.101562 C 277.070312 445.796875 276.917969 445.511719 276.738281 445.238281 C 276.554688 444.964844 276.347656 444.714844 276.117188 444.484375 C 275.882812 444.25 275.632812 444.042969 275.359375 443.863281 C 275.085938 443.679688 274.800781 443.527344 274.496094 443.402344 C 274.195312 443.277344 273.882812 443.183594 273.5625 443.117188 C 273.242188 443.054688 272.914062 443.023438 272.589844 443.023438 L 256.136719 443.023438 C 255.808594 443.023438 255.484375 443.054688 255.164062 443.117188 C 254.84375 443.183594 254.53125 443.277344 254.230469 443.402344 C 253.925781 443.527344 253.640625 443.679688 253.367188 443.863281 C 253.09375 444.042969 252.84375 444.25 252.609375 444.484375 C 252.378906 444.714844 252.171875 444.964844 251.988281 445.238281 C 251.808594 445.511719 251.652344 445.796875 251.527344 446.101562 C 251.402344 446.402344 251.308594 446.714844 251.246094 447.035156 C 251.179688 447.359375 251.148438 447.683594 251.148438 448.011719 C 251.148438 448.335938 251.179688 448.660156 251.246094 448.984375 C 251.308594 449.304688 251.402344 449.617188 251.527344 449.917969 C 251.652344 450.222656 251.808594 450.507812 251.988281 450.78125 C 252.171875 451.054688 252.378906 451.304688 252.609375 451.535156 C 252.84375 451.769531 253.09375 451.976562 253.367188 452.15625 C 253.640625 452.339844 253.925781 452.492188 254.230469 452.617188 C 254.53125 452.742188 254.84375 452.839844 255.164062 452.902344 C 255.484375 452.964844 255.808594 452.996094 256.136719 452.996094 Z M 256.136719 452.996094 " fill-opacity="1" fill-rule="nonzero"/><path fill="#dee1ec" d="M 269.675781 395.960938 L 292.0625 395.960938 L 292.0625 426.394531 L 269.675781 426.394531 Z M 269.675781 395.960938 " fill-opacity="1" fill-rule="nonzero"/><path fill="#5e6175" d="M 293.683594 428.011719 L 268.058594 428.011719 L 268.058594 394.339844 L 293.683594 394.339844 Z M 271.292969 424.773438 L 290.445312 424.773438 L 290.445312 397.578125 L 271.292969 397.578125 Z M 271.292969 424.773438 " fill-opacity="1" fill-rule="nonzero"/><path fill="#5e6175" d="M 292.0625 395.960938 L 292.0625 426.394531 L 301.054688 430.796875 L 301.054688 391.558594 Z M 292.0625 395.960938 " fill-opacity="1" fill-rule="nonzero"/><path fill="#5e6175" d="M 302.671875 433.390625 L 290.445312 427.402344 L 290.445312 394.949219 L 302.671875 388.964844 Z M 293.683594 425.382812 L 299.4375 428.203125 L 299.4375 394.152344 L 293.683594 396.96875 Z M 293.683594 425.382812 " fill-opacity="1" fill-rule="nonzero"/><path fill="#e1830e" d="M 285.894531 411.175781 L 277.921875 403.835938 L 277.921875 407.585938 L 260.3125 407.585938 L 260.3125 414.519531 L 277.921875 414.519531 L 277.921875 418.515625 Z M 285.894531 411.175781 " fill-opacity="1" fill-rule="nonzero"/><path fill="#5e6175" d="M 351.492188 351.488281 L 358.203125 344.777344 L 360.492188 347.066406 L 353.777344 353.777344 Z M 351.492188 351.488281 " fill-opacity="1" fill-rule="nonzero"/><g clip-path="url(#bb18fa2c65)"><path fill="#5e6175" d="M 343.195312 338.171875 L 346.429688 338.171875 L 346.429688 347.660156 L 343.195312 347.660156 Z M 343.195312 338.171875 " fill-opacity="1" fill-rule="nonzero"/></g><path fill="#5e6175" d="M 357.871094 358.261719 L 367.363281 358.261719 L 367.363281 361.496094 L 357.871094 361.496094 Z M 357.871094 358.261719 " fill-opacity="1" fill-rule="nonzero"/><path fill="#a9afc4" d="M 344.5 484.683594 L 341.261719 484.683594 L 341.261719 481.445312 L 344.5 481.445312 Z M 335.871094 484.683594 L 332.632812 484.683594 L 332.632812 481.445312 L 335.871094 481.445312 Z M 327.242188 484.683594 L 324.003906 484.683594 L 324.003906 481.445312 L 327.242188 481.445312 Z M 318.609375 484.683594 L 315.375 484.683594 L 315.375 481.445312 L 318.609375 481.445312 Z M 309.980469 484.683594 L 306.746094 484.683594 L 306.746094 481.445312 L 309.980469 481.445312 Z M 301.351562 484.683594 L 298.117188 484.683594 L 298.117188 481.445312 L 301.351562 481.445312 Z M 292.722656 484.683594 L 289.484375 484.683594 L 289.484375 481.445312 L 292.722656 481.445312 Z M 284.09375 484.683594 L 280.855469 484.683594 L 280.855469 481.445312 L 284.09375 481.445312 Z M 275.464844 484.683594 L 272.226562 484.683594 L 272.226562 481.445312 L 275.464844 481.445312 Z M 266.832031 484.683594 L 263.597656 484.683594 L 263.597656 481.445312 L 266.832031 481.445312 Z M 266.832031 484.683594 " fill-opacity="1" fill-rule="nonzero"/><path fill="#a9afc4" d="M 263.511719 472.199219 L 266.746094 472.199219 L 266.746094 475.433594 L 263.511719 475.433594 Z M 263.511719 472.199219 " fill-opacity="1" fill-rule="nonzero"/><path fill="#a9afc4" d="M 263.511719 457.824219 L 266.746094 457.824219 L 266.746094 461.058594 L 263.511719 461.058594 Z M 263.511719 457.824219 " fill-opacity="1" fill-rule="nonzero"/><g clip-path="url(#ebcbc0e182)"><path fill="#5e6175" d="M 227.96875 547.90625 C 227.691406 547.90625 227.414062 547.890625 227.140625 547.855469 C 226.867188 547.820312 226.59375 547.769531 226.324219 547.699219 C 226.058594 547.628906 225.796875 547.542969 225.539062 547.441406 C 225.28125 547.339844 225.03125 547.21875 224.789062 547.085938 C 224.546875 546.949219 224.316406 546.800781 224.09375 546.632812 C 223.871094 546.46875 223.660156 546.292969 223.460938 546.097656 C 223.261719 545.90625 223.074219 545.703125 222.902344 545.488281 C 222.726562 545.273438 222.566406 545.046875 222.421875 544.808594 C 222.277344 544.574219 222.152344 544.328125 222.039062 544.078125 C 221.925781 543.824219 221.828125 543.566406 221.75 543.300781 C 221.667969 543.035156 221.605469 542.765625 221.5625 542.492188 C 221.515625 542.21875 221.488281 541.945312 221.476562 541.667969 C 221.46875 541.390625 221.476562 541.113281 221.5 540.839844 C 221.527344 540.5625 221.570312 540.289062 221.628906 540.019531 C 221.691406 539.75 221.769531 539.484375 221.863281 539.222656 C 221.957031 538.964844 222.070312 538.710938 222.195312 538.464844 C 222.324219 538.21875 222.464844 537.980469 222.621094 537.753906 C 222.78125 537.527344 222.953125 537.308594 223.136719 537.105469 C 223.324219 536.898438 223.519531 536.707031 223.730469 536.523438 C 223.941406 536.34375 224.160156 536.179688 224.394531 536.027344 C 224.625 535.875 224.863281 535.738281 225.113281 535.617188 C 225.363281 535.496094 225.617188 535.390625 225.878906 535.304688 C 226.144531 535.214844 226.410156 535.144531 226.683594 535.089844 C 226.953125 535.035156 227.226562 535 227.503906 534.980469 C 227.78125 534.960938 228.054688 534.960938 228.332031 534.976562 C 228.609375 534.992188 228.882812 535.027344 229.15625 535.078125 C 229.425781 535.128906 229.695312 535.199219 229.957031 535.285156 C 230.222656 535.371094 230.476562 535.472656 230.726562 535.59375 C 230.976562 535.710938 231.21875 535.847656 231.453125 535.996094 C 231.683594 536.148438 231.90625 536.3125 232.121094 536.488281 C 232.332031 536.667969 232.53125 536.859375 232.71875 537.0625 C 232.90625 537.265625 233.078125 537.484375 233.238281 537.710938 C 233.578125 538.191406 233.847656 538.714844 234.046875 539.269531 C 234.242188 539.828125 234.363281 540.402344 234.402344 540.992188 C 234.445312 541.582031 234.402344 542.167969 234.285156 542.746094 C 234.164062 543.328125 233.96875 543.878906 233.695312 544.40625 C 233.425781 544.929688 233.085938 545.410156 232.683594 545.84375 C 232.28125 546.277344 231.828125 546.648438 231.320312 546.957031 C 230.816406 547.265625 230.277344 547.5 229.710938 547.660156 C 229.140625 547.820312 228.558594 547.902344 227.96875 547.90625 Z M 227.96875 538.199219 C 227.710938 538.199219 227.460938 538.226562 227.210938 538.285156 C 226.960938 538.339844 226.722656 538.425781 226.492188 538.542969 C 226.265625 538.65625 226.050781 538.796875 225.855469 538.960938 C 225.660156 539.125 225.488281 539.308594 225.335938 539.515625 C 225.183594 539.722656 225.058594 539.941406 224.960938 540.179688 C 224.859375 540.414062 224.789062 540.660156 224.75 540.910156 C 224.707031 541.164062 224.695312 541.417969 224.714844 541.671875 C 224.734375 541.925781 224.78125 542.175781 224.859375 542.417969 C 224.9375 542.664062 225.042969 542.894531 225.175781 543.113281 C 225.308594 543.332031 225.464844 543.53125 225.644531 543.714844 C 225.824219 543.894531 226.023438 544.054688 226.242188 544.1875 C 226.457031 544.320312 226.6875 544.429688 226.929688 544.507812 C 227.175781 544.589844 227.421875 544.640625 227.679688 544.660156 C 227.933594 544.679688 228.1875 544.671875 228.441406 544.632812 C 228.691406 544.59375 228.9375 544.523438 229.175781 544.425781 C 229.410156 544.328125 229.632812 544.207031 229.839844 544.054688 C 230.113281 543.855469 230.347656 543.617188 230.542969 543.339844 C 230.742188 543.066406 230.890625 542.765625 230.992188 542.445312 C 231.097656 542.121094 231.148438 541.792969 231.148438 541.453125 C 231.148438 541.117188 231.097656 540.785156 230.992188 540.464844 C 230.886719 540.140625 230.738281 539.84375 230.539062 539.566406 C 230.34375 539.292969 230.109375 539.054688 229.835938 538.855469 C 229.5625 538.652344 229.265625 538.5 228.945312 538.390625 C 228.625 538.28125 228.296875 538.226562 227.957031 538.222656 Z M 227.96875 538.199219 " fill-opacity="1" fill-rule="nonzero"/></g><path fill="#5e6175" d="M 198.332031 533.652344 C 198.113281 533.65625 197.898438 533.644531 197.6875 533.617188 C 197.472656 533.589844 197.261719 533.550781 197.050781 533.496094 C 196.84375 533.445312 196.636719 533.378906 196.4375 533.296875 C 196.238281 533.21875 196.042969 533.125 195.855469 533.019531 C 195.667969 532.917969 195.484375 532.800781 195.3125 532.671875 C 195.136719 532.542969 194.972656 532.40625 194.816406 532.257812 C 194.660156 532.109375 194.515625 531.949219 194.378906 531.78125 C 194.246094 531.613281 194.121094 531.4375 194.007812 531.253906 C 193.894531 531.070312 193.792969 530.882812 193.707031 530.683594 C 193.617188 530.488281 193.542969 530.285156 193.480469 530.082031 C 193.417969 529.875 193.367188 529.664062 193.332031 529.453125 C 193.296875 529.238281 193.273438 529.027344 193.265625 528.808594 C 193.257812 528.59375 193.261719 528.378906 193.28125 528.164062 C 193.300781 527.949219 193.335938 527.738281 193.382812 527.527344 C 193.429688 527.316406 193.488281 527.109375 193.5625 526.90625 C 193.632812 526.703125 193.71875 526.507812 193.820312 526.316406 C 193.917969 526.125 194.027344 525.941406 194.148438 525.761719 C 194.273438 525.585938 194.40625 525.414062 194.550781 525.253906 C 194.695312 525.09375 194.847656 524.945312 195.011719 524.804688 C 195.175781 524.664062 195.34375 524.53125 195.527344 524.414062 C 195.707031 524.296875 195.890625 524.1875 196.085938 524.09375 C 196.28125 524 196.480469 523.917969 196.683594 523.847656 C 196.886719 523.777344 197.09375 523.722656 197.304688 523.679688 C 197.519531 523.636719 197.730469 523.609375 197.945312 523.59375 C 198.160156 523.578125 198.375 523.578125 198.589844 523.589844 C 198.808594 523.601562 199.019531 523.628906 199.230469 523.667969 C 199.445312 523.707031 199.652344 523.761719 199.859375 523.828125 C 200.0625 523.894531 200.261719 523.976562 200.457031 524.066406 C 200.652344 524.160156 200.839844 524.265625 201.023438 524.378906 C 201.203125 524.496094 201.375 524.625 201.542969 524.761719 C 201.707031 524.902344 201.863281 525.050781 202.007812 525.210938 C 202.152344 525.367188 202.289062 525.535156 202.414062 525.710938 C 202.679688 526.085938 202.890625 526.492188 203.046875 526.925781 C 203.203125 527.359375 203.296875 527.804688 203.328125 528.265625 C 203.363281 528.722656 203.332031 529.179688 203.238281 529.632812 C 203.148438 530.082031 202.996094 530.511719 202.785156 530.921875 C 202.574219 531.332031 202.3125 531.707031 202 532.042969 C 201.6875 532.382812 201.332031 532.671875 200.941406 532.910156 C 200.546875 533.152344 200.128906 533.335938 199.6875 533.460938 C 199.242188 533.589844 198.792969 533.652344 198.332031 533.652344 Z M 198.332031 526.820312 C 198.1875 526.820312 198.046875 526.839844 197.910156 526.871094 C 197.773438 526.902344 197.640625 526.953125 197.511719 527.015625 C 197.386719 527.078125 197.269531 527.15625 197.160156 527.25 C 197.054688 527.339844 196.957031 527.445312 196.875 527.558594 C 196.789062 527.671875 196.71875 527.796875 196.664062 527.925781 C 196.609375 528.058594 196.570312 528.191406 196.546875 528.332031 C 196.523438 528.472656 196.519531 528.613281 196.53125 528.753906 C 196.539062 528.894531 196.566406 529.035156 196.609375 529.167969 C 196.652344 529.304688 196.710938 529.433594 196.785156 529.554688 C 196.859375 529.675781 196.945312 529.789062 197.042969 529.886719 C 197.144531 529.988281 197.253906 530.078125 197.375 530.152344 C 197.496094 530.226562 197.621094 530.285156 197.757812 530.332031 C 197.890625 530.375 198.027344 530.40625 198.171875 530.417969 C 198.3125 530.429688 198.453125 530.425781 198.59375 530.40625 C 198.734375 530.382812 198.871094 530.347656 199 530.292969 C 199.132812 530.238281 199.257812 530.171875 199.371094 530.089844 C 199.691406 529.863281 199.910156 529.5625 200.035156 529.191406 C 200.160156 528.820312 200.160156 528.445312 200.042969 528.074219 C 199.921875 527.699219 199.703125 527.398438 199.386719 527.167969 C 199.070312 526.9375 198.71875 526.820312 198.324219 526.820312 Z M 198.332031 526.820312 " fill-opacity="1" fill-rule="nonzero"/></svg>