<svg width="25" height="26" viewBox="0 0 25 26" fill="none" xmlns="http://www.w3.org/2000/svg">
<path d="M8.1875 11.4722V5.08333C8.1875 2.96624 10.1183 1.25 12.5 1.25C14.8817 1.25 16.8125 2.96624 16.8125 5.08333V11.4304M10.2 24.25H14.8C18.0203 24.25 19.6305 24.25 20.8604 23.6929C21.9424 23.2029 22.822 22.421 23.3733 21.4593C24 20.366 24 18.9347 24 16.0722V13.0056C24 11.5743 24 10.8587 23.6866 10.312C23.411 9.83117 22.9712 9.44021 22.4302 9.19521C21.8152 8.91667 21.0102 8.91667 19.4 8.91667H5.6C3.98985 8.91667 3.18477 8.91667 2.56978 9.19521C2.02881 9.44021 1.58899 9.83117 1.31336 10.312C1 10.8587 1 11.5743 1 13.0056V16.0722C1 18.9347 1 20.366 1.62671 21.4593C2.17798 22.421 3.05762 23.2029 4.13955 23.6929C5.36955 24.25 6.9797 24.25 10.2 24.25Z" stroke="#FCFCFC" strokeWidth="2" strokeLinecap="round" strokeLinejoin="round"/>
</svg>
