<svg width="552" height="168" viewBox="0 0 552 168" fill="none" xmlns="http://www.w3.org/2000/svg">
<rect x="0.5" y="1.14062" width="551" height="166" rx="4.5" fill="#F9FAFB" stroke="#8F8F8F" stroke-dasharray="3 3"/>
<g clip-path="url(#clip0_4221_10518)">
<path d="M280.707 40.2338L276.707 36.1314C276.614 36.0359 276.504 35.9601 276.382 35.9084C276.261 35.8567 276.131 35.8301 275.999 35.8301C275.867 35.8301 275.737 35.8567 275.616 35.9084C275.494 35.9601 275.384 36.0359 275.291 36.1314L271.291 40.2338C271.103 40.4264 270.998 40.6875 270.998 40.9596C270.999 41.2318 271.104 41.4927 271.292 41.685C271.48 41.8773 271.734 41.9852 272 41.9851C272.265 41.9849 272.519 41.8766 272.707 41.684L275 39.3323V48.1381C275 48.4101 275.105 48.671 275.293 48.8633C275.48 49.0556 275.735 49.1637 276 49.1637C276.265 49.1637 276.52 49.0556 276.707 48.8633C276.895 48.671 277 48.4101 277 48.1381V39.3323L279.293 41.684C279.482 41.8708 279.734 41.9742 279.996 41.9718C280.259 41.9695 280.509 41.8616 280.695 41.6715C280.88 41.4813 280.985 41.2241 280.988 40.9552C280.99 40.6863 280.889 40.4272 280.707 40.2338Z" fill="#9CA3AF"/>
<path d="M284 47.6253H279V48.1381C279 48.9541 278.684 49.7367 278.121 50.3137C277.559 50.8907 276.796 51.2149 276 51.2149C275.204 51.2149 274.441 50.8907 273.879 50.3137C273.316 49.7367 273 48.9541 273 48.1381V47.6253H268C267.47 47.6253 266.961 47.8414 266.586 48.2261C266.211 48.6107 266 49.1325 266 49.6765V53.7789C266 54.3229 266.211 54.8446 266.586 55.2293C266.961 55.614 267.47 55.8301 268 55.8301H284C284.53 55.8301 285.039 55.614 285.414 55.2293C285.789 54.8446 286 54.3229 286 53.7789V49.6765C286 49.1325 285.789 48.6107 285.414 48.2261C285.039 47.8414 284.53 47.6253 284 47.6253ZM281.5 53.7789C281.203 53.7789 280.913 53.6887 280.667 53.5196C280.42 53.3506 280.228 53.1103 280.114 52.8292C280.001 52.5481 279.971 52.2388 280.029 51.9404C280.087 51.6419 280.23 51.3678 280.439 51.1527C280.649 50.9375 280.916 50.791 281.207 50.7316C281.498 50.6723 281.8 50.7027 282.074 50.8192C282.348 50.9356 282.582 51.1328 282.747 51.3858C282.912 51.6388 283 51.9362 283 52.2405C283 52.6485 282.842 53.0398 282.561 53.3283C282.279 53.6168 281.898 53.7789 281.5 53.7789Z" fill="#9CA3AF"/>
</g>
<path d="M177.862 73.0836H176.003C175.95 72.7787 175.852 72.5086 175.709 72.2733C175.567 72.0346 175.39 71.8324 175.177 71.6667C174.965 71.501 174.723 71.3767 174.452 71.2939C174.183 71.2077 173.893 71.1646 173.581 71.1646C173.028 71.1646 172.537 71.3038 172.11 71.5822C171.682 71.8573 171.348 72.2617 171.106 72.7953C170.864 73.3256 170.743 73.9735 170.743 74.7392C170.743 75.5181 170.864 76.1743 171.106 76.7079C171.351 77.2382 171.686 77.6393 172.11 77.911C172.537 78.1795 173.026 78.3137 173.577 78.3137C173.881 78.3137 174.166 78.274 174.432 78.1944C174.7 78.1116 174.94 77.9906 175.153 77.8315C175.368 77.6724 175.549 77.4769 175.694 77.2449C175.844 77.0128 175.946 76.7477 176.003 76.4494L177.862 76.4593C177.792 76.9432 177.642 77.3973 177.41 77.8216C177.181 78.2458 176.881 78.6203 176.51 78.9451C176.139 79.2666 175.704 79.5185 175.207 79.7008C174.71 79.8798 174.158 79.9693 173.552 79.9693C172.657 79.9693 171.858 79.7621 171.155 79.3478C170.453 78.9335 169.899 78.3353 169.495 77.5531C169.09 76.7709 168.888 75.8329 168.888 74.7392C168.888 73.6421 169.092 72.7041 169.5 71.9252C169.907 71.1431 170.463 70.5448 171.165 70.1305C171.868 69.7162 172.663 69.5091 173.552 69.5091C174.118 69.5091 174.645 69.5886 175.133 69.7477C175.62 69.9068 176.054 70.1404 176.435 70.4487C176.816 70.7536 177.13 71.1281 177.375 71.5723C177.623 72.0131 177.786 72.5169 177.862 73.0836ZM181.271 69.6483V79.8301H179.472V69.6483H181.271ZM183.122 79.8301V72.1937H184.922V79.8301H183.122ZM184.027 71.1099C183.742 71.1099 183.497 71.0154 183.291 70.8265C183.086 70.6343 182.983 70.4039 182.983 70.1355C182.983 69.8637 183.086 69.6333 183.291 69.4444C183.497 69.2522 183.742 69.1561 184.027 69.1561C184.315 69.1561 184.56 69.2522 184.763 69.4444C184.968 69.6333 185.071 69.8637 185.071 70.1355C185.071 70.4039 184.968 70.6343 184.763 70.8265C184.56 71.0154 184.315 71.1099 184.027 71.1099ZM190.103 79.9792C189.341 79.9792 188.686 79.8118 188.14 79.4771C187.596 79.1423 187.177 78.68 186.882 78.09C186.59 77.4967 186.444 76.814 186.444 76.0417C186.444 75.2662 186.593 74.5817 186.892 73.9885C187.19 73.3919 187.611 72.9279 188.154 72.5964C188.701 72.2617 189.348 72.0943 190.093 72.0943C190.713 72.0943 191.262 72.2086 191.739 72.4373C192.22 72.6627 192.602 72.9825 192.887 73.3968C193.172 73.8078 193.335 74.2884 193.375 74.8386H191.654C191.585 74.4707 191.419 74.1641 191.157 73.9189C190.899 73.6703 190.552 73.546 190.118 73.546C189.75 73.546 189.427 73.6454 189.149 73.8443C188.87 74.0398 188.653 74.3216 188.498 74.6895C188.345 75.0574 188.269 75.4982 188.269 76.0119C188.269 76.5323 188.345 76.9797 188.498 77.3542C188.65 77.7254 188.864 78.0121 189.139 78.2143C189.417 78.4132 189.744 78.5126 190.118 78.5126C190.383 78.5126 190.62 78.4629 190.829 78.3635C191.041 78.2607 191.219 78.1132 191.361 77.921C191.504 77.7288 191.601 77.4951 191.654 77.22H193.375C193.332 77.7602 193.172 78.2392 192.897 78.6568C192.622 79.0711 192.248 79.3959 191.774 79.6312C191.3 79.8632 190.743 79.9792 190.103 79.9792ZM196.493 77.4338L196.488 75.2612H196.776L199.521 72.1937H201.624L198.248 75.9522H197.875L196.493 77.4338ZM194.852 79.8301V69.6483H196.652V79.8301H194.852ZM199.645 79.8301L197.159 76.3549L198.372 75.0872L201.798 79.8301H199.645ZM210.109 72.1937V73.5858H205.719V72.1937H210.109ZM206.803 70.3642H208.603V77.5332C208.603 77.7752 208.639 77.9608 208.712 78.09C208.788 78.216 208.888 78.3021 209.01 78.3485C209.133 78.3949 209.269 78.4181 209.418 78.4181C209.531 78.4181 209.633 78.4099 209.726 78.3933C209.822 78.3767 209.895 78.3618 209.945 78.3485L210.248 79.7555C210.152 79.7886 210.015 79.8251 209.836 79.8649C209.66 79.9047 209.444 79.9279 209.189 79.9345C208.739 79.9477 208.333 79.8798 207.971 79.7306C207.61 79.5782 207.323 79.3429 207.111 79.0247C206.902 78.7065 206.8 78.3088 206.803 77.8315V70.3642ZM214.863 79.9792C214.117 79.9792 213.471 79.8152 212.924 79.487C212.377 79.1589 211.953 78.6999 211.651 78.1099C211.353 77.5199 211.204 76.8306 211.204 76.0417C211.204 75.2529 211.353 74.5618 211.651 73.9686C211.953 73.3753 212.377 72.9146 212.924 72.5865C213.471 72.2583 214.117 72.0943 214.863 72.0943C215.609 72.0943 216.255 72.2583 216.802 72.5865C217.349 72.9146 217.771 73.3753 218.07 73.9686C218.371 74.5618 218.522 75.2529 218.522 76.0417C218.522 76.8306 218.371 77.5199 218.07 78.1099C217.771 78.6999 217.349 79.1589 216.802 79.487C216.255 79.8152 215.609 79.9792 214.863 79.9792ZM214.873 78.5375C215.277 78.5375 215.615 78.4264 215.887 78.2044C216.159 77.979 216.361 77.6774 216.494 77.2995C216.63 76.9217 216.698 76.5008 216.698 76.0368C216.698 75.5694 216.63 75.1468 216.494 74.769C216.361 74.3878 216.159 74.0846 215.887 73.8592C215.615 73.6338 215.277 73.5211 214.873 73.5211C214.459 73.5211 214.114 73.6338 213.839 73.8592C213.567 74.0846 213.363 74.3878 213.227 74.769C213.095 75.1468 213.029 75.5694 213.029 76.0368C213.029 76.5008 213.095 76.9217 213.227 77.2995C213.363 77.6774 213.567 77.979 213.839 78.2044C214.114 78.4264 214.459 78.5375 214.873 78.5375ZM228.39 76.6184V72.1937H230.189V79.8301H228.444V78.4728H228.365C228.192 78.9004 227.909 79.2501 227.515 79.5218C227.123 79.7936 226.641 79.9295 226.068 79.9295C225.567 79.9295 225.125 79.8185 224.74 79.5964C224.359 79.371 224.061 79.0446 223.846 78.617C223.63 78.1861 223.522 77.6658 223.522 77.0559V72.1937H225.322V76.7775C225.322 77.2614 225.455 77.6459 225.72 77.9309C225.985 78.216 226.333 78.3585 226.764 78.3585C227.029 78.3585 227.286 78.2939 227.534 78.1646C227.783 78.0353 227.987 77.8431 228.146 77.5879C228.308 77.3294 228.39 77.0062 228.39 76.6184ZM232.04 82.6937V72.1937H233.81V73.4565H233.914C234.007 73.2709 234.138 73.0737 234.307 72.8649C234.476 72.6528 234.705 72.4721 234.993 72.323C235.281 72.1705 235.649 72.0943 236.097 72.0943C236.687 72.0943 237.219 72.2451 237.693 72.5467C238.17 72.845 238.548 73.2875 238.826 73.8741C239.108 74.4574 239.249 75.1734 239.249 76.0218C239.249 76.8604 239.111 77.573 238.836 78.1596C238.561 78.7463 238.186 79.1937 237.713 79.502C237.239 79.8102 236.702 79.9643 236.102 79.9643C235.664 79.9643 235.301 79.8914 235.013 79.7456C234.725 79.5997 234.493 79.4241 234.317 79.2186C234.145 79.0098 234.01 78.8126 233.914 78.627H233.84V82.6937H232.04ZM233.805 76.0119C233.805 76.5057 233.874 76.9383 234.014 77.3095C234.156 77.6807 234.36 77.9707 234.625 78.1795C234.894 78.385 235.218 78.4877 235.6 78.4877C235.997 78.4877 236.33 78.3817 236.599 78.1696C236.867 77.9541 237.07 77.6608 237.205 77.2896C237.345 76.9151 237.414 76.4892 237.414 76.0119C237.414 75.5379 237.346 75.117 237.21 74.7491C237.075 74.3812 236.872 74.0929 236.604 73.8841C236.335 73.6752 236.001 73.5708 235.6 73.5708C235.215 73.5708 234.889 73.6719 234.62 73.8741C234.352 74.0763 234.148 74.3597 234.009 74.7243C233.873 75.0888 233.805 75.5181 233.805 76.0119ZM242.59 69.6483V79.8301H240.79V69.6483H242.59ZM247.771 79.9792C247.026 79.9792 246.379 79.8152 245.832 79.487C245.286 79.1589 244.861 78.6999 244.56 78.1099C244.261 77.5199 244.112 76.8306 244.112 76.0417C244.112 75.2529 244.261 74.5618 244.56 73.9686C244.861 73.3753 245.286 72.9146 245.832 72.5865C246.379 72.2583 247.026 72.0943 247.771 72.0943C248.517 72.0943 249.163 72.2583 249.71 72.5865C250.257 72.9146 250.68 73.3753 250.978 73.9686C251.28 74.5618 251.43 75.2529 251.43 76.0417C251.43 76.8306 251.28 77.5199 250.978 78.1099C250.68 78.6999 250.257 79.1589 249.71 79.487C249.163 79.8152 248.517 79.9792 247.771 79.9792ZM247.781 78.5375C248.186 78.5375 248.524 78.4264 248.795 78.2044C249.067 77.979 249.269 77.6774 249.402 77.2995C249.538 76.9217 249.606 76.5008 249.606 76.0368C249.606 75.5694 249.538 75.1468 249.402 74.769C249.269 74.3878 249.067 74.0846 248.795 73.8592C248.524 73.6338 248.186 73.5211 247.781 73.5211C247.367 73.5211 247.022 73.6338 246.747 73.8592C246.475 74.0846 246.272 74.3878 246.136 74.769C246.003 75.1468 245.937 75.5694 245.937 76.0368C245.937 76.5008 246.003 76.9217 246.136 77.2995C246.272 77.6774 246.475 77.979 246.747 78.2044C247.022 78.4264 247.367 78.5375 247.781 78.5375ZM255.155 79.9842C254.671 79.9842 254.236 79.898 253.848 79.7257C253.463 79.55 253.158 79.2915 252.933 78.9501C252.711 78.6087 252.6 78.1878 252.6 77.6873C252.6 77.2565 252.68 76.9002 252.839 76.6184C252.998 76.3367 253.215 76.1113 253.49 75.9423C253.765 75.7733 254.075 75.6457 254.42 75.5595C254.768 75.47 255.127 75.4054 255.498 75.3656C255.946 75.3192 256.309 75.2778 256.587 75.2413C256.866 75.2015 257.068 75.1419 257.194 75.0623C257.323 74.9795 257.388 74.8519 257.388 74.6795V74.6497C257.388 74.2752 257.277 73.9851 257.055 73.7797C256.832 73.5742 256.513 73.4714 256.095 73.4714C255.654 73.4714 255.305 73.5675 255.046 73.7598C254.791 73.952 254.618 74.179 254.529 74.4409L252.849 74.2022C252.981 73.7382 253.2 73.3504 253.505 73.0389C253.81 72.724 254.183 72.4887 254.623 72.3329C255.064 72.1738 255.551 72.0943 256.085 72.0943C256.453 72.0943 256.819 72.1374 257.184 72.2235C257.548 72.3097 257.881 72.4522 258.183 72.6511C258.485 72.8466 258.727 73.1135 258.909 73.4515C259.095 73.7896 259.187 74.2122 259.187 74.7193V79.8301H257.457V78.7811H257.398C257.288 78.9932 257.134 79.1921 256.935 79.3777C256.74 79.56 256.493 79.7074 256.194 79.8201C255.899 79.9295 255.553 79.9842 255.155 79.9842ZM255.623 78.6618C255.984 78.6618 256.297 78.5905 256.562 78.448C256.827 78.3021 257.031 78.1099 257.174 77.8713C257.32 77.6326 257.393 77.3725 257.393 77.0907V76.1909C257.336 76.2373 257.24 76.2804 257.104 76.3201C256.972 76.3599 256.823 76.3947 256.657 76.4245C256.491 76.4544 256.327 76.4809 256.165 76.5041C256.002 76.5273 255.861 76.5472 255.742 76.5637C255.474 76.6002 255.233 76.6599 255.021 76.7427C254.809 76.8256 254.642 76.9416 254.519 77.0907C254.396 77.2366 254.335 77.4255 254.335 77.6575C254.335 77.9889 254.456 78.2392 254.698 78.4082C254.94 78.5772 255.248 78.6618 255.623 78.6618ZM263.831 79.9643C263.231 79.9643 262.694 79.8102 262.22 79.502C261.746 79.1937 261.372 78.7463 261.096 78.1596C260.821 77.573 260.684 76.8604 260.684 76.0218C260.684 75.1734 260.823 74.4574 261.101 73.8741C261.383 73.2875 261.763 72.845 262.24 72.5467C262.717 72.2451 263.249 72.0943 263.836 72.0943C264.283 72.0943 264.651 72.1705 264.939 72.323C265.228 72.4721 265.456 72.6528 265.626 72.8649C265.795 73.0737 265.925 73.2709 266.018 73.4565H266.093V69.6483H267.898V79.8301H266.128V78.627H266.018C265.925 78.8126 265.791 79.0098 265.616 79.2186C265.44 79.4241 265.208 79.5997 264.92 79.7456C264.631 79.8914 264.268 79.9643 263.831 79.9643ZM264.333 78.4877C264.714 78.4877 265.039 78.385 265.307 78.1795C265.576 77.9707 265.78 77.6807 265.919 77.3095C266.058 76.9383 266.128 76.5057 266.128 76.0119C266.128 75.5181 266.058 75.0888 265.919 74.7243C265.783 74.3597 265.581 74.0763 265.312 73.8741C265.047 73.6719 264.721 73.5708 264.333 73.5708C263.932 73.5708 263.597 73.6752 263.329 73.8841C263.06 74.0929 262.858 74.3812 262.722 74.7491C262.586 75.117 262.518 75.5379 262.518 76.0119C262.518 76.4892 262.586 76.9151 262.722 77.2896C262.861 77.6608 263.065 77.9541 263.334 78.1696C263.605 78.3817 263.939 78.4877 264.333 78.4877ZM277.004 79.9892C276.315 79.9892 275.71 79.8251 275.19 79.497C274.673 79.1689 274.268 78.7098 273.977 78.1199C273.688 77.5299 273.544 76.8405 273.544 76.0517C273.544 75.2562 273.688 74.5618 273.977 73.9686C274.268 73.3753 274.673 72.9146 275.19 72.5865C275.71 72.2583 276.315 72.0943 277.004 72.0943C277.694 72.0943 278.297 72.2583 278.814 72.5865C279.334 72.9146 279.739 73.3753 280.027 73.9686C280.319 74.5618 280.464 75.2562 280.464 76.0517C280.464 76.8405 280.319 77.5299 280.027 78.1199C279.739 78.7098 279.334 79.1689 278.814 79.497C278.297 79.8251 277.694 79.9892 277.004 79.9892ZM277.004 78.9352C277.528 78.9352 277.959 78.801 278.297 78.5325C278.635 78.264 278.885 77.911 279.048 77.4735C279.21 77.036 279.291 76.5621 279.291 76.0517C279.291 75.5413 279.21 75.0656 279.048 74.6248C278.885 74.184 278.635 73.8277 278.297 73.5559C277.959 73.2841 277.528 73.1483 277.004 73.1483C276.481 73.1483 276.05 73.2841 275.712 73.5559C275.374 73.8277 275.123 74.184 274.961 74.6248C274.799 75.0656 274.717 75.5413 274.717 76.0517C274.717 76.5621 274.799 77.036 274.961 77.4735C275.123 77.911 275.374 78.264 275.712 78.5325C276.05 78.801 276.481 78.9352 277.004 78.9352ZM282.256 79.8301V72.1937H283.389V73.3471H283.469C283.608 72.9693 283.86 72.6627 284.224 72.4274C284.589 72.1921 285 72.0744 285.457 72.0744C285.543 72.0744 285.651 72.0761 285.78 72.0794C285.91 72.0827 286.007 72.0877 286.074 72.0943V73.2875C286.034 73.2775 285.943 73.2626 285.8 73.2427C285.661 73.2195 285.514 73.2079 285.358 73.2079C284.987 73.2079 284.655 73.2858 284.363 73.4416C284.075 73.594 283.846 73.8062 283.677 74.0779C283.512 74.3464 283.429 74.653 283.429 74.9977V79.8301H282.256ZM294.286 79.9892C293.649 79.9892 293.087 79.8284 292.6 79.5069C292.113 79.1821 291.732 78.7247 291.457 78.1348C291.182 77.5415 291.044 76.8405 291.044 76.0318C291.044 75.2297 291.182 74.5337 291.457 73.9437C291.732 73.3538 292.115 72.898 292.605 72.5765C293.096 72.255 293.662 72.0943 294.305 72.0943C294.803 72.0943 295.195 72.1771 295.484 72.3429C295.775 72.5053 295.997 72.6909 296.15 72.8997C296.306 73.1052 296.427 73.2742 296.513 73.4068H296.612V69.6483H297.786V79.8301H296.652V78.6568H296.513C296.427 78.796 296.304 78.9717 296.145 79.1838C295.986 79.3926 295.759 79.5798 295.464 79.7456C295.169 79.908 294.776 79.9892 294.286 79.9892ZM294.445 78.9352C294.915 78.9352 295.313 78.8126 295.638 78.5673C295.963 78.3187 296.21 77.9757 296.379 77.5382C296.548 77.0974 296.632 76.5886 296.632 76.0119C296.632 75.4418 296.549 74.943 296.384 74.5154C296.218 74.0846 295.973 73.7498 295.648 73.5112C295.323 73.2692 294.922 73.1483 294.445 73.1483C293.947 73.1483 293.533 73.2759 293.202 73.5311C292.874 73.783 292.627 74.126 292.461 74.5602C292.299 74.9911 292.217 75.475 292.217 76.0119C292.217 76.5555 292.3 77.0493 292.466 77.4934C292.635 77.9342 292.884 78.2856 293.212 78.5474C293.543 78.8059 293.954 78.9352 294.445 78.9352ZM300.097 79.8301V72.1937H301.231V73.3471H301.31C301.45 72.9693 301.701 72.6627 302.066 72.4274C302.431 72.1921 302.842 72.0744 303.299 72.0744C303.385 72.0744 303.493 72.0761 303.622 72.0794C303.751 72.0827 303.849 72.0877 303.915 72.0943V73.2875C303.876 73.2775 303.785 73.2626 303.642 73.2427C303.503 73.2195 303.355 73.2079 303.2 73.2079C302.828 73.2079 302.497 73.2858 302.205 73.4416C301.917 73.594 301.688 73.8062 301.519 74.0779C301.353 74.3464 301.271 74.653 301.271 74.9977V79.8301H300.097ZM307.553 80.0091C307.07 80.0091 306.63 79.9179 306.236 79.7356C305.842 79.55 305.528 79.2832 305.296 78.9352C305.064 78.5839 304.948 78.1596 304.948 77.6625C304.948 77.225 305.035 76.8703 305.207 76.5985C305.379 76.3234 305.61 76.108 305.898 75.9522C306.186 75.7965 306.504 75.6805 306.852 75.6042C307.204 75.5247 307.557 75.4617 307.911 75.4153C308.375 75.3556 308.752 75.3109 309.04 75.2811C309.332 75.2479 309.544 75.1932 309.676 75.117C309.812 75.0408 309.88 74.9082 309.88 74.7193V74.6795C309.88 74.189 309.746 73.8078 309.477 73.536C309.212 73.2643 308.81 73.1284 308.269 73.1284C307.709 73.1284 307.27 73.251 306.952 73.4963C306.634 73.7415 306.41 74.0034 306.281 74.2818L305.167 73.8841C305.366 73.42 305.631 73.0588 305.963 72.8002C306.297 72.5384 306.662 72.3561 307.056 72.2534C307.454 72.1473 307.845 72.0943 308.23 72.0943C308.475 72.0943 308.757 72.1241 309.075 72.1838C309.396 72.2401 309.706 72.3578 310.004 72.5368C310.306 72.7157 310.556 72.9859 310.755 73.3471C310.954 73.7084 311.053 74.1923 311.053 74.7988V79.8301H309.88V78.796H309.82C309.741 78.9617 309.608 79.139 309.423 79.3279C309.237 79.5169 308.99 79.6776 308.682 79.8102C308.374 79.9428 307.998 80.0091 307.553 80.0091ZM307.732 78.9551C308.196 78.9551 308.588 78.8639 308.906 78.6816C309.227 78.4993 309.469 78.264 309.632 77.9757C309.797 77.6873 309.88 77.3841 309.88 77.0659V75.992C309.83 76.0517 309.721 76.1064 309.552 76.1561C309.386 76.2025 309.194 76.2439 308.975 76.2804C308.76 76.3135 308.549 76.3433 308.344 76.3699C308.142 76.3931 307.978 76.4129 307.852 76.4295C307.547 76.4693 307.262 76.5339 306.997 76.6234C306.735 76.7096 306.523 76.8405 306.36 77.0162C306.201 77.1885 306.122 77.4238 306.122 77.7221C306.122 78.1298 306.272 78.438 306.574 78.6468C306.879 78.8523 307.265 78.9551 307.732 78.9551ZM316.277 82.8528C315.711 82.8528 315.223 82.7799 314.816 82.6341C314.408 82.4915 314.068 82.3026 313.797 82.0673C313.528 81.8353 313.314 81.5867 313.155 81.3216L314.09 80.6653C314.196 80.8045 314.33 80.9636 314.493 81.1426C314.655 81.3249 314.877 81.4823 315.159 81.6149C315.444 81.7508 315.817 81.8187 316.277 81.8187C316.894 81.8187 317.403 81.6696 317.804 81.3713C318.205 81.073 318.405 80.6056 318.405 79.9693V78.4181H318.306C318.22 78.5574 318.097 78.7297 317.938 78.9352C317.782 79.1374 317.557 79.318 317.262 79.4771C316.97 79.6329 316.576 79.7108 316.078 79.7108C315.462 79.7108 314.908 79.5649 314.418 79.2733C313.931 78.9816 313.545 78.5574 313.26 78.0005C312.978 77.4437 312.837 76.7676 312.837 75.9721C312.837 75.1899 312.975 74.5088 313.25 73.9288C313.525 73.3455 313.908 72.8947 314.398 72.5765C314.889 72.255 315.455 72.0943 316.098 72.0943C316.596 72.0943 316.99 72.1771 317.282 72.3429C317.577 72.5053 317.802 72.6909 317.958 72.8997C318.117 73.1052 318.239 73.2742 318.326 73.4068H318.445V72.1937H319.578V80.0488C319.578 80.7051 319.429 81.2387 319.131 81.6497C318.836 82.064 318.438 82.3672 317.938 82.5595C317.441 82.755 316.887 82.8528 316.277 82.8528ZM316.238 78.6568C316.708 78.6568 317.106 78.5491 317.431 78.3336C317.756 78.1182 318.002 77.8083 318.172 77.4039C318.341 76.9996 318.425 76.5157 318.425 75.9522C318.425 75.402 318.342 74.9165 318.176 74.4956C318.011 74.0746 317.766 73.7449 317.441 73.5062C317.116 73.2676 316.715 73.1483 316.238 73.1483C315.74 73.1483 315.326 73.2742 314.995 73.5261C314.667 73.778 314.42 74.1161 314.254 74.5403C314.092 74.9645 314.01 75.4352 314.01 75.9522C314.01 76.4825 314.093 76.9515 314.259 77.3592C314.428 77.7636 314.676 78.0817 315.005 78.3137C315.336 78.5424 315.747 78.6568 316.238 78.6568ZM327.911 80.0091C327.427 80.0091 326.988 79.9179 326.593 79.7356C326.199 79.55 325.886 79.2832 325.654 78.9352C325.422 78.5839 325.306 78.1596 325.306 77.6625C325.306 77.225 325.392 76.8703 325.564 76.5985C325.737 76.3234 325.967 76.108 326.255 75.9522C326.544 75.7965 326.862 75.6805 327.21 75.6042C327.561 75.5247 327.914 75.4617 328.269 75.4153C328.733 75.3556 329.109 75.3109 329.397 75.2811C329.689 75.2479 329.901 75.1932 330.034 75.117C330.17 75.0408 330.238 74.9082 330.238 74.7193V74.6795C330.238 74.189 330.103 73.8078 329.835 73.536C329.57 73.2643 329.167 73.1284 328.627 73.1284C328.067 73.1284 327.627 73.251 327.309 73.4963C326.991 73.7415 326.767 74.0034 326.638 74.2818L325.525 73.8841C325.723 73.42 325.989 73.0588 326.32 72.8002C326.655 72.5384 327.019 72.3561 327.414 72.2534C327.811 72.1473 328.203 72.0943 328.587 72.0943C328.832 72.0943 329.114 72.1241 329.432 72.1838C329.754 72.2401 330.064 72.3578 330.362 72.5368C330.663 72.7157 330.914 72.9859 331.113 73.3471C331.311 73.7084 331.411 74.1923 331.411 74.7988V79.8301H330.238V78.796H330.178C330.098 78.9617 329.966 79.139 329.78 79.3279C329.595 79.5169 329.348 79.6776 329.039 79.8102C328.731 79.9428 328.355 80.0091 327.911 80.0091ZM328.09 78.9551C328.554 78.9551 328.945 78.8639 329.263 78.6816C329.585 78.4993 329.827 78.264 329.989 77.9757C330.155 77.6873 330.238 77.3841 330.238 77.0659V75.992C330.188 76.0517 330.078 76.1064 329.909 76.1561C329.744 76.2025 329.551 76.2439 329.333 76.2804C329.117 76.3135 328.907 76.3433 328.701 76.3699C328.499 76.3931 328.335 76.4129 328.209 76.4295C327.904 76.4693 327.619 76.5339 327.354 76.6234C327.092 76.7096 326.88 76.8405 326.718 77.0162C326.559 77.1885 326.479 77.4238 326.479 77.7221C326.479 78.1298 326.63 78.438 326.931 78.6468C327.236 78.8523 327.623 78.9551 328.09 78.9551ZM334.726 75.2363V79.8301H333.552V72.1937H334.686V73.3869H334.785C334.964 72.9991 335.236 72.6876 335.601 72.4522C335.965 72.2136 336.436 72.0943 337.013 72.0943C337.53 72.0943 337.982 72.2003 338.37 72.4125C338.758 72.6213 339.059 72.9395 339.275 73.367C339.49 73.7913 339.598 74.3282 339.598 74.9778V79.8301H338.425V75.0574C338.425 74.4574 338.269 73.9901 337.957 73.6554C337.646 73.3173 337.218 73.1483 336.675 73.1483C336.3 73.1483 335.965 73.2295 335.67 73.3919C335.379 73.5543 335.148 73.7913 334.979 74.1028C334.81 74.4144 334.726 74.7922 334.726 75.2363ZM344.625 79.9892C343.989 79.9892 343.427 79.8284 342.94 79.5069C342.453 79.1821 342.072 78.7247 341.797 78.1348C341.521 77.5415 341.384 76.8405 341.384 76.0318C341.384 75.2297 341.521 74.5337 341.797 73.9437C342.072 73.3538 342.454 72.898 342.945 72.5765C343.435 72.255 344.002 72.0943 344.645 72.0943C345.142 72.0943 345.535 72.1771 345.824 72.3429C346.115 72.5053 346.337 72.6909 346.49 72.8997C346.645 73.1052 346.766 73.2742 346.853 73.4068H346.952V69.6483H348.125V79.8301H346.992V78.6568H346.853C346.766 78.796 346.644 78.9717 346.485 79.1838C346.326 79.3926 346.099 79.5798 345.804 79.7456C345.509 79.908 345.116 79.9892 344.625 79.9892ZM344.784 78.9352C345.255 78.9352 345.653 78.8126 345.978 78.5673C346.302 78.3187 346.549 77.9757 346.718 77.5382C346.887 77.0974 346.972 76.5886 346.972 76.0119C346.972 75.4418 346.889 74.943 346.723 74.5154C346.558 74.0846 346.312 73.7498 345.988 73.5112C345.663 73.2692 345.262 73.1483 344.784 73.1483C344.287 73.1483 343.873 73.2759 343.542 73.5311C343.213 73.783 342.967 74.126 342.801 74.5602C342.638 74.9911 342.557 75.475 342.557 76.0119C342.557 76.5555 342.64 77.0493 342.806 77.4934C342.975 77.9342 343.223 78.2856 343.551 78.5474C343.883 78.8059 344.294 78.9352 344.784 78.9352ZM357.258 79.9892C356.622 79.9892 356.06 79.8284 355.573 79.5069C355.086 79.1821 354.704 78.7247 354.429 78.1348C354.154 77.5415 354.017 76.8405 354.017 76.0318C354.017 75.2297 354.154 74.5337 354.429 73.9437C354.704 73.3538 355.087 72.898 355.578 72.5765C356.068 72.255 356.635 72.0943 357.278 72.0943C357.775 72.0943 358.168 72.1771 358.456 72.3429C358.748 72.5053 358.97 72.6909 359.123 72.8997C359.278 73.1052 359.399 73.2742 359.485 73.4068H359.585V69.6483H360.758V79.8301H359.625V78.6568H359.485C359.399 78.796 359.277 78.9717 359.118 79.1838C358.958 79.3926 358.731 79.5798 358.436 79.7456C358.141 79.908 357.749 79.9892 357.258 79.9892ZM357.417 78.9352C357.888 78.9352 358.286 78.8126 358.61 78.5673C358.935 78.3187 359.182 77.9757 359.351 77.5382C359.52 77.0974 359.605 76.5886 359.605 76.0119C359.605 75.4418 359.522 74.943 359.356 74.5154C359.19 74.0846 358.945 73.7498 358.62 73.5112C358.296 73.2692 357.895 73.1483 357.417 73.1483C356.92 73.1483 356.506 73.2759 356.174 73.5311C355.846 73.783 355.599 74.126 355.434 74.5602C355.271 74.9911 355.19 75.475 355.19 76.0119C355.19 76.5555 355.273 77.0493 355.439 77.4934C355.608 77.9342 355.856 78.2856 356.184 78.5474C356.516 78.8059 356.927 78.9352 357.417 78.9352ZM363.07 79.8301V72.1937H364.203V73.3471H364.283C364.422 72.9693 364.674 72.6627 365.039 72.4274C365.403 72.1921 365.814 72.0744 366.272 72.0744C366.358 72.0744 366.466 72.0761 366.595 72.0794C366.724 72.0827 366.822 72.0877 366.888 72.0943V73.2875C366.848 73.2775 366.757 73.2626 366.615 73.2427C366.475 73.2195 366.328 73.2079 366.172 73.2079C365.801 73.2079 365.47 73.2858 365.178 73.4416C364.89 73.594 364.661 73.8062 364.492 74.0779C364.326 74.3464 364.243 74.653 364.243 74.9977V79.8301H363.07ZM371.149 79.9892C370.459 79.9892 369.855 79.8251 369.334 79.497C368.817 79.1689 368.413 78.7098 368.121 78.1199C367.833 77.5299 367.689 76.8405 367.689 76.0517C367.689 75.2562 367.833 74.5618 368.121 73.9686C368.413 73.3753 368.817 72.9146 369.334 72.5865C369.855 72.2583 370.459 72.0943 371.149 72.0943C371.838 72.0943 372.441 72.2583 372.958 72.5865C373.479 72.9146 373.883 73.3753 374.172 73.9686C374.463 74.5618 374.609 75.2562 374.609 76.0517C374.609 76.8405 374.463 77.5299 374.172 78.1199C373.883 78.7098 373.479 79.1689 372.958 79.497C372.441 79.8251 371.838 79.9892 371.149 79.9892ZM371.149 78.9352C371.672 78.9352 372.103 78.801 372.441 78.5325C372.779 78.264 373.03 77.911 373.192 77.4735C373.355 77.036 373.436 76.5621 373.436 76.0517C373.436 75.5413 373.355 75.0656 373.192 74.6248C373.03 74.184 372.779 73.8277 372.441 73.5559C372.103 73.2841 371.672 73.1483 371.149 73.1483C370.625 73.1483 370.194 73.2841 369.856 73.5559C369.518 73.8277 369.268 74.184 369.105 74.6248C368.943 75.0656 368.862 75.5413 368.862 76.0517C368.862 76.5621 368.943 77.036 369.105 77.4735C369.268 77.911 369.518 78.264 369.856 78.5325C370.194 78.801 370.625 78.9352 371.149 78.9352ZM376.4 82.6937V72.1937H377.534V73.4068H377.673C377.759 73.2742 377.878 73.1052 378.031 72.8997C378.186 72.6909 378.409 72.5053 378.697 72.3429C378.989 72.1771 379.383 72.0943 379.88 72.0943C380.523 72.0943 381.09 72.255 381.58 72.5765C382.071 72.898 382.454 73.3538 382.729 73.9437C383.004 74.5337 383.142 75.2297 383.142 76.0318C383.142 76.8405 383.004 77.5415 382.729 78.1348C382.454 78.7247 382.073 79.1821 381.585 79.5069C381.098 79.8284 380.536 79.9892 379.9 79.9892C379.41 79.9892 379.017 79.908 378.722 79.7456C378.427 79.5798 378.2 79.3926 378.041 79.1838C377.882 78.9717 377.759 78.796 377.673 78.6568H377.573V82.6937H376.4ZM377.553 76.0119C377.553 76.5886 377.638 77.0974 377.807 77.5382C377.976 77.9757 378.223 78.3187 378.548 78.5673C378.873 78.8126 379.27 78.9352 379.741 78.9352C380.231 78.9352 380.641 78.8059 380.969 78.5474C381.3 78.2856 381.549 77.9342 381.715 77.4934C381.884 77.0493 381.968 76.5555 381.968 76.0119C381.968 75.475 381.885 74.9911 381.72 74.5602C381.557 74.126 381.31 73.783 380.979 73.5311C380.651 73.2759 380.238 73.1483 379.741 73.1483C379.264 73.1483 378.863 73.2692 378.538 73.5112C378.213 73.7498 377.968 74.0846 377.802 74.5154C377.636 74.943 377.553 75.4418 377.553 76.0119Z" fill="#6B7280"/>
<path d="M164.009 99.2846C163.958 98.8528 163.751 98.5176 163.387 98.2789C163.023 98.0403 162.577 97.921 162.049 97.921C161.663 97.921 161.325 97.9835 161.035 98.1085C160.748 98.2335 160.523 98.4054 160.362 98.6241C160.202 98.8429 160.123 99.0914 160.123 99.3699C160.123 99.6028 160.178 99.8031 160.289 99.9707C160.403 100.135 160.548 100.273 160.724 100.384C160.9 100.492 161.085 100.581 161.278 100.653C161.471 100.721 161.648 100.776 161.81 100.819L162.697 101.057C162.924 101.117 163.177 101.199 163.455 101.305C163.737 101.41 164.005 101.553 164.261 101.735C164.519 101.914 164.732 102.144 164.9 102.425C165.067 102.706 165.151 103.052 165.151 103.461C165.151 103.932 165.028 104.358 164.781 104.739C164.536 105.12 164.178 105.422 163.707 105.647C163.238 105.871 162.668 105.983 161.998 105.983C161.373 105.983 160.832 105.883 160.374 105.681C159.92 105.479 159.562 105.198 159.3 104.837C159.042 104.476 158.896 104.057 158.862 103.58H159.952C159.981 103.91 160.092 104.182 160.285 104.398C160.481 104.611 160.728 104.77 161.026 104.876C161.327 104.978 161.651 105.029 161.998 105.029C162.401 105.029 162.763 104.964 163.085 104.833C163.406 104.699 163.66 104.515 163.847 104.279C164.035 104.04 164.129 103.762 164.129 103.444C164.129 103.154 164.048 102.918 163.886 102.736C163.724 102.555 163.511 102.407 163.246 102.293C162.982 102.18 162.697 102.08 162.39 101.995L161.316 101.688C160.634 101.492 160.094 101.212 159.697 100.849C159.299 100.485 159.1 100.009 159.1 99.421C159.1 98.9324 159.232 98.5062 159.496 98.1426C159.763 97.7761 160.121 97.492 160.57 97.2903C161.022 97.0858 161.526 96.9835 162.083 96.9835C162.646 96.9835 163.146 97.0843 163.583 97.286C164.021 97.4849 164.367 97.7576 164.623 98.1042C164.881 98.4508 165.018 98.8443 165.032 99.2846H164.009ZM167.247 97.1028L169.838 104.449H169.94L172.531 97.1028H173.639L170.434 105.83H169.343L166.139 97.1028H167.247ZM180.554 99.8301C180.46 99.5431 180.337 99.286 180.183 99.0588C180.033 98.8287 179.852 98.6326 179.642 98.4707C179.435 98.3088 179.199 98.1852 178.935 98.1C178.67 98.0147 178.381 97.9721 178.065 97.9721C177.548 97.9721 177.078 98.1056 176.655 98.3727C176.232 98.6397 175.895 99.0332 175.645 99.5531C175.395 100.073 175.27 100.711 175.27 101.466C175.27 102.222 175.396 102.86 175.649 103.38C175.902 103.9 176.244 104.293 176.676 104.56C177.108 104.827 177.594 104.961 178.134 104.961C178.634 104.961 179.074 104.854 179.455 104.641C179.838 104.425 180.136 104.121 180.349 103.729C180.565 103.334 180.673 102.87 180.673 102.336L180.997 102.404H178.372V101.466H181.696V102.404C181.696 103.123 181.543 103.748 181.236 104.279C180.932 104.81 180.511 105.222 179.974 105.515C179.44 105.805 178.827 105.949 178.134 105.949C177.361 105.949 176.682 105.768 176.097 105.404C175.514 105.04 175.06 104.523 174.733 103.853C174.409 103.182 174.247 102.387 174.247 101.466C174.247 100.776 174.339 100.155 174.524 99.6042C174.712 99.0502 174.976 98.5787 175.317 98.1895C175.658 97.8002 176.061 97.502 176.527 97.2946C176.993 97.0872 177.506 96.9835 178.065 96.9835C178.526 96.9835 178.955 97.0531 179.352 97.1923C179.753 97.3287 180.109 97.5233 180.422 97.7761C180.737 98.0261 181 98.3258 181.21 98.6752C181.42 99.0218 181.565 99.4068 181.645 99.8301H180.554ZM184.87 104.637L184.801 105.097C184.753 105.421 184.679 105.768 184.58 106.137C184.483 106.506 184.382 106.854 184.277 107.181C184.172 107.508 184.086 107.768 184.017 107.961H183.25C183.287 107.779 183.336 107.539 183.395 107.241C183.455 106.942 183.515 106.608 183.574 106.239C183.637 105.873 183.688 105.498 183.728 105.114L183.779 104.637H184.87ZM190.244 105.83V97.1028H193.193C193.878 97.1028 194.438 97.2264 194.872 97.4735C195.31 97.7179 195.634 98.0488 195.844 98.4664C196.054 98.8841 196.159 99.35 196.159 99.8642C196.159 100.378 196.054 100.846 195.844 101.266C195.636 101.687 195.315 102.022 194.881 102.272C194.446 102.519 193.889 102.643 193.21 102.643H191.097V101.705H193.176C193.645 101.705 194.021 101.624 194.305 101.462C194.589 101.3 194.795 101.081 194.923 100.806C195.054 100.528 195.119 100.214 195.119 99.8642C195.119 99.5147 195.054 99.2022 194.923 98.9267C194.795 98.6511 194.588 98.4352 194.301 98.2789C194.014 98.1199 193.634 98.0403 193.159 98.0403H191.301V105.83H190.244ZM204.782 97.1028V105.83H203.759L199.004 98.9778H198.918V105.83H197.862V97.1028H198.884L203.657 103.972H203.742V97.1028H204.782ZM212.863 99.8301C212.769 99.5431 212.645 99.286 212.492 99.0588C212.341 98.8287 212.161 98.6326 211.951 98.4707C211.743 98.3088 211.507 98.1852 211.243 98.1C210.979 98.0147 210.689 97.9721 210.374 97.9721C209.857 97.9721 209.387 98.1056 208.963 98.3727C208.54 98.6397 208.203 99.0332 207.953 99.5531C207.703 100.073 207.578 100.711 207.578 101.466C207.578 102.222 207.705 102.86 207.958 103.38C208.211 103.9 208.553 104.293 208.985 104.56C209.417 104.827 209.902 104.961 210.442 104.961C210.942 104.961 211.382 104.854 211.763 104.641C212.147 104.425 212.445 104.121 212.658 103.729C212.874 103.334 212.982 102.87 212.982 102.336L213.306 102.404H210.681V101.466H214.005V102.404C214.005 103.123 213.851 103.748 213.544 104.279C213.24 104.81 212.82 105.222 212.283 105.515C211.749 105.805 211.135 105.949 210.442 105.949C209.669 105.949 208.99 105.768 208.405 105.404C207.823 105.04 207.368 104.523 207.042 103.853C206.718 103.182 206.556 102.387 206.556 101.466C206.556 100.776 206.648 100.155 206.833 99.6042C207.02 99.0502 207.284 98.5787 207.625 98.1895C207.966 97.8002 208.37 97.502 208.836 97.2946C209.301 97.0872 209.814 96.9835 210.374 96.9835C210.834 96.9835 211.263 97.0531 211.661 97.1923C212.061 97.3287 212.418 97.5233 212.73 97.7761C213.046 98.0261 213.309 98.3258 213.519 98.6752C213.729 99.0218 213.874 99.4068 213.953 99.8301H212.863ZM217.178 104.637L217.11 105.097C217.062 105.421 216.988 105.768 216.888 106.137C216.792 106.506 216.691 106.854 216.586 107.181C216.481 107.508 216.394 107.768 216.326 107.961H215.559C215.596 107.779 215.644 107.539 215.704 107.241C215.763 106.942 215.823 106.608 215.883 106.239C215.945 105.873 215.996 105.498 216.036 105.114L216.087 104.637H217.178ZM225.894 97.1028H226.951V103.341C226.951 103.898 226.848 104.371 226.644 104.76C226.439 105.15 226.151 105.445 225.779 105.647C225.407 105.849 224.968 105.949 224.462 105.949C223.985 105.949 223.56 105.863 223.188 105.689C222.816 105.513 222.523 105.263 222.31 104.939C222.097 104.616 221.99 104.231 221.99 103.785H223.03C223.03 104.032 223.091 104.248 223.213 104.432C223.338 104.614 223.509 104.756 223.725 104.858C223.941 104.961 224.186 105.012 224.462 105.012C224.766 105.012 225.025 104.948 225.238 104.82C225.451 104.692 225.613 104.505 225.723 104.258C225.837 104.008 225.894 103.702 225.894 103.341V97.1028ZM229.069 105.83V97.1028H232.017C232.702 97.1028 233.262 97.2264 233.696 97.4735C234.134 97.7179 234.458 98.0488 234.668 98.4664C234.878 98.8841 234.983 99.35 234.983 99.8642C234.983 100.378 234.878 100.846 234.668 101.266C234.461 101.687 234.14 102.022 233.705 102.272C233.27 102.519 232.713 102.643 232.034 102.643H229.921V101.705H232C232.469 101.705 232.846 101.624 233.13 101.462C233.414 101.3 233.62 101.081 233.748 100.806C233.878 100.528 233.944 100.214 233.944 99.8642C233.944 99.5147 233.878 99.2022 233.748 98.9267C233.62 98.6511 233.412 98.4352 233.125 98.2789C232.838 98.1199 232.458 98.0403 231.983 98.0403H230.125V105.83H229.069ZM242.652 99.8301C242.558 99.5431 242.434 99.286 242.281 99.0588C242.13 98.8287 241.95 98.6326 241.74 98.4707C241.532 98.3088 241.297 98.1852 241.032 98.1C240.768 98.0147 240.478 97.9721 240.163 97.9721C239.646 97.9721 239.176 98.1056 238.752 98.3727C238.329 98.6397 237.993 99.0332 237.743 99.5531C237.493 100.073 237.368 100.711 237.368 101.466C237.368 102.222 237.494 102.86 237.747 103.38C238 103.9 238.342 104.293 238.774 104.56C239.206 104.827 239.691 104.961 240.231 104.961C240.731 104.961 241.172 104.854 241.552 104.641C241.936 104.425 242.234 104.121 242.447 103.729C242.663 103.334 242.771 102.87 242.771 102.336L243.095 102.404H240.47V101.466H243.794V102.404C243.794 103.123 243.64 103.748 243.333 104.279C243.029 104.81 242.609 105.222 242.072 105.515C241.538 105.805 240.924 105.949 240.231 105.949C239.458 105.949 238.779 105.768 238.194 105.404C237.612 105.04 237.157 104.523 236.831 103.853C236.507 103.182 236.345 102.387 236.345 101.466C236.345 100.776 236.437 100.155 236.622 99.6042C236.809 99.0502 237.074 98.5787 237.414 98.1895C237.755 97.8002 238.159 97.502 238.625 97.2946C239.091 97.0872 239.603 96.9835 240.163 96.9835C240.623 96.9835 241.052 97.0531 241.45 97.1923C241.85 97.3287 242.207 97.5233 242.52 97.7761C242.835 98.0261 243.098 98.3258 243.308 98.6752C243.518 99.0218 243.663 99.4068 243.743 99.8301H242.652ZM251.501 105.966C250.911 105.966 250.392 105.826 249.946 105.545C249.503 105.263 249.156 104.87 248.906 104.364C248.659 103.858 248.536 103.268 248.536 102.591C248.536 101.91 248.659 101.314 248.906 100.806C249.156 100.297 249.503 99.9025 249.946 99.6213C250.392 99.34 250.911 99.1994 251.501 99.1994C252.092 99.1994 252.609 99.34 253.053 99.6213C253.499 99.9025 253.845 100.297 254.092 100.806C254.342 101.314 254.467 101.91 254.467 102.591C254.467 103.268 254.342 103.858 254.092 104.364C253.845 104.87 253.499 105.263 253.053 105.545C252.609 105.826 252.092 105.966 251.501 105.966ZM251.501 105.063C251.95 105.063 252.32 104.948 252.609 104.718C252.899 104.488 253.114 104.185 253.253 103.81C253.392 103.435 253.462 103.029 253.462 102.591C253.462 102.154 253.392 101.746 253.253 101.368C253.114 100.991 252.899 100.685 252.609 100.452C252.32 100.219 251.95 100.103 251.501 100.103C251.053 100.103 250.683 100.219 250.393 100.452C250.104 100.685 249.889 100.991 249.75 101.368C249.611 101.746 249.541 102.154 249.541 102.591C249.541 103.029 249.611 103.435 249.75 103.81C249.889 104.185 250.104 104.488 250.393 104.718C250.683 104.948 251.053 105.063 251.501 105.063ZM256.002 105.83V99.2846H256.974V100.273H257.042C257.162 99.9494 257.377 99.6866 257.69 99.4849C258.002 99.2832 258.355 99.1824 258.747 99.1824C258.821 99.1824 258.913 99.1838 259.024 99.1866C259.135 99.1895 259.218 99.1937 259.275 99.1994V100.222C259.241 100.214 259.163 100.201 259.041 100.184C258.922 100.164 258.795 100.154 258.662 100.154C258.343 100.154 258.059 100.221 257.809 100.354C257.562 100.485 257.366 100.667 257.221 100.9C257.079 101.13 257.008 101.393 257.008 101.688V105.83H256.002ZM269.945 99.8301C269.851 99.5431 269.727 99.286 269.574 99.0588C269.423 98.8287 269.243 98.6326 269.033 98.4707C268.825 98.3088 268.589 98.1852 268.325 98.1C268.061 98.0147 267.771 97.9721 267.456 97.9721C266.939 97.9721 266.469 98.1056 266.045 98.3727C265.622 98.6397 265.286 99.0332 265.036 99.5531C264.786 100.073 264.661 100.711 264.661 101.466C264.661 102.222 264.787 102.86 265.04 103.38C265.293 103.9 265.635 104.293 266.067 104.56C266.499 104.827 266.984 104.961 267.524 104.961C268.024 104.961 268.464 104.854 268.845 104.641C269.229 104.425 269.527 104.121 269.74 103.729C269.956 103.334 270.064 102.87 270.064 102.336L270.388 102.404H267.763V101.466H271.087V102.404C271.087 103.123 270.933 103.748 270.626 104.279C270.322 104.81 269.902 105.222 269.365 105.515C268.831 105.805 268.217 105.949 267.524 105.949C266.751 105.949 266.072 105.768 265.487 105.404C264.905 105.04 264.45 104.523 264.124 103.853C263.8 103.182 263.638 102.387 263.638 101.466C263.638 100.776 263.73 100.155 263.915 99.6042C264.102 99.0502 264.366 98.5787 264.707 98.1895C265.048 97.8002 265.452 97.502 265.918 97.2946C266.384 97.0872 266.896 96.9835 267.456 96.9835C267.916 96.9835 268.345 97.0531 268.743 97.1923C269.143 97.3287 269.5 97.5233 269.812 97.7761C270.128 98.0261 270.391 98.3258 270.601 98.6752C270.811 99.0218 270.956 99.4068 271.036 99.8301H269.945ZM273.953 97.1028V105.83H272.897V97.1028H273.953ZM276.072 105.83V97.1028H281.305V98.0403H277.129V100.989H280.913V101.927H277.129V105.83H276.072ZM286.712 101.466C286.712 100.393 286.851 99.4054 287.13 98.5048C287.411 97.6014 287.811 96.7704 288.331 96.0119H289.218C289.013 96.2931 288.821 96.6397 288.642 97.0517C288.466 97.4608 288.311 97.911 288.178 98.4025C288.044 98.8912 287.939 99.3968 287.863 99.9196C287.789 100.442 287.752 100.958 287.752 101.466C287.752 102.143 287.817 102.829 287.948 103.525C288.078 104.221 288.255 104.867 288.476 105.464C288.698 106.06 288.945 106.546 289.218 106.921H288.331C287.811 106.162 287.411 105.333 287.13 104.432C286.851 103.529 286.712 102.54 286.712 101.466ZM290.838 97.1028H292.099L295.065 104.347H295.168L298.134 97.1028H299.395V105.83H298.406V99.1994H298.321L295.594 105.83H294.639L291.912 99.1994H291.827V105.83H290.838V97.1028ZM301.872 105.83H300.764L303.968 97.1028H305.059L308.264 105.83H307.156L304.548 98.4835H304.48L301.872 105.83ZM302.281 102.421H306.747V103.358H302.281V102.421ZM310.135 97.1028L312.385 100.733H312.453L314.703 97.1028H315.947L313.203 101.466L315.947 105.83H314.703L312.453 102.268H312.385L310.135 105.83H308.89L311.703 101.466L308.89 97.1028H310.135ZM317.919 105.898C317.709 105.898 317.528 105.823 317.378 105.672C317.227 105.522 317.152 105.341 317.152 105.131C317.152 104.921 317.227 104.741 317.378 104.59C317.528 104.439 317.709 104.364 317.919 104.364C318.129 104.364 318.31 104.439 318.46 104.59C318.611 104.741 318.686 104.921 318.686 105.131C318.686 105.27 318.651 105.398 318.58 105.515C318.511 105.631 318.419 105.725 318.303 105.796C318.189 105.864 318.061 105.898 317.919 105.898ZM326.644 105.949C326.059 105.949 325.542 105.846 325.093 105.638C324.647 105.428 324.299 105.14 324.049 104.773C323.799 104.404 323.675 103.983 323.678 103.512C323.675 103.143 323.748 102.802 323.896 102.489C324.043 102.174 324.245 101.911 324.501 101.701C324.759 101.488 325.048 101.353 325.366 101.296V101.245C324.948 101.137 324.616 100.903 324.369 100.542C324.121 100.178 323.999 99.7647 324.002 99.3017C323.999 98.8585 324.112 98.4622 324.339 98.1127C324.566 97.7633 324.879 97.4877 325.276 97.286C325.677 97.0843 326.133 96.9835 326.644 96.9835C327.15 96.9835 327.602 97.0843 327.999 97.286C328.397 97.4877 328.71 97.7633 328.937 98.1127C329.167 98.4622 329.283 98.8585 329.286 99.3017C329.283 99.7647 329.157 100.178 328.907 100.542C328.66 100.903 328.332 101.137 327.923 101.245V101.296C328.238 101.353 328.522 101.488 328.775 101.701C329.028 101.911 329.229 102.174 329.38 102.489C329.531 102.802 329.607 103.143 329.61 103.512C329.607 103.983 329.479 104.404 329.227 104.773C328.977 105.14 328.629 105.428 328.183 105.638C327.739 105.846 327.227 105.949 326.644 105.949ZM326.644 105.012C327.039 105.012 327.38 104.948 327.667 104.82C327.954 104.692 328.175 104.512 328.332 104.279C328.488 104.046 328.567 103.773 328.57 103.461C328.567 103.131 328.482 102.84 328.315 102.587C328.147 102.334 327.918 102.135 327.629 101.991C327.342 101.846 327.013 101.773 326.644 101.773C326.272 101.773 325.94 101.846 325.647 101.991C325.357 102.135 325.129 102.334 324.961 102.587C324.796 102.84 324.715 103.131 324.718 103.461C324.715 103.773 324.79 104.046 324.944 104.279C325.1 104.512 325.323 104.692 325.613 104.82C325.903 104.948 326.246 105.012 326.644 105.012ZM326.644 100.87C326.957 100.87 327.234 100.807 327.475 100.682C327.719 100.557 327.911 100.383 328.05 100.158C328.19 99.9338 328.261 99.671 328.263 99.3699C328.261 99.0744 328.191 98.8173 328.055 98.5985C327.918 98.377 327.729 98.2065 327.488 98.0872C327.246 97.965 326.965 97.9039 326.644 97.9039C326.317 97.9039 326.032 97.965 325.788 98.0872C325.543 98.2065 325.354 98.377 325.221 98.5985C325.087 98.8173 325.022 99.0744 325.025 99.3699C325.022 99.671 325.089 99.9338 325.225 100.158C325.364 100.383 325.556 100.557 325.8 100.682C326.045 100.807 326.326 100.87 326.644 100.87ZM334.09 105.949C333.448 105.949 332.901 105.775 332.449 105.425C331.998 105.073 331.652 104.563 331.414 103.895C331.175 103.225 331.056 102.415 331.056 101.466C331.056 100.523 331.175 99.7179 331.414 99.0502C331.655 98.3798 332.002 97.8684 332.453 97.5162C332.908 97.161 333.453 96.9835 334.09 96.9835C334.726 96.9835 335.27 97.161 335.722 97.5162C336.176 97.8684 336.523 98.3798 336.762 99.0502C337.003 99.7179 337.124 100.523 337.124 101.466C337.124 102.415 337.005 103.225 336.766 103.895C336.527 104.563 336.182 105.073 335.73 105.425C335.279 105.775 334.732 105.949 334.09 105.949ZM334.09 105.012C334.726 105.012 335.221 104.705 335.573 104.091C335.925 103.478 336.101 102.603 336.101 101.466C336.101 100.711 336.02 100.067 335.858 99.536C335.699 99.0048 335.469 98.6 335.168 98.3216C334.87 98.0431 334.51 97.9039 334.09 97.9039C333.459 97.9039 332.966 98.215 332.611 98.8372C332.256 99.4565 332.078 100.333 332.078 101.466C332.078 102.222 332.158 102.864 332.317 103.393C332.476 103.921 332.705 104.323 333.003 104.599C333.304 104.874 333.667 105.012 334.09 105.012ZM341.59 105.949C340.948 105.949 340.401 105.775 339.949 105.425C339.498 105.073 339.152 104.563 338.914 103.895C338.675 103.225 338.556 102.415 338.556 101.466C338.556 100.523 338.675 99.7179 338.914 99.0502C339.155 98.3798 339.502 97.8684 339.953 97.5162C340.408 97.161 340.953 96.9835 341.59 96.9835C342.226 96.9835 342.77 97.161 343.222 97.5162C343.676 97.8684 344.023 98.3798 344.262 99.0502C344.503 99.7179 344.624 100.523 344.624 101.466C344.624 102.415 344.505 103.225 344.266 103.895C344.027 104.563 343.682 105.073 343.23 105.425C342.779 105.775 342.232 105.949 341.59 105.949ZM341.59 105.012C342.226 105.012 342.721 104.705 343.073 104.091C343.425 103.478 343.601 102.603 343.601 101.466C343.601 100.711 343.52 100.067 343.358 99.536C343.199 99.0048 342.969 98.6 342.668 98.3216C342.37 98.0431 342.01 97.9039 341.59 97.9039C340.959 97.9039 340.466 98.215 340.111 98.8372C339.756 99.4565 339.578 100.333 339.578 101.466C339.578 102.222 339.658 102.864 339.817 103.393C339.976 103.921 340.205 104.323 340.503 104.599C340.804 104.874 341.167 105.012 341.59 105.012ZM351.374 104.262L346.567 99.4551L347.215 98.8074L352.022 103.614L351.374 104.262ZM347.215 104.262L346.567 103.614L351.374 98.8074L352.022 99.4551L347.215 104.262ZM353.949 104.04V103.171L357.784 97.1028H358.415V98.4494H357.989L355.091 103.035V103.103H360.256V104.04H353.949ZM358.057 105.83V103.776V103.371V97.1028H359.062V105.83H358.057ZM364.699 105.949C364.057 105.949 363.51 105.775 363.059 105.425C362.607 105.073 362.262 104.563 362.023 103.895C361.784 103.225 361.665 102.415 361.665 101.466C361.665 100.523 361.784 99.7179 362.023 99.0502C362.265 98.3798 362.611 97.8684 363.063 97.5162C363.517 97.161 364.063 96.9835 364.699 96.9835C365.336 96.9835 365.88 97.161 366.331 97.5162C366.786 97.8684 367.132 98.3798 367.371 99.0502C367.613 99.7179 367.733 100.523 367.733 101.466C367.733 102.415 367.614 103.225 367.375 103.895C367.137 104.563 366.792 105.073 366.34 105.425C365.888 105.775 365.341 105.949 364.699 105.949ZM364.699 105.012C365.336 105.012 365.83 104.705 366.182 104.091C366.534 103.478 366.711 102.603 366.711 101.466C366.711 100.711 366.63 100.067 366.468 99.536C366.309 99.0048 366.078 98.6 365.777 98.3216C365.479 98.0431 365.12 97.9039 364.699 97.9039C364.069 97.9039 363.576 98.215 363.221 98.8372C362.865 99.4565 362.688 100.333 362.688 101.466C362.688 102.222 362.767 102.864 362.926 103.393C363.086 103.921 363.314 104.323 363.613 104.599C363.914 104.874 364.276 105.012 364.699 105.012ZM372.199 105.949C371.557 105.949 371.01 105.775 370.559 105.425C370.107 105.073 369.762 104.563 369.523 103.895C369.284 103.225 369.165 102.415 369.165 101.466C369.165 100.523 369.284 99.7179 369.523 99.0502C369.765 98.3798 370.111 97.8684 370.563 97.5162C371.017 97.161 371.563 96.9835 372.199 96.9835C372.836 96.9835 373.38 97.161 373.831 97.5162C374.286 97.8684 374.632 98.3798 374.871 99.0502C375.113 99.7179 375.233 100.523 375.233 101.466C375.233 102.415 375.114 103.225 374.875 103.895C374.637 104.563 374.292 105.073 373.84 105.425C373.388 105.775 372.841 105.949 372.199 105.949ZM372.199 105.012C372.836 105.012 373.33 104.705 373.682 104.091C374.034 103.478 374.211 102.603 374.211 101.466C374.211 100.711 374.13 100.067 373.968 99.536C373.809 99.0048 373.578 98.6 373.277 98.3216C372.979 98.0431 372.62 97.9039 372.199 97.9039C371.569 97.9039 371.076 98.215 370.721 98.8372C370.365 99.4565 370.188 100.333 370.188 101.466C370.188 102.222 370.267 102.864 370.426 103.393C370.586 103.921 370.814 104.323 371.113 104.599C371.414 104.874 371.776 105.012 372.199 105.012ZM376.87 108.285V99.2846H377.841V100.324H377.961C378.034 100.211 378.137 100.066 378.267 99.8897C378.401 99.7108 378.591 99.5517 378.838 99.4125C379.088 99.2704 379.426 99.1994 379.853 99.1994C380.404 99.1994 380.89 99.3372 381.31 99.6127C381.73 99.8883 382.059 100.279 382.294 100.785C382.53 101.29 382.648 101.887 382.648 102.574C382.648 103.268 382.53 103.868 382.294 104.377C382.059 104.883 381.732 105.275 381.314 105.553C380.897 105.829 380.415 105.966 379.87 105.966C379.449 105.966 379.113 105.897 378.86 105.758C378.607 105.616 378.412 105.455 378.276 105.276C378.14 105.094 378.034 104.944 377.961 104.824H377.875V108.285H376.87ZM377.858 102.557C377.858 103.052 377.931 103.488 378.076 103.866C378.221 104.241 378.432 104.535 378.711 104.748C378.989 104.958 379.33 105.063 379.733 105.063C380.154 105.063 380.505 104.952 380.786 104.731C381.07 104.506 381.283 104.205 381.425 103.827C381.57 103.447 381.642 103.023 381.642 102.557C381.642 102.097 381.571 101.682 381.429 101.313C381.29 100.941 381.078 100.647 380.794 100.431C380.513 100.212 380.159 100.103 379.733 100.103C379.324 100.103 378.98 100.206 378.702 100.414C378.424 100.618 378.213 100.905 378.071 101.275C377.929 101.641 377.858 102.069 377.858 102.557ZM384.663 99.2846L386.231 101.961L387.799 99.2846H388.958L386.844 102.557L388.958 105.83H387.799L386.231 103.29L384.663 105.83H383.504L385.583 102.557L383.504 99.2846H384.663ZM392.541 102.148C392.541 103.222 392.4 104.211 392.119 105.114C391.841 106.015 391.441 106.844 390.922 107.603H390.035C390.24 107.322 390.43 106.975 390.606 106.563C390.785 106.154 390.941 105.705 391.075 105.216C391.208 104.725 391.312 104.218 391.386 103.695C391.463 103.17 391.501 102.654 391.501 102.148C391.501 101.472 391.436 100.786 391.305 100.09C391.174 99.394 390.998 98.7477 390.777 98.1511C390.555 97.5545 390.308 97.0687 390.035 96.6937H390.922C391.441 97.4522 391.841 98.2832 392.119 99.1866C392.4 100.087 392.541 101.074 392.541 102.148Z" fill="#6B7280"/>
<defs>
<clipPath id="clip0_4221_10518">
<rect width="20" height="20" fill="white" transform="translate(266 35.8301)"/>
</clipPath>
</defs>
</svg>
