<svg width="26" height="27" viewBox="0 0 26 27" fill="none" xmlns="http://www.w3.org/2000/svg">
<path d="M13.3077 10.1154C15.6868 10.1154 17.6154 8.18677 17.6154 5.80769C17.6154 3.42862 15.6868 1.5 13.3077 1.5C10.9286 1.5 9 3.42862 9 5.80769C9 8.18677 10.9286 10.1154 13.3077 10.1154Z" stroke="white" stroke-width="2" stroke-linecap="round" stroke-linejoin="round"/>
<path d="M1 24.2692C1 18.8311 5.95938 14.4231 12.0769 14.4231" stroke="white" stroke-width="2" stroke-linecap="round" stroke-linejoin="round"/>
<path d="M19.4603 25.5C22.5191 25.5 24.9988 23.0204 24.9988 19.9616C24.9988 16.9027 22.5191 14.4231 19.4603 14.4231C16.4015 14.4231 13.9219 16.9027 13.9219 19.9616C13.9219 23.0204 16.4015 25.5 19.4603 25.5Z" stroke="white" stroke-width="2"/>
<path d="M18.8477 18.1154V20.5769H21.3092" stroke="white" stroke-width="2" stroke-linecap="round" stroke-linejoin="round"/>
</svg>
