<svg width="13" height="13" viewBox="0 0 13 13" fill="none" xmlns="http://www.w3.org/2000/svg">
<path opacity="0.14" d="M1.625 4.44171C1.625 3.83498 1.625 3.53162 1.74308 3.29988C1.84694 3.09604 2.01267 2.93031 2.21651 2.82645C2.44825 2.70837 2.75161 2.70837 3.35833 2.70837H9.64167C10.2484 2.70837 10.5518 2.70837 10.7835 2.82645C10.9873 2.93031 11.1531 3.09604 11.2569 3.29988C11.375 3.53162 11.375 3.83498 11.375 4.44171V5.41671H1.625V4.44171Z" fill="black"/>
<path d="M1.625 5.41667H11.375M3.79167 1.625V2.70833M9.20833 1.625V2.70833M3.35833 11.375H9.64167C10.2484 11.375 10.5518 11.375 10.7835 11.2569C10.9873 11.1531 11.1531 10.9873 11.2569 10.7835C11.375 10.5518 11.375 10.2484 11.375 9.64167V4.44167C11.375 3.83494 11.375 3.53158 11.2569 3.29984C11.1531 3.096 10.9873 2.93027 10.7835 2.82641C10.5518 2.70833 10.2484 2.70833 9.64167 2.70833H3.35833C2.75161 2.70833 2.44825 2.70833 2.21651 2.82641C2.01267 2.93027 1.84694 3.096 1.74308 3.29984C1.625 3.53158 1.625 3.83494 1.625 4.44167V9.64167C1.625 10.2484 1.625 10.5518 1.74308 10.7835C1.84694 10.9873 2.01267 11.1531 2.21651 11.2569C2.44825 11.375 2.75161 11.375 3.35833 11.375Z" stroke="black" stroke-opacity="0.4" stroke-linecap="round" stroke-linejoin="round"/>
</svg>
