<svg width="34" height="37" viewBox="0 0 34 37" fill="none" xmlns="http://www.w3.org/2000/svg">
<path d="M33.1929 23.1162L29.7667 19.7325V15.25C29.7628 12.1523 28.596 9.16606 26.492 6.86873C24.3879 4.57139 21.4961 3.12617 18.3757 2.8125V0.25H15.8443V2.8125C12.7239 3.12617 9.83208 4.57139 7.72804 6.86873C5.62399 9.16606 4.4572 12.1523 4.45327 15.25V19.7325L1.02709 23.1162C0.789716 23.3506 0.656322 23.6685 0.65625 24V27.75C0.65625 28.0815 0.789597 28.3995 1.02696 28.6339C1.26432 28.8683 1.58625 29 1.92192 29H10.7816V29.9712C10.7535 31.5572 11.3193 33.0975 12.3704 34.2969C13.4215 35.4962 14.8839 36.27 16.4772 36.47C17.357 36.5562 18.2454 36.4595 19.0852 36.1862C19.925 35.913 20.6975 35.4691 21.3532 34.8833C22.0089 34.2974 22.5331 33.5825 22.8922 32.7846C23.2514 31.9866 23.4374 31.1232 23.4384 30.25V29H32.2981C32.6338 29 32.9557 28.8683 33.1931 28.6339C33.4304 28.3995 33.5638 28.0815 33.5638 27.75V24C33.5637 23.6685 33.4303 23.3506 33.1929 23.1162ZM20.907 30.25C20.907 31.2446 20.507 32.1984 19.7949 32.9016C19.0828 33.6049 18.117 34 17.11 34C16.103 34 15.1372 33.6049 14.4251 32.9016C13.713 32.1984 13.313 31.2446 13.313 30.25V29H20.907V30.25ZM31.0324 26.5H3.1876V24.5175L6.61378 21.1337C6.85115 20.8994 6.98455 20.5815 6.98462 20.25V15.25C6.98462 12.5978 8.0514 10.0543 9.95028 8.17893C11.8492 6.30357 14.4246 5.25 17.11 5.25C19.7954 5.25 22.3709 6.30357 24.2697 8.17893C26.1686 10.0543 27.2354 12.5978 27.2354 15.25V20.25C27.2355 20.5815 27.3689 20.8994 27.6062 21.1337L31.0324 24.5175V26.5Z" fill="black"/>
</svg>
