<svg width="26" height="27" viewBox="0 0 26 27" fill="none" xmlns="http://www.w3.org/2000/svg">
<path d="M5.39969 4.16667H25L22.3333 13.5H6.83562M23.6667 18.8333H7.66667L5 1.5H1M9 24.1667C9 24.903 8.40305 25.5 7.66667 25.5C6.93029 25.5 6.33333 24.903 6.33333 24.1667C6.33333 23.4303 6.93029 22.8333 7.66667 22.8333C8.40305 22.8333 9 23.4303 9 24.1667ZM23.6667 24.1667C23.6667 24.903 23.0697 25.5 22.3333 25.5C21.597 25.5 21 24.903 21 24.1667C21 23.4303 21.597 22.8333 22.3333 22.8333C23.0697 22.8333 23.6667 23.4303 23.6667 24.1667Z" stroke="#F9F6F6" stroke-width="2" stroke-linecap="round" stroke-linejoin="round"/>
</svg>
