<svg width="27" height="27" viewBox="0 0 27 27" fill="none" xmlns="http://www.w3.org/2000/svg">
<path d="M13.5 7.875V22.5M13.5 7.875H9.52232C8.93624 7.875 8.37416 7.63795 7.95974 7.21599C7.54532 6.79403 7.3125 6.22174 7.3125 5.625C7.3125 5.02826 7.54532 4.45597 7.95974 4.03401C8.37416 3.61205 8.93624 3.375 9.52232 3.375C12.6161 3.375 13.5 7.875 13.5 7.875ZM13.5 7.875H17.4777C18.0638 7.875 18.6258 7.63795 19.0403 7.21599C19.4547 6.79403 19.6875 6.22174 19.6875 5.625C19.6875 5.02826 19.4547 4.45597 19.0403 4.03401C18.6258 3.61205 18.0638 3.375 17.4777 3.375C14.3839 3.375 13.5 7.875 13.5 7.875ZM5.625 13.5H21.375V20.025C21.375 21.2851 21.375 21.9152 21.1298 22.3965C20.914 22.8198 20.5698 23.164 20.1465 23.3798C19.6652 23.625 19.0351 23.625 17.775 23.625H9.225C7.96488 23.625 7.33482 23.625 6.85352 23.3798C6.43016 23.164 6.08595 22.8198 5.87024 22.3965C5.625 21.9152 5.625 21.2851 5.625 20.025V13.5ZM5.175 13.5H21.825C22.4551 13.5 22.7701 13.5 23.0107 13.3774C23.2224 13.2695 23.3945 13.0974 23.5024 12.8857C23.625 12.6451 23.625 12.3301 23.625 11.7V9.675C23.625 9.04494 23.625 8.72991 23.5024 8.48926C23.3945 8.27758 23.2224 8.10548 23.0107 7.99762C22.7701 7.875 22.4551 7.875 21.825 7.875H5.175C4.54494 7.875 4.22991 7.875 3.98926 7.99762C3.77758 8.10548 3.60548 8.27758 3.49762 8.48926C3.375 8.72991 3.375 9.04494 3.375 9.675V11.7C3.375 12.3301 3.375 12.6451 3.49762 12.8857C3.60548 13.0974 3.77758 13.2695 3.98926 13.3774C4.22991 13.5 4.54494 13.5 5.175 13.5Z" stroke="#FFFDFD" stroke-width="2" stroke-linecap="round" stroke-linejoin="round"/>
</svg>
