<svg width="27" height="23" viewBox="0 0 27 23" fill="none" xmlns="http://www.w3.org/2000/svg">
<path d="M15 0.5C12.0163 0.5 9.15483 1.64576 7.04505 3.68521C4.93526 5.72467 3.75 8.49077 3.75 11.375H0L4.8625 16.0754L4.95 16.2446L10 11.375H6.25C6.25 6.69875 10.1625 2.91667 15 2.91667C19.8375 2.91667 23.75 6.69875 23.75 11.375C23.75 16.0513 19.8375 19.8333 15 19.8333C12.5875 19.8333 10.4 18.8788 8.825 17.3442L7.05 19.06C8.09177 20.0726 9.33061 20.8758 10.6951 21.4233C12.0595 21.9708 13.5226 22.2518 15 22.25C17.9837 22.25 20.8452 21.1042 22.955 19.0648C25.0647 17.0253 26.25 14.2592 26.25 11.375C26.25 8.49077 25.0647 5.72467 22.955 3.68521C20.8452 1.64576 17.9837 0.5 15 0.5ZM13.75 6.54167V12.5833L19.0625 15.6283L20.025 14.0817L15.625 11.5562V6.54167H13.75Z" fill="#F8F8F8"/>
</svg>
