<svg width="26" height="26" viewBox="0 0 26 26" fill="none" xmlns="http://www.w3.org/2000/svg">
<path d="M13.0017 21.3571C17.6172 21.3571 21.3588 17.6155 21.3588 13C21.3588 8.38444 17.6172 4.64282 13.0017 4.64282C8.38615 4.64282 4.64453 8.38444 4.64453 13C4.64453 17.6155 8.38615 21.3571 13.0017 21.3571Z" stroke="#111926" stroke-width="3" stroke-linecap="round" stroke-linejoin="round"/>
<path d="M13.0028 13.9286C13.5156 13.9286 13.9314 13.5128 13.9314 13C13.9314 12.4872 13.5156 12.0714 13.0028 12.0714C12.49 12.0714 12.0742 12.4872 12.0742 13C12.0742 13.5128 12.49 13.9286 13.0028 13.9286Z" stroke="black" stroke-linecap="round" stroke-linejoin="round"/>
<path d="M13 4.64287V0.928589" stroke="#111926" stroke-width="3" stroke-linecap="round" stroke-linejoin="round"/>
<path d="M13 25.0715V21.3572" stroke="#111926" stroke-width="3" stroke-linecap="round" stroke-linejoin="round"/>
<path d="M21.3594 13H25.0737" stroke="#111926" stroke-width="3" stroke-linecap="round" stroke-linejoin="round"/>
<path d="M0.929688 13H4.64397" stroke="#111926" stroke-width="3" stroke-linecap="round" stroke-linejoin="round"/>
</svg>
