<svg width="31" height="34" viewBox="0 0 31 34" fill="none" xmlns="http://www.w3.org/2000/svg">
<g clip-path="url(#clip0_2_3951)">
<path d="M6.02691 5.66672H19.8047V14.9223H21.5269V5.66672C21.5269 5.16576 21.3455 4.68531 21.0225 4.33107C20.6995 3.97684 20.2614 3.77783 19.8047 3.77783H6.02691C5.57015 3.77783 5.13209 3.97684 4.80911 4.33107C4.48614 4.68531 4.30469 5.16576 4.30469 5.66672V28.3334C4.30469 28.8344 4.48614 29.3148 4.80911 29.669C5.13209 30.0233 5.57015 30.2223 6.02691 30.2223H19.8047C20.2614 30.2223 20.6995 30.0233 21.0225 29.669C21.3455 29.3148 21.5269 28.8344 21.5269 28.3334H6.02691V5.66672Z" fill="#FFFCFC"/>
<path d="M24.2485 16.32C24.0838 16.1653 23.8719 16.0844 23.6551 16.0936C23.4384 16.1028 23.2328 16.2013 23.0795 16.3695C22.9261 16.5377 22.8363 16.7632 22.8279 17.0009C22.8195 17.2386 22.8933 17.471 23.0343 17.6517L25.9449 20.7778H13.4588C13.2304 20.7778 13.0114 20.8773 12.8499 21.0544C12.6884 21.2315 12.5977 21.4717 12.5977 21.7222C12.5977 21.9727 12.6884 22.2129 12.8499 22.39C13.0114 22.5672 13.2304 22.6667 13.4588 22.6667H25.9449L23.0343 25.9344C22.9442 26.0191 22.871 26.1233 22.8193 26.2405C22.7676 26.3576 22.7385 26.4853 22.734 26.6153C22.7294 26.7454 22.7494 26.8751 22.7927 26.9963C22.836 27.1175 22.9016 27.2276 22.9855 27.3196C23.0695 27.4116 23.1698 27.4837 23.2803 27.5312C23.3908 27.5786 23.5091 27.6005 23.6277 27.5955C23.7463 27.5905 23.8626 27.5586 23.9695 27.502C24.0763 27.4453 24.1713 27.365 24.2485 27.2661L29.2774 21.7883L24.2485 16.32Z" fill="#FFFCFC"/>
</g>
<defs>
<clipPath id="clip0_2_3951">
<rect width="31" height="34" fill="white"/>
</clipPath>
</defs>
</svg>
