<svg width="26" height="27" viewBox="0 0 26 27" fill="none" xmlns="http://www.w3.org/2000/svg">
<path d="M8.5 12.1667V5.5C8.5 3.29086 10.5147 1.5 13 1.5C15.4853 1.5 17.5 3.29086 17.5 5.5V12.123M10.6 25.5H15.4C18.7603 25.5 20.4405 25.5 21.7239 24.9187C22.8529 24.4074 23.7708 23.5915 24.346 22.588C25 21.4471 25 19.9536 25 16.9667V13.7667C25 12.2732 25 11.5265 24.673 10.956C24.3854 10.4543 23.9265 10.0463 23.362 9.79065C22.7202 9.5 21.8802 9.5 20.2 9.5H5.8C4.11984 9.5 3.27976 9.5 2.63803 9.79065C2.07354 10.0463 1.6146 10.4543 1.32698 10.956C1 11.5265 1 12.2732 1 13.7667V16.9667C1 19.9536 1 21.4471 1.65396 22.588C2.2292 23.5915 3.14708 24.4074 4.27606 24.9187C5.55953 25.5 7.23968 25.5 10.6 25.5Z" stroke="white" stroke-width="2" stroke-linecap="round" stroke-linejoin="round"/>
</svg>
