<svg width="12" height="12" viewBox="0 0 12 12" fill="none" xmlns="http://www.w3.org/2000/svg">
<path fill-rule="evenodd" clip-rule="evenodd" d="M11.25 6C11.25 8.8995 8.8995 11.25 6 11.25C3.10051 11.25 0.75 8.8995 0.75 6C0.75 3.10051 3.10051 0.75 6 0.75C8.8995 0.75 11.25 3.10051 11.25 6ZM3.31311 8.68689C3.11785 8.49162 3.11785 8.17504 3.31311 7.97978L5.29289 6L3.31311 4.02022C3.11785 3.82496 3.11785 3.50838 3.31311 3.31311C3.50838 3.11785 3.82496 3.11785 4.02022 3.31311L6 5.29289L7.97978 3.31311C8.17504 3.11785 8.49162 3.11785 8.68689 3.31311C8.88215 3.50838 8.88215 3.82496 8.68689 4.02022L6.70711 6L8.68689 7.97978C8.88215 8.17504 8.88215 8.49162 8.68689 8.68689C8.49162 8.88215 8.17504 8.88215 7.97978 8.68689L6 6.70711L4.02022 8.68689C3.82496 8.88215 3.50838 8.88215 3.31311 8.68689Z" fill="#8F8F8F"/>
</svg>
