<svg width="13" height="13" viewBox="0 0 13 13" fill="none" xmlns="http://www.w3.org/2000/svg">
<g clip-path="url(#clip0_2_3839)">
<path d="M6.4987 1.08337C9.49032 1.08337 11.9154 3.50842 11.9154 6.50004C11.9154 9.49167 9.49032 11.9167 6.4987 11.9167C3.50707 11.9167 1.08203 9.49167 1.08203 6.50004C1.08203 3.50842 3.50707 1.08337 6.4987 1.08337ZM6.4987 2.16671C5.34943 2.16671 4.24723 2.62325 3.43457 3.43591C2.62191 4.24857 2.16536 5.35077 2.16536 6.50004C2.16536 7.64931 2.62191 8.75151 3.43457 9.56417C4.24723 10.3768 5.34943 10.8334 6.4987 10.8334C7.64797 10.8334 8.75017 10.3768 9.56283 9.56417C10.3755 8.75151 10.832 7.64931 10.832 6.50004C10.832 5.35077 10.3755 4.24857 9.56283 3.43591C8.75017 2.62325 7.64797 2.16671 6.4987 2.16671ZM6.4987 3.25004C6.63137 3.25006 6.75942 3.29877 6.85857 3.38693C6.95771 3.47509 7.02105 3.59657 7.03657 3.72833L7.04036 3.79171V6.27579L8.50666 7.74208C8.6038 7.83956 8.6602 7.97036 8.66441 8.10792C8.66861 8.24547 8.62029 8.37947 8.52927 8.48269C8.43825 8.58591 8.31136 8.65062 8.17436 8.66367C8.03736 8.67672 7.90053 8.63714 7.79166 8.55296L7.74074 8.508L6.11574 6.883C6.03155 6.79874 5.97749 6.68908 5.96191 6.571L5.95703 6.50004V3.79171C5.95703 3.64805 6.0141 3.51027 6.11568 3.40869C6.21726 3.30711 6.35504 3.25004 6.4987 3.25004Z" fill="black" fill-opacity="0.4"/>
</g>
<defs>
<clipPath id="clip0_2_3839">
<rect width="13" height="13" fill="white"/>
</clipPath>
</defs>
</svg>
